<?xml version="1.0" encoding="utf-8" standalone="no"?>
<!DOCTYPE svg PUBLIC "-//W3C//DTD SVG 1.1//EN"
  "http://www.w3.org/Graphics/SVG/1.1/DTD/svg11.dtd">
<svg xmlns:xlink="http://www.w3.org/1999/xlink" width="589.845pt" height="276.798125pt" viewBox="0 0 589.845 276.798125" xmlns="http://www.w3.org/2000/svg" version="1.1">
 <metadata>
  <rdf:RDF xmlns:dc="http://purl.org/dc/elements/1.1/" xmlns:cc="http://creativecommons.org/ns#" xmlns:rdf="http://www.w3.org/1999/02/22-rdf-syntax-ns#">
   <cc:Work>
    <dc:type rdf:resource="http://purl.org/dc/dcmitype/StillImage"/>
    <dc:date>2025-04-21T11:11:27.811971</dc:date>
    <dc:format>image/svg+xml</dc:format>
    <dc:creator>
     <cc:Agent>
      <dc:title>Matplotlib v3.7.1, https://matplotlib.org/</dc:title>
     </cc:Agent>
    </dc:creator>
   </cc:Work>
  </rdf:RDF>
 </metadata>
 <defs>
  <style type="text/css">*{stroke-linejoin: round; stroke-linecap: butt}</style>
 </defs>
 <g id="figure_1">
  <g id="patch_1">
   <path d="M 0 276.798125 
L 589.845 276.798125 
L 589.845 0 
L 0 0 
z
" style="fill: #ffffff"/>
  </g>
  <g id="axes_1">
   <g id="patch_2">
    <path d="M 67.5125 252.92 
L 312.6675 252.92 
L 312.6675 68.64 
L 67.5125 68.64 
z
" style="fill: #ffffff"/>
   </g>
   <g id="PolyCollection_1">
    <defs>
     <path id="m6fd736f3dd" d="M 130.442368 -86.220864 
L 127.160132 -86.220864 
L 127.011124 -87.271219 
L 126.873505 -88.321574 
L 126.743791 -89.371929 
L 126.61549 -90.422283 
L 126.479746 -91.472638 
L 126.326446 -92.522993 
L 126.145644 -93.573348 
L 125.929093 -94.623702 
L 125.671667 -95.674057 
L 125.372447 -96.724412 
L 125.035271 -97.774767 
L 124.668636 -98.825121 
L 124.284917 -99.875476 
L 123.898966 -100.925831 
L 123.52625 -101.976186 
L 123.180772 -103.02654 
L 122.873043 -104.076895 
L 122.608411 -105.12725 
L 122.385985 -106.177605 
L 122.198321 -107.227959 
L 122.031952 -108.278314 
L 121.86867 -109.328669 
L 121.687402 -110.379024 
L 121.466398 -111.429378 
L 121.185419 -112.479733 
L 120.827612 -113.530088 
L 120.380842 -114.580443 
L 119.838328 -115.630797 
L 119.198574 -116.681152 
L 118.4647 -117.731507 
L 117.643363 -118.781862 
L 116.743517 -119.832216 
L 115.77524 -120.882571 
L 114.748829 -121.932926 
L 113.674265 -122.983281 
L 112.56108 -124.033635 
L 111.418534 -125.08399 
L 110.255994 -126.134345 
L 109.083301 -127.1847 
L 107.91101 -128.235054 
L 106.75034 -129.285409 
L 105.612812 -130.335764 
L 104.509599 -131.386119 
L 103.450697 -132.436473 
L 102.444049 -133.486828 
L 101.494766 -134.537183 
L 100.604547 -135.587538 
L 99.771365 -136.637892 
L 98.989397 -137.688247 
L 98.249206 -138.738602 
L 97.538123 -139.788957 
L 96.840838 -140.839311 
L 96.140217 -141.889666 
L 95.418337 -142.940021 
L 94.657762 -143.990376 
L 93.842963 -145.04073 
L 92.961787 -146.091085 
L 92.006795 -147.14144 
L 90.976305 -148.191795 
L 89.875027 -149.242149 
L 88.71423 -150.292504 
L 87.511487 -151.342859 
L 86.290116 -152.393214 
L 85.078404 -153.443568 
L 83.908714 -154.493923 
L 82.816432 -155.544278 
L 81.83868 -156.594632 
L 81.012646 -157.644987 
L 80.373446 -158.695342 
L 79.951586 -159.745697 
L 79.77025 -160.796051 
L 79.842866 -161.846406 
L 80.171474 -162.896761 
L 80.746395 -163.947116 
L 81.547478 -164.99747 
L 82.546893 -166.047825 
L 83.713053 -167.09818 
L 85.014984 -168.148535 
L 86.426302 -169.198889 
L 87.928057 -170.249244 
L 89.509955 -171.299599 
L 91.169793 -172.349954 
L 92.91137 -173.400308 
L 94.74135 -174.450663 
L 96.665743 -175.501018 
L 98.686621 -176.551373 
L 100.799595 -177.601727 
L 102.992359 -178.652082 
L 105.244408 -179.702437 
L 107.52788 -180.752792 
L 109.809316 -181.803146 
L 112.052059 -182.853501 
L 114.218972 -183.903856 
L 116.27515 -184.954211 
L 118.190325 -186.004565 
L 119.940736 -187.05492 
L 121.510291 -188.105275 
L 122.890966 -189.15563 
L 124.082491 -190.205984 
L 133.520009 -190.205984 
L 133.520009 -190.205984 
L 134.711534 -189.15563 
L 136.092209 -188.105275 
L 137.661764 -187.05492 
L 139.412175 -186.004565 
L 141.32735 -184.954211 
L 143.383528 -183.903856 
L 145.550441 -182.853501 
L 147.793184 -181.803146 
L 150.07462 -180.752792 
L 152.358092 -179.702437 
L 154.610141 -178.652082 
L 156.802905 -177.601727 
L 158.915879 -176.551373 
L 160.936757 -175.501018 
L 162.86115 -174.450663 
L 164.69113 -173.400308 
L 166.432707 -172.349954 
L 168.092545 -171.299599 
L 169.674443 -170.249244 
L 171.176198 -169.198889 
L 172.587516 -168.148535 
L 173.889447 -167.09818 
L 175.055607 -166.047825 
L 176.055022 -164.99747 
L 176.856105 -163.947116 
L 177.431026 -162.896761 
L 177.759634 -161.846406 
L 177.83225 -160.796051 
L 177.650914 -159.745697 
L 177.229054 -158.695342 
L 176.589854 -157.644987 
L 175.76382 -156.594632 
L 174.786068 -155.544278 
L 173.693786 -154.493923 
L 172.524096 -153.443568 
L 171.312384 -152.393214 
L 170.091013 -151.342859 
L 168.88827 -150.292504 
L 167.727473 -149.242149 
L 166.626195 -148.191795 
L 165.595705 -147.14144 
L 164.640713 -146.091085 
L 163.759537 -145.04073 
L 162.944738 -143.990376 
L 162.184163 -142.940021 
L 161.462283 -141.889666 
L 160.761662 -140.839311 
L 160.064377 -139.788957 
L 159.353294 -138.738602 
L 158.613103 -137.688247 
L 157.831135 -136.637892 
L 156.997953 -135.587538 
L 156.107734 -134.537183 
L 155.158451 -133.486828 
L 154.151803 -132.436473 
L 153.092901 -131.386119 
L 151.989688 -130.335764 
L 150.85216 -129.285409 
L 149.69149 -128.235054 
L 148.519199 -127.1847 
L 147.346506 -126.134345 
L 146.183966 -125.08399 
L 145.04142 -124.033635 
L 143.928235 -122.983281 
L 142.853671 -121.932926 
L 141.82726 -120.882571 
L 140.858983 -119.832216 
L 139.959137 -118.781862 
L 139.1378 -117.731507 
L 138.403926 -116.681152 
L 137.764172 -115.630797 
L 137.221658 -114.580443 
L 136.774888 -113.530088 
L 136.417081 -112.479733 
L 136.136102 -111.429378 
L 135.915098 -110.379024 
L 135.73383 -109.328669 
L 135.570548 -108.278314 
L 135.404179 -107.227959 
L 135.216515 -106.177605 
L 134.994089 -105.12725 
L 134.729457 -104.076895 
L 134.421728 -103.02654 
L 134.07625 -101.976186 
L 133.703534 -100.925831 
L 133.317583 -99.875476 
L 132.933864 -98.825121 
L 132.567229 -97.774767 
L 132.230053 -96.724412 
L 131.930833 -95.674057 
L 131.673407 -94.623702 
L 131.456856 -93.573348 
L 131.276054 -92.522993 
L 131.122754 -91.472638 
L 130.98701 -90.422283 
L 130.858709 -89.371929 
L 130.728995 -88.321574 
L 130.591376 -87.271219 
L 130.442368 -86.220864 
z
" style="stroke: #3f3f3f; stroke-width: 1.5"/>
    </defs>
    <g clip-path="url(#pdff4fc320f)">
     <use xlink:href="#m6fd736f3dd" x="0" y="276.798125" style="fill: #3274a1; stroke: #3f3f3f; stroke-width: 1.5"/>
    </g>
   </g>
   <g id="PolyCollection_2">
    <defs>
     <path id="m056995b5bb" d="M 252.284381 -89.973636 
L 250.473119 -89.973636 
L 250.332501 -91.082809 
L 250.171263 -92.191982 
L 249.983711 -93.301155 
L 249.763945 -94.410328 
L 249.506226 -95.519501 
L 249.205149 -96.628674 
L 248.855653 -97.737847 
L 248.453017 -98.84702 
L 247.993098 -99.956193 
L 247.472991 -101.065366 
L 246.892166 -102.174539 
L 246.2539 -103.283712 
L 245.566581 -104.392885 
L 244.844335 -105.502058 
L 244.10647 -106.611231 
L 243.375476 -107.720404 
L 242.673706 -108.829577 
L 242.019289 -109.93875 
L 241.422171 -111.047923 
L 240.881284 -112.157096 
L 240.38365 -113.266269 
L 239.905856 -114.375442 
L 239.41771 -115.484615 
L 238.8874 -116.593788 
L 238.287042 -117.702961 
L 237.597413 -118.812134 
L 236.810816 -119.921307 
L 235.931477 -121.03048 
L 234.973349 -122.139653 
L 233.955808 -123.248826 
L 232.898098 -124.357999 
L 231.813658 -125.467172 
L 230.705467 -126.576345 
L 229.563458 -127.685518 
L 228.364702 -128.794691 
L 227.076698 -129.903864 
L 225.663569 -131.013037 
L 224.094366 -132.12221 
L 222.352113 -133.231383 
L 220.441756 -134.340556 
L 218.395047 -135.449729 
L 216.270754 -136.558901 
L 214.149406 -137.668074 
L 212.123011 -138.777247 
L 210.281485 -139.88642 
L 208.698461 -140.995593 
L 207.419494 -142.104766 
L 206.455188 -143.213939 
L 205.780646 -144.323112 
L 205.341188 -145.432285 
L 205.062947 -146.541458 
L 204.866069 -147.650631 
L 204.678009 -148.759804 
L 204.444741 -149.868977 
L 204.1384 -150.97815 
L 203.760646 -152.087323 
L 203.341703 -153.196496 
L 202.935468 -154.305669 
L 202.611443 -155.414842 
L 202.444478 -156.524015 
L 202.503621 -157.633188 
L 202.841651 -158.742361 
L 203.486971 -159.851534 
L 204.439439 -160.960707 
L 205.671079 -162.06988 
L 207.131794 -163.179053 
L 208.759044 -164.288226 
L 210.489554 -165.397399 
L 212.270548 -166.506572 
L 214.06809 -167.615745 
L 215.870782 -168.724918 
L 217.688208 -169.834091 
L 219.544741 -170.943264 
L 221.470389 -172.052437 
L 223.490898 -173.16161 
L 225.61936 -174.270783 
L 227.850973 -175.379956 
L 230.161788 -176.489129 
L 232.511275 -177.598302 
L 234.847777 -178.707475 
L 237.115447 -179.816648 
L 239.261201 -180.925821 
L 241.24044 -182.034994 
L 243.020805 -183.144167 
L 244.58369 -184.25334 
L 245.923756 -185.362513 
L 247.046955 -186.471686 
L 247.967721 -187.580859 
L 248.705979 -188.690032 
L 249.284471 -189.799205 
L 249.726692 -190.908378 
L 250.055536 -192.017551 
L 250.292568 -193.126723 
L 250.457719 -194.235896 
L 250.569172 -195.345069 
L 250.643248 -196.454242 
L 250.694175 -197.563415 
L 250.733761 -198.672588 
L 250.771048 -199.781761 
L 251.986452 -199.781761 
L 251.986452 -199.781761 
L 252.023739 -198.672588 
L 252.063325 -197.563415 
L 252.114252 -196.454242 
L 252.188328 -195.345069 
L 252.299781 -194.235896 
L 252.464932 -193.126723 
L 252.701964 -192.017551 
L 253.030808 -190.908378 
L 253.473029 -189.799205 
L 254.051521 -188.690032 
L 254.789779 -187.580859 
L 255.710545 -186.471686 
L 256.833744 -185.362513 
L 258.17381 -184.25334 
L 259.736695 -183.144167 
L 261.51706 -182.034994 
L 263.496299 -180.925821 
L 265.642053 -179.816648 
L 267.909723 -178.707475 
L 270.246225 -177.598302 
L 272.595712 -176.489129 
L 274.906527 -175.379956 
L 277.13814 -174.270783 
L 279.266602 -173.16161 
L 281.287111 -172.052437 
L 283.212759 -170.943264 
L 285.069292 -169.834091 
L 286.886718 -168.724918 
L 288.68941 -167.615745 
L 290.486952 -166.506572 
L 292.267946 -165.397399 
L 293.998456 -164.288226 
L 295.625706 -163.179053 
L 297.086421 -162.06988 
L 298.318061 -160.960707 
L 299.270529 -159.851534 
L 299.915849 -158.742361 
L 300.253879 -157.633188 
L 300.313022 -156.524015 
L 300.146057 -155.414842 
L 299.822032 -154.305669 
L 299.415797 -153.196496 
L 298.996854 -152.087323 
L 298.6191 -150.97815 
L 298.312759 -149.868977 
L 298.079491 -148.759804 
L 297.891431 -147.650631 
L 297.694553 -146.541458 
L 297.416312 -145.432285 
L 296.976854 -144.323112 
L 296.302312 -143.213939 
L 295.338006 -142.104766 
L 294.059039 -140.995593 
L 292.476015 -139.88642 
L 290.634489 -138.777247 
L 288.608094 -137.668074 
L 286.486746 -136.558901 
L 284.362453 -135.449729 
L 282.315744 -134.340556 
L 280.405387 -133.231383 
L 278.663134 -132.12221 
L 277.093931 -131.013037 
L 275.680802 -129.903864 
L 274.392798 -128.794691 
L 273.194042 -127.685518 
L 272.052033 -126.576345 
L 270.943842 -125.467172 
L 269.859402 -124.357999 
L 268.801692 -123.248826 
L 267.784151 -122.139653 
L 266.826023 -121.03048 
L 265.946684 -119.921307 
L 265.160087 -118.812134 
L 264.470458 -117.702961 
L 263.8701 -116.593788 
L 263.33979 -115.484615 
L 262.851644 -114.375442 
L 262.37385 -113.266269 
L 261.876216 -112.157096 
L 261.335329 -111.047923 
L 260.738211 -109.93875 
L 260.083794 -108.829577 
L 259.382024 -107.720404 
L 258.65103 -106.611231 
L 257.913165 -105.502058 
L 257.190919 -104.392885 
L 256.5036 -103.283712 
L 255.865334 -102.174539 
L 255.284509 -101.065366 
L 254.764402 -99.956193 
L 254.304483 -98.84702 
L 253.901847 -97.737847 
L 253.552351 -96.628674 
L 253.251274 -95.519501 
L 252.993555 -94.410328 
L 252.773789 -93.301155 
L 252.586237 -92.191982 
L 252.424999 -91.082809 
L 252.284381 -89.973636 
z
" style="stroke: #3f3f3f; stroke-width: 1.5"/>
    </defs>
    <g clip-path="url(#pdff4fc320f)">
     <use xlink:href="#m056995b5bb" x="0" y="276.798125" style="fill: #e1812c; stroke: #3f3f3f; stroke-width: 1.5"/>
    </g>
   </g>
   <g id="matplotlib.axis_1">
    <g id="xtick_1">
     <g id="line2d_1">
      <defs>
       <path id="m338a05729b" d="M 0 0 
L 0 3.5 
" style="stroke: #000000; stroke-width: 0.8"/>
      </defs>
      <g>
       <use xlink:href="#m338a05729b" x="128.80125" y="252.92" style="stroke: #000000; stroke-width: 0.8"/>
      </g>
     </g>
     <g id="text_1">
      <!-- HC -->
      <g transform="translate(121.549688 267.518437) scale(0.1 -0.1)">
       <defs>
        <path id="DejaVuSans-48" d="M 628 4666 
L 1259 4666 
L 1259 2753 
L 3553 2753 
L 3553 4666 
L 4184 4666 
L 4184 0 
L 3553 0 
L 3553 2222 
L 1259 2222 
L 1259 0 
L 628 0 
L 628 4666 
z
" transform="scale(0.015625)"/>
        <path id="DejaVuSans-43" d="M 4122 4306 
L 4122 3641 
Q 3803 3938 3442 4084 
Q 3081 4231 2675 4231 
Q 1875 4231 1450 3742 
Q 1025 3253 1025 2328 
Q 1025 1406 1450 917 
Q 1875 428 2675 428 
Q 3081 428 3442 575 
Q 3803 722 4122 1019 
L 4122 359 
Q 3791 134 3420 21 
Q 3050 -91 2638 -91 
Q 1578 -91 968 557 
Q 359 1206 359 2328 
Q 359 3453 968 4101 
Q 1578 4750 2638 4750 
Q 3056 4750 3426 4639 
Q 3797 4528 4122 4306 
z
" transform="scale(0.015625)"/>
       </defs>
       <use xlink:href="#DejaVuSans-48"/>
       <use xlink:href="#DejaVuSans-43" x="75.195312"/>
      </g>
     </g>
    </g>
    <g id="xtick_2">
     <g id="line2d_2">
      <g>
       <use xlink:href="#m338a05729b" x="251.37875" y="252.92" style="stroke: #000000; stroke-width: 0.8"/>
      </g>
     </g>
     <g id="text_2">
      <!-- Cannabis -->
      <g transform="translate(228.25375 267.518437) scale(0.1 -0.1)">
       <defs>
        <path id="DejaVuSans-61" d="M 2194 1759 
Q 1497 1759 1228 1600 
Q 959 1441 959 1056 
Q 959 750 1161 570 
Q 1363 391 1709 391 
Q 2188 391 2477 730 
Q 2766 1069 2766 1631 
L 2766 1759 
L 2194 1759 
z
M 3341 1997 
L 3341 0 
L 2766 0 
L 2766 531 
Q 2569 213 2275 61 
Q 1981 -91 1556 -91 
Q 1019 -91 701 211 
Q 384 513 384 1019 
Q 384 1609 779 1909 
Q 1175 2209 1959 2209 
L 2766 2209 
L 2766 2266 
Q 2766 2663 2505 2880 
Q 2244 3097 1772 3097 
Q 1472 3097 1187 3025 
Q 903 2953 641 2809 
L 641 3341 
Q 956 3463 1253 3523 
Q 1550 3584 1831 3584 
Q 2591 3584 2966 3190 
Q 3341 2797 3341 1997 
z
" transform="scale(0.015625)"/>
        <path id="DejaVuSans-6e" d="M 3513 2113 
L 3513 0 
L 2938 0 
L 2938 2094 
Q 2938 2591 2744 2837 
Q 2550 3084 2163 3084 
Q 1697 3084 1428 2787 
Q 1159 2491 1159 1978 
L 1159 0 
L 581 0 
L 581 3500 
L 1159 3500 
L 1159 2956 
Q 1366 3272 1645 3428 
Q 1925 3584 2291 3584 
Q 2894 3584 3203 3211 
Q 3513 2838 3513 2113 
z
" transform="scale(0.015625)"/>
        <path id="DejaVuSans-62" d="M 3116 1747 
Q 3116 2381 2855 2742 
Q 2594 3103 2138 3103 
Q 1681 3103 1420 2742 
Q 1159 2381 1159 1747 
Q 1159 1113 1420 752 
Q 1681 391 2138 391 
Q 2594 391 2855 752 
Q 3116 1113 3116 1747 
z
M 1159 2969 
Q 1341 3281 1617 3432 
Q 1894 3584 2278 3584 
Q 2916 3584 3314 3078 
Q 3713 2572 3713 1747 
Q 3713 922 3314 415 
Q 2916 -91 2278 -91 
Q 1894 -91 1617 61 
Q 1341 213 1159 525 
L 1159 0 
L 581 0 
L 581 4863 
L 1159 4863 
L 1159 2969 
z
" transform="scale(0.015625)"/>
        <path id="DejaVuSans-69" d="M 603 3500 
L 1178 3500 
L 1178 0 
L 603 0 
L 603 3500 
z
M 603 4863 
L 1178 4863 
L 1178 4134 
L 603 4134 
L 603 4863 
z
" transform="scale(0.015625)"/>
        <path id="DejaVuSans-73" d="M 2834 3397 
L 2834 2853 
Q 2591 2978 2328 3040 
Q 2066 3103 1784 3103 
Q 1356 3103 1142 2972 
Q 928 2841 928 2578 
Q 928 2378 1081 2264 
Q 1234 2150 1697 2047 
L 1894 2003 
Q 2506 1872 2764 1633 
Q 3022 1394 3022 966 
Q 3022 478 2636 193 
Q 2250 -91 1575 -91 
Q 1294 -91 989 -36 
Q 684 19 347 128 
L 347 722 
Q 666 556 975 473 
Q 1284 391 1588 391 
Q 1994 391 2212 530 
Q 2431 669 2431 922 
Q 2431 1156 2273 1281 
Q 2116 1406 1581 1522 
L 1381 1569 
Q 847 1681 609 1914 
Q 372 2147 372 2553 
Q 372 3047 722 3315 
Q 1072 3584 1716 3584 
Q 2034 3584 2315 3537 
Q 2597 3491 2834 3397 
z
" transform="scale(0.015625)"/>
       </defs>
       <use xlink:href="#DejaVuSans-43"/>
       <use xlink:href="#DejaVuSans-61" x="69.824219"/>
       <use xlink:href="#DejaVuSans-6e" x="131.103516"/>
       <use xlink:href="#DejaVuSans-6e" x="194.482422"/>
       <use xlink:href="#DejaVuSans-61" x="257.861328"/>
       <use xlink:href="#DejaVuSans-62" x="319.140625"/>
       <use xlink:href="#DejaVuSans-69" x="382.617188"/>
       <use xlink:href="#DejaVuSans-73" x="410.400391"/>
      </g>
     </g>
    </g>
   </g>
   <g id="matplotlib.axis_2">
    <g id="ytick_1">
     <g id="line2d_3">
      <defs>
       <path id="m88153cb114" d="M 0 0 
L -3.5 0 
" style="stroke: #000000; stroke-width: 0.8"/>
      </defs>
      <g>
       <use xlink:href="#m88153cb114" x="67.5125" y="244.543636" style="stroke: #000000; stroke-width: 0.8"/>
      </g>
     </g>
     <g id="text_3">
      <!-- 0.000 -->
      <g transform="translate(31.884375 248.342855) scale(0.1 -0.1)">
       <defs>
        <path id="DejaVuSans-30" d="M 2034 4250 
Q 1547 4250 1301 3770 
Q 1056 3291 1056 2328 
Q 1056 1369 1301 889 
Q 1547 409 2034 409 
Q 2525 409 2770 889 
Q 3016 1369 3016 2328 
Q 3016 3291 2770 3770 
Q 2525 4250 2034 4250 
z
M 2034 4750 
Q 2819 4750 3233 4129 
Q 3647 3509 3647 2328 
Q 3647 1150 3233 529 
Q 2819 -91 2034 -91 
Q 1250 -91 836 529 
Q 422 1150 422 2328 
Q 422 3509 836 4129 
Q 1250 4750 2034 4750 
z
" transform="scale(0.015625)"/>
        <path id="DejaVuSans-2e" d="M 684 794 
L 1344 794 
L 1344 0 
L 684 0 
L 684 794 
z
" transform="scale(0.015625)"/>
       </defs>
       <use xlink:href="#DejaVuSans-30"/>
       <use xlink:href="#DejaVuSans-2e" x="63.623047"/>
       <use xlink:href="#DejaVuSans-30" x="95.410156"/>
       <use xlink:href="#DejaVuSans-30" x="159.033203"/>
       <use xlink:href="#DejaVuSans-30" x="222.65625"/>
      </g>
     </g>
    </g>
    <g id="ytick_2">
     <g id="line2d_4">
      <g>
       <use xlink:href="#m88153cb114" x="67.5125" y="220.509341" style="stroke: #000000; stroke-width: 0.8"/>
      </g>
     </g>
     <g id="text_4">
      <!-- 0.025 -->
      <g transform="translate(31.884375 224.30856) scale(0.1 -0.1)">
       <defs>
        <path id="DejaVuSans-32" d="M 1228 531 
L 3431 531 
L 3431 0 
L 469 0 
L 469 531 
Q 828 903 1448 1529 
Q 2069 2156 2228 2338 
Q 2531 2678 2651 2914 
Q 2772 3150 2772 3378 
Q 2772 3750 2511 3984 
Q 2250 4219 1831 4219 
Q 1534 4219 1204 4116 
Q 875 4013 500 3803 
L 500 4441 
Q 881 4594 1212 4672 
Q 1544 4750 1819 4750 
Q 2544 4750 2975 4387 
Q 3406 4025 3406 3419 
Q 3406 3131 3298 2873 
Q 3191 2616 2906 2266 
Q 2828 2175 2409 1742 
Q 1991 1309 1228 531 
z
" transform="scale(0.015625)"/>
        <path id="DejaVuSans-35" d="M 691 4666 
L 3169 4666 
L 3169 4134 
L 1269 4134 
L 1269 2991 
Q 1406 3038 1543 3061 
Q 1681 3084 1819 3084 
Q 2600 3084 3056 2656 
Q 3513 2228 3513 1497 
Q 3513 744 3044 326 
Q 2575 -91 1722 -91 
Q 1428 -91 1123 -41 
Q 819 9 494 109 
L 494 744 
Q 775 591 1075 516 
Q 1375 441 1709 441 
Q 2250 441 2565 725 
Q 2881 1009 2881 1497 
Q 2881 1984 2565 2268 
Q 2250 2553 1709 2553 
Q 1456 2553 1204 2497 
Q 953 2441 691 2322 
L 691 4666 
z
" transform="scale(0.015625)"/>
       </defs>
       <use xlink:href="#DejaVuSans-30"/>
       <use xlink:href="#DejaVuSans-2e" x="63.623047"/>
       <use xlink:href="#DejaVuSans-30" x="95.410156"/>
       <use xlink:href="#DejaVuSans-32" x="159.033203"/>
       <use xlink:href="#DejaVuSans-35" x="222.65625"/>
      </g>
     </g>
    </g>
    <g id="ytick_3">
     <g id="line2d_5">
      <g>
       <use xlink:href="#m88153cb114" x="67.5125" y="196.475046" style="stroke: #000000; stroke-width: 0.8"/>
      </g>
     </g>
     <g id="text_5">
      <!-- 0.050 -->
      <g transform="translate(31.884375 200.274265) scale(0.1 -0.1)">
       <use xlink:href="#DejaVuSans-30"/>
       <use xlink:href="#DejaVuSans-2e" x="63.623047"/>
       <use xlink:href="#DejaVuSans-30" x="95.410156"/>
       <use xlink:href="#DejaVuSans-35" x="159.033203"/>
       <use xlink:href="#DejaVuSans-30" x="222.65625"/>
      </g>
     </g>
    </g>
    <g id="ytick_4">
     <g id="line2d_6">
      <g>
       <use xlink:href="#m88153cb114" x="67.5125" y="172.440751" style="stroke: #000000; stroke-width: 0.8"/>
      </g>
     </g>
     <g id="text_6">
      <!-- 0.075 -->
      <g transform="translate(31.884375 176.23997) scale(0.1 -0.1)">
       <defs>
        <path id="DejaVuSans-37" d="M 525 4666 
L 3525 4666 
L 3525 4397 
L 1831 0 
L 1172 0 
L 2766 4134 
L 525 4134 
L 525 4666 
z
" transform="scale(0.015625)"/>
       </defs>
       <use xlink:href="#DejaVuSans-30"/>
       <use xlink:href="#DejaVuSans-2e" x="63.623047"/>
       <use xlink:href="#DejaVuSans-30" x="95.410156"/>
       <use xlink:href="#DejaVuSans-37" x="159.033203"/>
       <use xlink:href="#DejaVuSans-35" x="222.65625"/>
      </g>
     </g>
    </g>
    <g id="ytick_5">
     <g id="line2d_7">
      <g>
       <use xlink:href="#m88153cb114" x="67.5125" y="148.406456" style="stroke: #000000; stroke-width: 0.8"/>
      </g>
     </g>
     <g id="text_7">
      <!-- 0.100 -->
      <g transform="translate(31.884375 152.205675) scale(0.1 -0.1)">
       <defs>
        <path id="DejaVuSans-31" d="M 794 531 
L 1825 531 
L 1825 4091 
L 703 3866 
L 703 4441 
L 1819 4666 
L 2450 4666 
L 2450 531 
L 3481 531 
L 3481 0 
L 794 0 
L 794 531 
z
" transform="scale(0.015625)"/>
       </defs>
       <use xlink:href="#DejaVuSans-30"/>
       <use xlink:href="#DejaVuSans-2e" x="63.623047"/>
       <use xlink:href="#DejaVuSans-31" x="95.410156"/>
       <use xlink:href="#DejaVuSans-30" x="159.033203"/>
       <use xlink:href="#DejaVuSans-30" x="222.65625"/>
      </g>
     </g>
    </g>
    <g id="ytick_6">
     <g id="line2d_8">
      <g>
       <use xlink:href="#m88153cb114" x="67.5125" y="124.372161" style="stroke: #000000; stroke-width: 0.8"/>
      </g>
     </g>
     <g id="text_8">
      <!-- 0.125 -->
      <g transform="translate(31.884375 128.17138) scale(0.1 -0.1)">
       <use xlink:href="#DejaVuSans-30"/>
       <use xlink:href="#DejaVuSans-2e" x="63.623047"/>
       <use xlink:href="#DejaVuSans-31" x="95.410156"/>
       <use xlink:href="#DejaVuSans-32" x="159.033203"/>
       <use xlink:href="#DejaVuSans-35" x="222.65625"/>
      </g>
     </g>
    </g>
    <g id="ytick_7">
     <g id="line2d_9">
      <g>
       <use xlink:href="#m88153cb114" x="67.5125" y="100.337866" style="stroke: #000000; stroke-width: 0.8"/>
      </g>
     </g>
     <g id="text_9">
      <!-- 0.150 -->
      <g transform="translate(31.884375 104.137085) scale(0.1 -0.1)">
       <use xlink:href="#DejaVuSans-30"/>
       <use xlink:href="#DejaVuSans-2e" x="63.623047"/>
       <use xlink:href="#DejaVuSans-31" x="95.410156"/>
       <use xlink:href="#DejaVuSans-35" x="159.033203"/>
       <use xlink:href="#DejaVuSans-30" x="222.65625"/>
      </g>
     </g>
    </g>
    <g id="ytick_8">
     <g id="line2d_10">
      <g>
       <use xlink:href="#m88153cb114" x="67.5125" y="76.303571" style="stroke: #000000; stroke-width: 0.8"/>
      </g>
     </g>
     <g id="text_10">
      <!-- 0.175 -->
      <g transform="translate(31.884375 80.10279) scale(0.1 -0.1)">
       <use xlink:href="#DejaVuSans-30"/>
       <use xlink:href="#DejaVuSans-2e" x="63.623047"/>
       <use xlink:href="#DejaVuSans-31" x="95.410156"/>
       <use xlink:href="#DejaVuSans-37" x="159.033203"/>
       <use xlink:href="#DejaVuSans-35" x="222.65625"/>
      </g>
     </g>
    </g>
    <g id="text_11">
     <!-- Efficiency Value -->
     <g transform="translate(25.804688 200.26125) rotate(-90) scale(0.1 -0.1)">
      <defs>
       <path id="DejaVuSans-45" d="M 628 4666 
L 3578 4666 
L 3578 4134 
L 1259 4134 
L 1259 2753 
L 3481 2753 
L 3481 2222 
L 1259 2222 
L 1259 531 
L 3634 531 
L 3634 0 
L 628 0 
L 628 4666 
z
" transform="scale(0.015625)"/>
       <path id="DejaVuSans-66" d="M 2375 4863 
L 2375 4384 
L 1825 4384 
Q 1516 4384 1395 4259 
Q 1275 4134 1275 3809 
L 1275 3500 
L 2222 3500 
L 2222 3053 
L 1275 3053 
L 1275 0 
L 697 0 
L 697 3053 
L 147 3053 
L 147 3500 
L 697 3500 
L 697 3744 
Q 697 4328 969 4595 
Q 1241 4863 1831 4863 
L 2375 4863 
z
" transform="scale(0.015625)"/>
       <path id="DejaVuSans-63" d="M 3122 3366 
L 3122 2828 
Q 2878 2963 2633 3030 
Q 2388 3097 2138 3097 
Q 1578 3097 1268 2742 
Q 959 2388 959 1747 
Q 959 1106 1268 751 
Q 1578 397 2138 397 
Q 2388 397 2633 464 
Q 2878 531 3122 666 
L 3122 134 
Q 2881 22 2623 -34 
Q 2366 -91 2075 -91 
Q 1284 -91 818 406 
Q 353 903 353 1747 
Q 353 2603 823 3093 
Q 1294 3584 2113 3584 
Q 2378 3584 2631 3529 
Q 2884 3475 3122 3366 
z
" transform="scale(0.015625)"/>
       <path id="DejaVuSans-65" d="M 3597 1894 
L 3597 1613 
L 953 1613 
Q 991 1019 1311 708 
Q 1631 397 2203 397 
Q 2534 397 2845 478 
Q 3156 559 3463 722 
L 3463 178 
Q 3153 47 2828 -22 
Q 2503 -91 2169 -91 
Q 1331 -91 842 396 
Q 353 884 353 1716 
Q 353 2575 817 3079 
Q 1281 3584 2069 3584 
Q 2775 3584 3186 3129 
Q 3597 2675 3597 1894 
z
M 3022 2063 
Q 3016 2534 2758 2815 
Q 2500 3097 2075 3097 
Q 1594 3097 1305 2825 
Q 1016 2553 972 2059 
L 3022 2063 
z
" transform="scale(0.015625)"/>
       <path id="DejaVuSans-79" d="M 2059 -325 
Q 1816 -950 1584 -1140 
Q 1353 -1331 966 -1331 
L 506 -1331 
L 506 -850 
L 844 -850 
Q 1081 -850 1212 -737 
Q 1344 -625 1503 -206 
L 1606 56 
L 191 3500 
L 800 3500 
L 1894 763 
L 2988 3500 
L 3597 3500 
L 2059 -325 
z
" transform="scale(0.015625)"/>
       <path id="DejaVuSans-20" transform="scale(0.015625)"/>
       <path id="DejaVuSans-56" d="M 1831 0 
L 50 4666 
L 709 4666 
L 2188 738 
L 3669 4666 
L 4325 4666 
L 2547 0 
L 1831 0 
z
" transform="scale(0.015625)"/>
       <path id="DejaVuSans-6c" d="M 603 4863 
L 1178 4863 
L 1178 0 
L 603 0 
L 603 4863 
z
" transform="scale(0.015625)"/>
       <path id="DejaVuSans-75" d="M 544 1381 
L 544 3500 
L 1119 3500 
L 1119 1403 
Q 1119 906 1312 657 
Q 1506 409 1894 409 
Q 2359 409 2629 706 
Q 2900 1003 2900 1516 
L 2900 3500 
L 3475 3500 
L 3475 0 
L 2900 0 
L 2900 538 
Q 2691 219 2414 64 
Q 2138 -91 1772 -91 
Q 1169 -91 856 284 
Q 544 659 544 1381 
z
M 1991 3584 
L 1991 3584 
z
" transform="scale(0.015625)"/>
      </defs>
      <use xlink:href="#DejaVuSans-45"/>
      <use xlink:href="#DejaVuSans-66" x="63.183594"/>
      <use xlink:href="#DejaVuSans-66" x="98.388672"/>
      <use xlink:href="#DejaVuSans-69" x="133.59375"/>
      <use xlink:href="#DejaVuSans-63" x="161.376953"/>
      <use xlink:href="#DejaVuSans-69" x="216.357422"/>
      <use xlink:href="#DejaVuSans-65" x="244.140625"/>
      <use xlink:href="#DejaVuSans-6e" x="305.664062"/>
      <use xlink:href="#DejaVuSans-63" x="369.042969"/>
      <use xlink:href="#DejaVuSans-79" x="424.023438"/>
      <use xlink:href="#DejaVuSans-20" x="483.203125"/>
      <use xlink:href="#DejaVuSans-56" x="514.990234"/>
      <use xlink:href="#DejaVuSans-61" x="575.648438"/>
      <use xlink:href="#DejaVuSans-6c" x="636.927734"/>
      <use xlink:href="#DejaVuSans-75" x="664.710938"/>
      <use xlink:href="#DejaVuSans-65" x="728.089844"/>
     </g>
    </g>
   </g>
   <g id="line2d_11">
    <path d="M 98.554727 137.734163 
L 159.047773 137.734163 
" clip-path="url(#pdff4fc320f)" style="fill: none; stroke-dasharray: 3.375,3.375; stroke-dashoffset: 0; stroke: #3f3f3f; stroke-width: 1.5"/>
   </g>
   <g id="line2d_12">
    <path d="M 83.27628 121.560278 
L 174.32622 121.560278 
" clip-path="url(#pdff4fc320f)" style="fill: none; stroke-dasharray: 6.75,6.75; stroke-dashoffset: 0; stroke: #3f3f3f; stroke-width: 1.5"/>
   </g>
   <g id="line2d_13">
    <path d="M 83.009437 110.724863 
L 174.593063 110.724863 
" clip-path="url(#pdff4fc320f)" style="fill: none; stroke-dasharray: 3.375,3.375; stroke-dashoffset: 0; stroke: #3f3f3f; stroke-width: 1.5"/>
   </g>
   <g id="line2d_14">
    <path d="M 212.515569 138.099464 
L 290.241931 138.099464 
" clip-path="url(#pdff4fc320f)" style="fill: none; stroke-dasharray: 3.375,3.375; stroke-dashoffset: 0; stroke: #3f3f3f; stroke-width: 1.5"/>
   </g>
   <g id="line2d_15">
    <path d="M 204.610803 126.221054 
L 298.146697 126.221054 
" clip-path="url(#pdff4fc320f)" style="fill: none; stroke-dasharray: 6.75,6.75; stroke-dashoffset: 0; stroke: #3f3f3f; stroke-width: 1.5"/>
   </g>
   <g id="line2d_16">
    <path d="M 204.908832 115.452825 
L 297.848668 115.452825 
" clip-path="url(#pdff4fc320f)" style="fill: none; stroke-dasharray: 3.375,3.375; stroke-dashoffset: 0; stroke: #3f3f3f; stroke-width: 1.5"/>
   </g>
   <g id="patch_3">
    <path d="M 67.5125 252.92 
L 312.6675 252.92 
" style="fill: none; stroke: #000000; stroke-width: 0.8; stroke-linejoin: miter; stroke-linecap: square"/>
   </g>
   <g id="text_12">
    <!-- Global Efficiency -->
    <g transform="translate(140.05 62.64) scale(0.12 -0.12)">
     <defs>
      <path id="DejaVuSans-47" d="M 3809 666 
L 3809 1919 
L 2778 1919 
L 2778 2438 
L 4434 2438 
L 4434 434 
Q 4069 175 3628 42 
Q 3188 -91 2688 -91 
Q 1594 -91 976 548 
Q 359 1188 359 2328 
Q 359 3472 976 4111 
Q 1594 4750 2688 4750 
Q 3144 4750 3555 4637 
Q 3966 4525 4313 4306 
L 4313 3634 
Q 3963 3931 3569 4081 
Q 3175 4231 2741 4231 
Q 1884 4231 1454 3753 
Q 1025 3275 1025 2328 
Q 1025 1384 1454 906 
Q 1884 428 2741 428 
Q 3075 428 3337 486 
Q 3600 544 3809 666 
z
" transform="scale(0.015625)"/>
      <path id="DejaVuSans-6f" d="M 1959 3097 
Q 1497 3097 1228 2736 
Q 959 2375 959 1747 
Q 959 1119 1226 758 
Q 1494 397 1959 397 
Q 2419 397 2687 759 
Q 2956 1122 2956 1747 
Q 2956 2369 2687 2733 
Q 2419 3097 1959 3097 
z
M 1959 3584 
Q 2709 3584 3137 3096 
Q 3566 2609 3566 1747 
Q 3566 888 3137 398 
Q 2709 -91 1959 -91 
Q 1206 -91 779 398 
Q 353 888 353 1747 
Q 353 2609 779 3096 
Q 1206 3584 1959 3584 
z
" transform="scale(0.015625)"/>
     </defs>
     <use xlink:href="#DejaVuSans-47"/>
     <use xlink:href="#DejaVuSans-6c" x="77.490234"/>
     <use xlink:href="#DejaVuSans-6f" x="105.273438"/>
     <use xlink:href="#DejaVuSans-62" x="166.455078"/>
     <use xlink:href="#DejaVuSans-61" x="229.931641"/>
     <use xlink:href="#DejaVuSans-6c" x="291.210938"/>
     <use xlink:href="#DejaVuSans-20" x="318.994141"/>
     <use xlink:href="#DejaVuSans-45" x="350.78125"/>
     <use xlink:href="#DejaVuSans-66" x="413.964844"/>
     <use xlink:href="#DejaVuSans-66" x="449.169922"/>
     <use xlink:href="#DejaVuSans-69" x="484.375"/>
     <use xlink:href="#DejaVuSans-63" x="512.158203"/>
     <use xlink:href="#DejaVuSans-69" x="567.138672"/>
     <use xlink:href="#DejaVuSans-65" x="594.921875"/>
     <use xlink:href="#DejaVuSans-6e" x="656.445312"/>
     <use xlink:href="#DejaVuSans-63" x="719.824219"/>
     <use xlink:href="#DejaVuSans-79" x="774.804688"/>
    </g>
   </g>
  </g>
  <g id="axes_2">
   <g id="patch_4">
    <path d="M 326.9675 252.92 
L 572.1225 252.92 
L 572.1225 68.64 
L 326.9675 68.64 
z
" style="fill: #ffffff"/>
   </g>
   <g id="PolyCollection_3">
    <defs>
     <path id="m3bcb840d68" d="M 392.618342 -32.254489 
L 383.894158 -32.254489 
L 382.90588 -33.496203 
L 381.793786 -34.737917 
L 380.567889 -35.979631 
L 379.244092 -37.221345 
L 377.843251 -38.463059 
L 376.389426 -39.704773 
L 374.907444 -40.946487 
L 373.42004 -42.188202 
L 371.944963 -43.429916 
L 370.492548 -44.67163 
L 369.064212 -45.913344 
L 367.652274 -47.155058 
L 366.241268 -48.396772 
L 364.810685 -49.638486 
L 363.338789 -50.8802 
L 361.806919 -52.121914 
L 360.203568 -53.363629 
L 358.527519 -54.605343 
L 356.789479 -55.847057 
L 355.011931 -57.088771 
L 353.227246 -58.330485 
L 351.474426 -59.572199 
L 349.795075 -60.813913 
L 348.229286 -62.055627 
L 346.812079 -63.297341 
L 345.570822 -64.539056 
L 344.523835 -65.78077 
L 343.680092 -67.022484 
L 343.039785 -68.264198 
L 342.595408 -69.505912 
L 342.333068 -70.747626 
L 342.233814 -71.98934 
L 342.274911 -73.231054 
L 342.4311 -74.472768 
L 342.675899 -75.714482 
L 342.983026 -76.956197 
L 343.327901 -78.197911 
L 343.689153 -79.439625 
L 344.049958 -80.681339 
L 344.399046 -81.923053 
L 344.73123 -83.164767 
L 345.047399 -84.406481 
L 345.354003 -85.648195 
L 345.662121 -86.889909 
L 345.986249 -88.131624 
L 346.342953 -89.373338 
L 346.749504 -90.615052 
L 347.222555 -91.856766 
L 347.776928 -93.09848 
L 348.424525 -94.340194 
L 349.173402 -95.581908 
L 350.027044 -96.823622 
L 350.983898 -98.065336 
L 352.037216 -99.307051 
L 353.175227 -100.548765 
L 354.381666 -101.790479 
L 355.636624 -103.032193 
L 356.917672 -104.273907 
L 358.201217 -105.515621 
L 359.463984 -106.757335 
L 360.68458 -107.999049 
L 361.845 -109.240763 
L 362.931983 -110.482478 
L 363.938078 -111.724192 
L 364.862272 -112.965906 
L 365.710072 -114.20762 
L 366.492972 -115.449334 
L 367.22729 -116.691048 
L 367.932478 -117.932762 
L 368.629057 -119.174476 
L 369.336419 -120.41619 
L 370.070757 -121.657905 
L 370.843386 -122.899619 
L 371.659639 -124.141333 
L 372.518489 -125.383047 
L 373.412887 -126.624761 
L 374.330773 -127.866475 
L 375.256577 -129.108189 
L 376.17303 -130.349903 
L 377.063038 -131.591617 
L 377.911418 -132.833332 
L 378.706312 -134.075046 
L 379.440137 -135.31676 
L 380.109998 -136.558474 
L 380.71755 -137.800188 
L 381.268335 -139.041902 
L 381.770734 -140.283616 
L 382.234648 -141.52533 
L 382.670137 -142.767044 
L 383.086191 -144.008759 
L 383.4898 -145.250473 
L 383.885436 -146.492187 
L 384.274966 -147.733901 
L 384.657955 -148.975615 
L 385.032236 -150.217329 
L 385.394594 -151.459043 
L 385.74144 -152.700757 
L 386.06935 -153.942471 
L 386.375428 -155.184186 
L 390.137072 -155.184186 
L 390.137072 -155.184186 
L 390.44315 -153.942471 
L 390.77106 -152.700757 
L 391.117906 -151.459043 
L 391.480264 -150.217329 
L 391.854545 -148.975615 
L 392.237534 -147.733901 
L 392.627064 -146.492187 
L 393.0227 -145.250473 
L 393.426309 -144.008759 
L 393.842363 -142.767044 
L 394.277852 -141.52533 
L 394.741766 -140.283616 
L 395.244165 -139.041902 
L 395.79495 -137.800188 
L 396.402502 -136.558474 
L 397.072363 -135.31676 
L 397.806188 -134.075046 
L 398.601082 -132.833332 
L 399.449462 -131.591617 
L 400.33947 -130.349903 
L 401.255923 -129.108189 
L 402.181727 -127.866475 
L 403.099613 -126.624761 
L 403.994011 -125.383047 
L 404.852861 -124.141333 
L 405.669114 -122.899619 
L 406.441743 -121.657905 
L 407.176081 -120.41619 
L 407.883443 -119.174476 
L 408.580022 -117.932762 
L 409.28521 -116.691048 
L 410.019528 -115.449334 
L 410.802428 -114.20762 
L 411.650228 -112.965906 
L 412.574422 -111.724192 
L 413.580517 -110.482478 
L 414.6675 -109.240763 
L 415.82792 -107.999049 
L 417.048516 -106.757335 
L 418.311283 -105.515621 
L 419.594828 -104.273907 
L 420.875876 -103.032193 
L 422.130834 -101.790479 
L 423.337273 -100.548765 
L 424.475284 -99.307051 
L 425.528602 -98.065336 
L 426.485456 -96.823622 
L 427.339098 -95.581908 
L 428.087975 -94.340194 
L 428.735572 -93.09848 
L 429.289945 -91.856766 
L 429.762996 -90.615052 
L 430.169547 -89.373338 
L 430.526251 -88.131624 
L 430.850379 -86.889909 
L 431.158497 -85.648195 
L 431.465101 -84.406481 
L 431.78127 -83.164767 
L 432.113454 -81.923053 
L 432.462542 -80.681339 
L 432.823347 -79.439625 
L 433.184599 -78.197911 
L 433.529474 -76.956197 
L 433.836601 -75.714482 
L 434.0814 -74.472768 
L 434.237589 -73.231054 
L 434.278686 -71.98934 
L 434.179432 -70.747626 
L 433.917092 -69.505912 
L 433.472715 -68.264198 
L 432.832408 -67.022484 
L 431.988665 -65.78077 
L 430.941678 -64.539056 
L 429.700421 -63.297341 
L 428.283214 -62.055627 
L 426.717425 -60.813913 
L 425.038074 -59.572199 
L 423.285254 -58.330485 
L 421.500569 -57.088771 
L 419.723021 -55.847057 
L 417.984981 -54.605343 
L 416.308932 -53.363629 
L 414.705581 -52.121914 
L 413.173711 -50.8802 
L 411.701815 -49.638486 
L 410.271232 -48.396772 
L 408.860226 -47.155058 
L 407.448288 -45.913344 
L 406.019952 -44.67163 
L 404.567537 -43.429916 
L 403.09246 -42.188202 
L 401.605056 -40.946487 
L 400.123074 -39.704773 
L 398.669249 -38.463059 
L 397.268408 -37.221345 
L 395.944611 -35.979631 
L 394.718714 -34.737917 
L 393.60662 -33.496203 
L 392.618342 -32.254489 
z
" style="stroke: #3f3f3f; stroke-width: 1.5"/>
    </defs>
    <g clip-path="url(#pe0d435fb53)">
     <use xlink:href="#m3bcb840d68" x="0" y="276.798125" style="fill: #3274a1; stroke: #3f3f3f; stroke-width: 1.5"/>
    </g>
   </g>
   <g id="PolyCollection_4">
    <defs>
     <path id="m6e3f96055e" d="M 513.894902 -34.49769 
L 507.772598 -34.49769 
L 507.177585 -35.842369 
L 506.498596 -37.187049 
L 505.728213 -38.531729 
L 504.859655 -39.876408 
L 503.887265 -41.221088 
L 502.806926 -42.565768 
L 501.616377 -43.910447 
L 500.315378 -45.255127 
L 498.905772 -46.599807 
L 497.391487 -47.944486 
L 495.778555 -49.289166 
L 494.075221 -50.633846 
L 492.292167 -51.978526 
L 490.442824 -53.323205 
L 488.543683 -54.667885 
L 486.614461 -56.012565 
L 484.677931 -57.357244 
L 482.759286 -58.701924 
L 480.884928 -60.046604 
L 479.080709 -61.391283 
L 477.369768 -62.735963 
L 475.770229 -64.080643 
L 474.293132 -65.425323 
L 472.940991 -66.770002 
L 471.707356 -68.114682 
L 470.577615 -69.459362 
L 469.53115 -70.804041 
L 468.54467 -72.148721 
L 467.596367 -73.493401 
L 466.670325 -74.83808 
L 465.760469 -76.18276 
L 464.873342 -77.52744 
L 464.029109 -78.87212 
L 463.260432 -80.216799 
L 462.609173 -81.561479 
L 462.121299 -82.906159 
L 461.840685 -84.250838 
L 461.80275 -85.595518 
L 462.028977 -86.940198 
L 462.523224 -88.284877 
L 463.270473 -89.629557 
L 464.238261 -90.974237 
L 465.380562 -92.318916 
L 466.643498 -93.663596 
L 467.971943 -95.008276 
L 469.315983 -96.352956 
L 470.636256 -97.697635 
L 471.907426 -99.042315 
L 473.119411 -100.386995 
L 474.276348 -101.731674 
L 475.393653 -103.076354 
L 476.493769 -104.421034 
L 477.601345 -105.765713 
L 478.738592 -107.110393 
L 479.921438 -108.455073 
L 481.156945 -109.799753 
L 482.442202 -111.144432 
L 483.764716 -112.489112 
L 485.104096 -113.833792 
L 486.434739 -115.178471 
L 487.729072 -116.523151 
L 488.960934 -117.867831 
L 490.108652 -119.21251 
L 491.157463 -120.55719 
L 492.10101 -121.90187 
L 492.941762 -123.24655 
L 493.690367 -124.591229 
L 494.364046 -125.935909 
L 494.984293 -127.280589 
L 495.574183 -128.625268 
L 496.155671 -129.969948 
L 496.747214 -131.314628 
L 497.361988 -132.659307 
L 498.006876 -134.003987 
L 498.682271 -135.348667 
L 499.382643 -136.693346 
L 500.097702 -138.038026 
L 500.813964 -139.382706 
L 501.516506 -140.727386 
L 502.190681 -142.072065 
L 502.823659 -143.416745 
L 503.405632 -144.761425 
L 503.930626 -146.106104 
L 504.396859 -147.450784 
L 504.806664 -148.795464 
L 505.165995 -150.140143 
L 505.483603 -151.484823 
L 505.769981 -152.829503 
L 506.036212 -154.174183 
L 506.29284 -155.518862 
L 506.548901 -156.863542 
L 506.811211 -158.208222 
L 507.083952 -159.552901 
L 507.368585 -160.897581 
L 507.664057 -162.242261 
L 507.967225 -163.58694 
L 508.273439 -164.93162 
L 508.577172 -166.2763 
L 508.872642 -167.62098 
L 512.794858 -167.62098 
L 512.794858 -167.62098 
L 513.090328 -166.2763 
L 513.394061 -164.93162 
L 513.700275 -163.58694 
L 514.003443 -162.242261 
L 514.298915 -160.897581 
L 514.583548 -159.552901 
L 514.856289 -158.208222 
L 515.118599 -156.863542 
L 515.37466 -155.518862 
L 515.631288 -154.174183 
L 515.897519 -152.829503 
L 516.183897 -151.484823 
L 516.501505 -150.140143 
L 516.860836 -148.795464 
L 517.270641 -147.450784 
L 517.736874 -146.106104 
L 518.261868 -144.761425 
L 518.843841 -143.416745 
L 519.476819 -142.072065 
L 520.150994 -140.727386 
L 520.853536 -139.382706 
L 521.569798 -138.038026 
L 522.284857 -136.693346 
L 522.985229 -135.348667 
L 523.660624 -134.003987 
L 524.305512 -132.659307 
L 524.920286 -131.314628 
L 525.511829 -129.969948 
L 526.093317 -128.625268 
L 526.683207 -127.280589 
L 527.303454 -125.935909 
L 527.977133 -124.591229 
L 528.725738 -123.24655 
L 529.56649 -121.90187 
L 530.510037 -120.55719 
L 531.558848 -119.21251 
L 532.706566 -117.867831 
L 533.938428 -116.523151 
L 535.232761 -115.178471 
L 536.563404 -113.833792 
L 537.902784 -112.489112 
L 539.225298 -111.144432 
L 540.510555 -109.799753 
L 541.746062 -108.455073 
L 542.928908 -107.110393 
L 544.066155 -105.765713 
L 545.173731 -104.421034 
L 546.273847 -103.076354 
L 547.391152 -101.731674 
L 548.548089 -100.386995 
L 549.760074 -99.042315 
L 551.031244 -97.697635 
L 552.351517 -96.352956 
L 553.695557 -95.008276 
L 555.024002 -93.663596 
L 556.286938 -92.318916 
L 557.429239 -90.974237 
L 558.397027 -89.629557 
L 559.144276 -88.284877 
L 559.638523 -86.940198 
L 559.86475 -85.595518 
L 559.826815 -84.250838 
L 559.546201 -82.906159 
L 559.058327 -81.561479 
L 558.407068 -80.216799 
L 557.638391 -78.87212 
L 556.794158 -77.52744 
L 555.907031 -76.18276 
L 554.997175 -74.83808 
L 554.071133 -73.493401 
L 553.12283 -72.148721 
L 552.13635 -70.804041 
L 551.089885 -69.459362 
L 549.960144 -68.114682 
L 548.726509 -66.770002 
L 547.374368 -65.425323 
L 545.897271 -64.080643 
L 544.297732 -62.735963 
L 542.586791 -61.391283 
L 540.782572 -60.046604 
L 538.908214 -58.701924 
L 536.989569 -57.357244 
L 535.053039 -56.012565 
L 533.123817 -54.667885 
L 531.224676 -53.323205 
L 529.375333 -51.978526 
L 527.592279 -50.633846 
L 525.888945 -49.289166 
L 524.276013 -47.944486 
L 522.761728 -46.599807 
L 521.352122 -45.255127 
L 520.051123 -43.910447 
L 518.860574 -42.565768 
L 517.780235 -41.221088 
L 516.807845 -39.876408 
L 515.939287 -38.531729 
L 515.168904 -37.187049 
L 514.489915 -35.842369 
L 513.894902 -34.49769 
z
" style="stroke: #3f3f3f; stroke-width: 1.5"/>
    </defs>
    <g clip-path="url(#pe0d435fb53)">
     <use xlink:href="#m6e3f96055e" x="0" y="276.798125" style="fill: #e1812c; stroke: #3f3f3f; stroke-width: 1.5"/>
    </g>
   </g>
   <g id="matplotlib.axis_3">
    <g id="xtick_3">
     <g id="line2d_17">
      <g>
       <use xlink:href="#m338a05729b" x="388.25625" y="252.92" style="stroke: #000000; stroke-width: 0.8"/>
      </g>
     </g>
     <g id="text_13">
      <!-- HC -->
      <g transform="translate(381.004688 267.518437) scale(0.1 -0.1)">
       <use xlink:href="#DejaVuSans-48"/>
       <use xlink:href="#DejaVuSans-43" x="75.195312"/>
      </g>
     </g>
    </g>
    <g id="xtick_4">
     <g id="line2d_18">
      <g>
       <use xlink:href="#m338a05729b" x="510.83375" y="252.92" style="stroke: #000000; stroke-width: 0.8"/>
      </g>
     </g>
     <g id="text_14">
      <!-- Cannabis -->
      <g transform="translate(487.70875 267.518437) scale(0.1 -0.1)">
       <use xlink:href="#DejaVuSans-43"/>
       <use xlink:href="#DejaVuSans-61" x="69.824219"/>
       <use xlink:href="#DejaVuSans-6e" x="131.103516"/>
       <use xlink:href="#DejaVuSans-6e" x="194.482422"/>
       <use xlink:href="#DejaVuSans-61" x="257.861328"/>
       <use xlink:href="#DejaVuSans-62" x="319.140625"/>
       <use xlink:href="#DejaVuSans-69" x="382.617188"/>
       <use xlink:href="#DejaVuSans-73" x="410.400391"/>
      </g>
     </g>
    </g>
   </g>
   <g id="matplotlib.axis_4">
    <g id="ytick_9">
     <g id="line2d_19">
      <g>
       <use xlink:href="#m88153cb114" x="326.9675" y="244.543636" style="stroke: #000000; stroke-width: 0.8"/>
      </g>
     </g>
    </g>
    <g id="ytick_10">
     <g id="line2d_20">
      <g>
       <use xlink:href="#m88153cb114" x="326.9675" y="220.509341" style="stroke: #000000; stroke-width: 0.8"/>
      </g>
     </g>
    </g>
    <g id="ytick_11">
     <g id="line2d_21">
      <g>
       <use xlink:href="#m88153cb114" x="326.9675" y="196.475046" style="stroke: #000000; stroke-width: 0.8"/>
      </g>
     </g>
    </g>
    <g id="ytick_12">
     <g id="line2d_22">
      <g>
       <use xlink:href="#m88153cb114" x="326.9675" y="172.440751" style="stroke: #000000; stroke-width: 0.8"/>
      </g>
     </g>
    </g>
    <g id="ytick_13">
     <g id="line2d_23">
      <g>
       <use xlink:href="#m88153cb114" x="326.9675" y="148.406456" style="stroke: #000000; stroke-width: 0.8"/>
      </g>
     </g>
    </g>
    <g id="ytick_14">
     <g id="line2d_24">
      <g>
       <use xlink:href="#m88153cb114" x="326.9675" y="124.372161" style="stroke: #000000; stroke-width: 0.8"/>
      </g>
     </g>
    </g>
    <g id="ytick_15">
     <g id="line2d_25">
      <g>
       <use xlink:href="#m88153cb114" x="326.9675" y="100.337866" style="stroke: #000000; stroke-width: 0.8"/>
      </g>
     </g>
    </g>
    <g id="ytick_16">
     <g id="line2d_26">
      <g>
       <use xlink:href="#m88153cb114" x="326.9675" y="76.303571" style="stroke: #000000; stroke-width: 0.8"/>
      </g>
     </g>
    </g>
   </g>
   <g id="line2d_27">
    <path d="M 344.961159 211.134926 
L 431.551341 211.134926 
" clip-path="url(#pe0d435fb53)" style="fill: none; stroke-dasharray: 3.375,3.375; stroke-dashoffset: 0; stroke: #3f3f3f; stroke-width: 1.5"/>
   </g>
   <g id="line2d_28">
    <path d="M 344.837618 194.262365 
L 431.674882 194.262365 
" clip-path="url(#pe0d435fb53)" style="fill: none; stroke-dasharray: 6.75,6.75; stroke-dashoffset: 0; stroke: #3f3f3f; stroke-width: 1.5"/>
   </g>
   <g id="line2d_29">
    <path d="M 354.720412 175.044466 
L 421.792088 175.044466 
" clip-path="url(#pe0d435fb53)" style="fill: none; stroke-dasharray: 3.375,3.375; stroke-dashoffset: 0; stroke: #3f3f3f; stroke-width: 1.5"/>
   </g>
   <g id="line2d_30">
    <path d="M 468.96756 205.207507 
L 552.69994 205.207507 
" clip-path="url(#pe0d435fb53)" style="fill: none; stroke-dasharray: 3.375,3.375; stroke-dashoffset: 0; stroke: #3f3f3f; stroke-width: 1.5"/>
   </g>
   <g id="line2d_31">
    <path d="M 463.006329 189.033487 
L 558.661171 189.033487 
" clip-path="url(#pe0d435fb53)" style="fill: none; stroke-dasharray: 6.75,6.75; stroke-dashoffset: 0; stroke: #3f3f3f; stroke-width: 1.5"/>
   </g>
   <g id="line2d_32">
    <path d="M 479.059544 170.276711 
L 542.607956 170.276711 
" clip-path="url(#pe0d435fb53)" style="fill: none; stroke-dasharray: 3.375,3.375; stroke-dashoffset: 0; stroke: #3f3f3f; stroke-width: 1.5"/>
   </g>
   <g id="patch_5">
    <path d="M 326.9675 252.92 
L 572.1225 252.92 
" style="fill: none; stroke: #000000; stroke-width: 0.8; stroke-linejoin: miter; stroke-linecap: square"/>
   </g>
   <g id="text_15">
    <!-- Local Efficiency -->
    <g transform="translate(403.092813 62.64) scale(0.12 -0.12)">
     <defs>
      <path id="DejaVuSans-4c" d="M 628 4666 
L 1259 4666 
L 1259 531 
L 3531 531 
L 3531 0 
L 628 0 
L 628 4666 
z
" transform="scale(0.015625)"/>
     </defs>
     <use xlink:href="#DejaVuSans-4c"/>
     <use xlink:href="#DejaVuSans-6f" x="53.962891"/>
     <use xlink:href="#DejaVuSans-63" x="115.144531"/>
     <use xlink:href="#DejaVuSans-61" x="170.125"/>
     <use xlink:href="#DejaVuSans-6c" x="231.404297"/>
     <use xlink:href="#DejaVuSans-20" x="259.1875"/>
     <use xlink:href="#DejaVuSans-45" x="290.974609"/>
     <use xlink:href="#DejaVuSans-66" x="354.158203"/>
     <use xlink:href="#DejaVuSans-66" x="389.363281"/>
     <use xlink:href="#DejaVuSans-69" x="424.568359"/>
     <use xlink:href="#DejaVuSans-63" x="452.351562"/>
     <use xlink:href="#DejaVuSans-69" x="507.332031"/>
     <use xlink:href="#DejaVuSans-65" x="535.115234"/>
     <use xlink:href="#DejaVuSans-6e" x="596.638672"/>
     <use xlink:href="#DejaVuSans-63" x="660.017578"/>
     <use xlink:href="#DejaVuSans-79" x="714.998047"/>
    </g>
   </g>
  </g>
  <g id="text_16">
   <!-- Model: OVR_L2_logistic, Group: Alcohol -  Efficiency Comparison -->
   <g transform="translate(7.2 19.3575) scale(0.16 -0.16)">
    <defs>
     <path id="DejaVuSans-Bold-4d" d="M 588 4666 
L 2119 4666 
L 3181 2169 
L 4250 4666 
L 5778 4666 
L 5778 0 
L 4641 0 
L 4641 3413 
L 3566 897 
L 2803 897 
L 1728 3413 
L 1728 0 
L 588 0 
L 588 4666 
z
" transform="scale(0.015625)"/>
     <path id="DejaVuSans-Bold-6f" d="M 2203 2784 
Q 1831 2784 1636 2517 
Q 1441 2250 1441 1747 
Q 1441 1244 1636 976 
Q 1831 709 2203 709 
Q 2569 709 2762 976 
Q 2956 1244 2956 1747 
Q 2956 2250 2762 2517 
Q 2569 2784 2203 2784 
z
M 2203 3584 
Q 3106 3584 3614 3096 
Q 4122 2609 4122 1747 
Q 4122 884 3614 396 
Q 3106 -91 2203 -91 
Q 1297 -91 786 396 
Q 275 884 275 1747 
Q 275 2609 786 3096 
Q 1297 3584 2203 3584 
z
" transform="scale(0.015625)"/>
     <path id="DejaVuSans-Bold-64" d="M 2919 2988 
L 2919 4863 
L 4044 4863 
L 4044 0 
L 2919 0 
L 2919 506 
Q 2688 197 2409 53 
Q 2131 -91 1766 -91 
Q 1119 -91 703 423 
Q 288 938 288 1747 
Q 288 2556 703 3070 
Q 1119 3584 1766 3584 
Q 2128 3584 2408 3439 
Q 2688 3294 2919 2988 
z
M 2181 722 
Q 2541 722 2730 984 
Q 2919 1247 2919 1747 
Q 2919 2247 2730 2509 
Q 2541 2772 2181 2772 
Q 1825 2772 1636 2509 
Q 1447 2247 1447 1747 
Q 1447 1247 1636 984 
Q 1825 722 2181 722 
z
" transform="scale(0.015625)"/>
     <path id="DejaVuSans-Bold-65" d="M 4031 1759 
L 4031 1441 
L 1416 1441 
Q 1456 1047 1700 850 
Q 1944 653 2381 653 
Q 2734 653 3104 758 
Q 3475 863 3866 1075 
L 3866 213 
Q 3469 63 3072 -14 
Q 2675 -91 2278 -91 
Q 1328 -91 801 392 
Q 275 875 275 1747 
Q 275 2603 792 3093 
Q 1309 3584 2216 3584 
Q 3041 3584 3536 3087 
Q 4031 2591 4031 1759 
z
M 2881 2131 
Q 2881 2450 2695 2645 
Q 2509 2841 2209 2841 
Q 1884 2841 1681 2658 
Q 1478 2475 1428 2131 
L 2881 2131 
z
" transform="scale(0.015625)"/>
     <path id="DejaVuSans-Bold-6c" d="M 538 4863 
L 1656 4863 
L 1656 0 
L 538 0 
L 538 4863 
z
" transform="scale(0.015625)"/>
     <path id="DejaVuSans-Bold-3a" d="M 716 3500 
L 1844 3500 
L 1844 2291 
L 716 2291 
L 716 3500 
z
M 716 1209 
L 1844 1209 
L 1844 0 
L 716 0 
L 716 1209 
z
" transform="scale(0.015625)"/>
     <path id="DejaVuSans-Bold-20" transform="scale(0.015625)"/>
     <path id="DejaVuSans-Bold-4f" d="M 2719 3878 
Q 2169 3878 1866 3472 
Q 1563 3066 1563 2328 
Q 1563 1594 1866 1187 
Q 2169 781 2719 781 
Q 3272 781 3575 1187 
Q 3878 1594 3878 2328 
Q 3878 3066 3575 3472 
Q 3272 3878 2719 3878 
z
M 2719 4750 
Q 3844 4750 4481 4106 
Q 5119 3463 5119 2328 
Q 5119 1197 4481 553 
Q 3844 -91 2719 -91 
Q 1597 -91 958 553 
Q 319 1197 319 2328 
Q 319 3463 958 4106 
Q 1597 4750 2719 4750 
z
" transform="scale(0.015625)"/>
     <path id="DejaVuSans-Bold-56" d="M 31 4666 
L 1241 4666 
L 2478 1222 
L 3713 4666 
L 4922 4666 
L 3194 0 
L 1759 0 
L 31 4666 
z
" transform="scale(0.015625)"/>
     <path id="DejaVuSans-Bold-52" d="M 2297 2597 
Q 2675 2597 2839 2737 
Q 3003 2878 3003 3200 
Q 3003 3519 2839 3656 
Q 2675 3794 2297 3794 
L 1791 3794 
L 1791 2597 
L 2297 2597 
z
M 1791 1766 
L 1791 0 
L 588 0 
L 588 4666 
L 2425 4666 
Q 3347 4666 3776 4356 
Q 4206 4047 4206 3378 
Q 4206 2916 3982 2619 
Q 3759 2322 3309 2181 
Q 3556 2125 3751 1926 
Q 3947 1728 4147 1325 
L 4800 0 
L 3519 0 
L 2950 1159 
Q 2778 1509 2601 1637 
Q 2425 1766 2131 1766 
L 1791 1766 
z
" transform="scale(0.015625)"/>
     <path id="DejaVuSans-Bold-5f" d="M 3200 -916 
L 3200 -1509 
L 0 -1509 
L 0 -916 
L 3200 -916 
z
" transform="scale(0.015625)"/>
     <path id="DejaVuSans-Bold-4c" d="M 588 4666 
L 1791 4666 
L 1791 909 
L 3903 909 
L 3903 0 
L 588 0 
L 588 4666 
z
" transform="scale(0.015625)"/>
     <path id="DejaVuSans-Bold-32" d="M 1844 884 
L 3897 884 
L 3897 0 
L 506 0 
L 506 884 
L 2209 2388 
Q 2438 2594 2547 2791 
Q 2656 2988 2656 3200 
Q 2656 3528 2436 3728 
Q 2216 3928 1850 3928 
Q 1569 3928 1234 3808 
Q 900 3688 519 3450 
L 519 4475 
Q 925 4609 1322 4679 
Q 1719 4750 2100 4750 
Q 2938 4750 3402 4381 
Q 3866 4013 3866 3353 
Q 3866 2972 3669 2642 
Q 3472 2313 2841 1759 
L 1844 884 
z
" transform="scale(0.015625)"/>
     <path id="DejaVuSans-Bold-67" d="M 2919 594 
Q 2688 288 2409 144 
Q 2131 0 1766 0 
Q 1125 0 706 504 
Q 288 1009 288 1791 
Q 288 2575 706 3076 
Q 1125 3578 1766 3578 
Q 2131 3578 2409 3434 
Q 2688 3291 2919 2981 
L 2919 3500 
L 4044 3500 
L 4044 353 
Q 4044 -491 3511 -936 
Q 2978 -1381 1966 -1381 
Q 1638 -1381 1331 -1331 
Q 1025 -1281 716 -1178 
L 716 -306 
Q 1009 -475 1290 -558 
Q 1572 -641 1856 -641 
Q 2406 -641 2662 -400 
Q 2919 -159 2919 353 
L 2919 594 
z
M 2181 2772 
Q 1834 2772 1640 2515 
Q 1447 2259 1447 1791 
Q 1447 1309 1634 1061 
Q 1822 813 2181 813 
Q 2531 813 2725 1069 
Q 2919 1325 2919 1791 
Q 2919 2259 2725 2515 
Q 2531 2772 2181 2772 
z
" transform="scale(0.015625)"/>
     <path id="DejaVuSans-Bold-69" d="M 538 3500 
L 1656 3500 
L 1656 0 
L 538 0 
L 538 3500 
z
M 538 4863 
L 1656 4863 
L 1656 3950 
L 538 3950 
L 538 4863 
z
" transform="scale(0.015625)"/>
     <path id="DejaVuSans-Bold-73" d="M 3272 3391 
L 3272 2541 
Q 2913 2691 2578 2766 
Q 2244 2841 1947 2841 
Q 1628 2841 1473 2761 
Q 1319 2681 1319 2516 
Q 1319 2381 1436 2309 
Q 1553 2238 1856 2203 
L 2053 2175 
Q 2913 2066 3209 1816 
Q 3506 1566 3506 1031 
Q 3506 472 3093 190 
Q 2681 -91 1863 -91 
Q 1516 -91 1145 -36 
Q 775 19 384 128 
L 384 978 
Q 719 816 1070 734 
Q 1422 653 1784 653 
Q 2113 653 2278 743 
Q 2444 834 2444 1013 
Q 2444 1163 2330 1236 
Q 2216 1309 1875 1350 
L 1678 1375 
Q 931 1469 631 1722 
Q 331 1975 331 2491 
Q 331 3047 712 3315 
Q 1094 3584 1881 3584 
Q 2191 3584 2531 3537 
Q 2872 3491 3272 3391 
z
" transform="scale(0.015625)"/>
     <path id="DejaVuSans-Bold-74" d="M 1759 4494 
L 1759 3500 
L 2913 3500 
L 2913 2700 
L 1759 2700 
L 1759 1216 
Q 1759 972 1856 886 
Q 1953 800 2241 800 
L 2816 800 
L 2816 0 
L 1856 0 
Q 1194 0 917 276 
Q 641 553 641 1216 
L 641 2700 
L 84 2700 
L 84 3500 
L 641 3500 
L 641 4494 
L 1759 4494 
z
" transform="scale(0.015625)"/>
     <path id="DejaVuSans-Bold-63" d="M 3366 3391 
L 3366 2478 
Q 3138 2634 2908 2709 
Q 2678 2784 2431 2784 
Q 1963 2784 1702 2511 
Q 1441 2238 1441 1747 
Q 1441 1256 1702 982 
Q 1963 709 2431 709 
Q 2694 709 2930 787 
Q 3166 866 3366 1019 
L 3366 103 
Q 3103 6 2833 -42 
Q 2563 -91 2291 -91 
Q 1344 -91 809 395 
Q 275 881 275 1747 
Q 275 2613 809 3098 
Q 1344 3584 2291 3584 
Q 2566 3584 2833 3536 
Q 3100 3488 3366 3391 
z
" transform="scale(0.015625)"/>
     <path id="DejaVuSans-Bold-2c" d="M 653 1209 
L 1778 1209 
L 1778 256 
L 1006 -909 
L 341 -909 
L 653 256 
L 653 1209 
z
" transform="scale(0.015625)"/>
     <path id="DejaVuSans-Bold-47" d="M 4781 347 
Q 4331 128 3847 18 
Q 3363 -91 2847 -91 
Q 1681 -91 1000 561 
Q 319 1213 319 2328 
Q 319 3456 1012 4103 
Q 1706 4750 2913 4750 
Q 3378 4750 3804 4662 
Q 4231 4575 4609 4403 
L 4609 3438 
Q 4219 3659 3833 3768 
Q 3447 3878 3059 3878 
Q 2341 3878 1952 3476 
Q 1563 3075 1563 2328 
Q 1563 1588 1938 1184 
Q 2313 781 3003 781 
Q 3191 781 3352 804 
Q 3513 828 3641 878 
L 3641 1784 
L 2906 1784 
L 2906 2591 
L 4781 2591 
L 4781 347 
z
" transform="scale(0.015625)"/>
     <path id="DejaVuSans-Bold-72" d="M 3138 2547 
Q 2991 2616 2845 2648 
Q 2700 2681 2553 2681 
Q 2122 2681 1889 2404 
Q 1656 2128 1656 1613 
L 1656 0 
L 538 0 
L 538 3500 
L 1656 3500 
L 1656 2925 
Q 1872 3269 2151 3426 
Q 2431 3584 2822 3584 
Q 2878 3584 2943 3579 
Q 3009 3575 3134 3559 
L 3138 2547 
z
" transform="scale(0.015625)"/>
     <path id="DejaVuSans-Bold-75" d="M 500 1363 
L 500 3500 
L 1625 3500 
L 1625 3150 
Q 1625 2866 1622 2436 
Q 1619 2006 1619 1863 
Q 1619 1441 1641 1255 
Q 1663 1069 1716 984 
Q 1784 875 1895 815 
Q 2006 756 2150 756 
Q 2500 756 2700 1025 
Q 2900 1294 2900 1772 
L 2900 3500 
L 4019 3500 
L 4019 0 
L 2900 0 
L 2900 506 
Q 2647 200 2364 54 
Q 2081 -91 1741 -91 
Q 1134 -91 817 281 
Q 500 653 500 1363 
z
" transform="scale(0.015625)"/>
     <path id="DejaVuSans-Bold-70" d="M 1656 506 
L 1656 -1331 
L 538 -1331 
L 538 3500 
L 1656 3500 
L 1656 2988 
Q 1888 3294 2169 3439 
Q 2450 3584 2816 3584 
Q 3463 3584 3878 3070 
Q 4294 2556 4294 1747 
Q 4294 938 3878 423 
Q 3463 -91 2816 -91 
Q 2450 -91 2169 54 
Q 1888 200 1656 506 
z
M 2400 2772 
Q 2041 2772 1848 2508 
Q 1656 2244 1656 1747 
Q 1656 1250 1848 986 
Q 2041 722 2400 722 
Q 2759 722 2948 984 
Q 3138 1247 3138 1747 
Q 3138 2247 2948 2509 
Q 2759 2772 2400 2772 
z
" transform="scale(0.015625)"/>
     <path id="DejaVuSans-Bold-41" d="M 3419 850 
L 1538 850 
L 1241 0 
L 31 0 
L 1759 4666 
L 3194 4666 
L 4922 0 
L 3713 0 
L 3419 850 
z
M 1838 1716 
L 3116 1716 
L 2478 3572 
L 1838 1716 
z
" transform="scale(0.015625)"/>
     <path id="DejaVuSans-Bold-68" d="M 4056 2131 
L 4056 0 
L 2931 0 
L 2931 347 
L 2931 1625 
Q 2931 2084 2911 2256 
Q 2891 2428 2841 2509 
Q 2775 2619 2662 2680 
Q 2550 2741 2406 2741 
Q 2056 2741 1856 2470 
Q 1656 2200 1656 1722 
L 1656 0 
L 538 0 
L 538 4863 
L 1656 4863 
L 1656 2988 
Q 1909 3294 2193 3439 
Q 2478 3584 2822 3584 
Q 3428 3584 3742 3212 
Q 4056 2841 4056 2131 
z
" transform="scale(0.015625)"/>
     <path id="DejaVuSans-Bold-2d" d="M 347 2297 
L 2309 2297 
L 2309 1388 
L 347 1388 
L 347 2297 
z
" transform="scale(0.015625)"/>
     <path id="DejaVuSans-Bold-45" d="M 588 4666 
L 3834 4666 
L 3834 3756 
L 1791 3756 
L 1791 2888 
L 3713 2888 
L 3713 1978 
L 1791 1978 
L 1791 909 
L 3903 909 
L 3903 0 
L 588 0 
L 588 4666 
z
" transform="scale(0.015625)"/>
     <path id="DejaVuSans-Bold-66" d="M 2841 4863 
L 2841 4128 
L 2222 4128 
Q 1984 4128 1890 4042 
Q 1797 3956 1797 3744 
L 1797 3500 
L 2753 3500 
L 2753 2700 
L 1797 2700 
L 1797 0 
L 678 0 
L 678 2700 
L 122 2700 
L 122 3500 
L 678 3500 
L 678 3744 
Q 678 4316 997 4589 
Q 1316 4863 1984 4863 
L 2841 4863 
z
" transform="scale(0.015625)"/>
     <path id="DejaVuSans-Bold-6e" d="M 4056 2131 
L 4056 0 
L 2931 0 
L 2931 347 
L 2931 1631 
Q 2931 2084 2911 2256 
Q 2891 2428 2841 2509 
Q 2775 2619 2662 2680 
Q 2550 2741 2406 2741 
Q 2056 2741 1856 2470 
Q 1656 2200 1656 1722 
L 1656 0 
L 538 0 
L 538 3500 
L 1656 3500 
L 1656 2988 
Q 1909 3294 2193 3439 
Q 2478 3584 2822 3584 
Q 3428 3584 3742 3212 
Q 4056 2841 4056 2131 
z
" transform="scale(0.015625)"/>
     <path id="DejaVuSans-Bold-79" d="M 78 3500 
L 1197 3500 
L 2138 1125 
L 2938 3500 
L 4056 3500 
L 2584 -331 
Q 2363 -916 2067 -1148 
Q 1772 -1381 1288 -1381 
L 641 -1381 
L 641 -647 
L 991 -647 
Q 1275 -647 1404 -556 
Q 1534 -466 1606 -231 
L 1638 -134 
L 78 3500 
z
" transform="scale(0.015625)"/>
     <path id="DejaVuSans-Bold-43" d="M 4288 256 
Q 3956 84 3597 -3 
Q 3238 -91 2847 -91 
Q 1681 -91 1000 561 
Q 319 1213 319 2328 
Q 319 3447 1000 4098 
Q 1681 4750 2847 4750 
Q 3238 4750 3597 4662 
Q 3956 4575 4288 4403 
L 4288 3438 
Q 3953 3666 3628 3772 
Q 3303 3878 2944 3878 
Q 2300 3878 1931 3465 
Q 1563 3053 1563 2328 
Q 1563 1606 1931 1193 
Q 2300 781 2944 781 
Q 3303 781 3628 887 
Q 3953 994 4288 1222 
L 4288 256 
z
" transform="scale(0.015625)"/>
     <path id="DejaVuSans-Bold-6d" d="M 3781 2919 
Q 3994 3244 4286 3414 
Q 4578 3584 4928 3584 
Q 5531 3584 5847 3212 
Q 6163 2841 6163 2131 
L 6163 0 
L 5038 0 
L 5038 1825 
Q 5041 1866 5042 1909 
Q 5044 1953 5044 2034 
Q 5044 2406 4934 2573 
Q 4825 2741 4581 2741 
Q 4263 2741 4089 2478 
Q 3916 2216 3909 1719 
L 3909 0 
L 2784 0 
L 2784 1825 
Q 2784 2406 2684 2573 
Q 2584 2741 2328 2741 
Q 2006 2741 1831 2477 
Q 1656 2213 1656 1722 
L 1656 0 
L 531 0 
L 531 3500 
L 1656 3500 
L 1656 2988 
Q 1863 3284 2130 3434 
Q 2397 3584 2719 3584 
Q 3081 3584 3359 3409 
Q 3638 3234 3781 2919 
z
" transform="scale(0.015625)"/>
     <path id="DejaVuSans-Bold-61" d="M 2106 1575 
Q 1756 1575 1579 1456 
Q 1403 1338 1403 1106 
Q 1403 894 1545 773 
Q 1688 653 1941 653 
Q 2256 653 2472 879 
Q 2688 1106 2688 1447 
L 2688 1575 
L 2106 1575 
z
M 3816 1997 
L 3816 0 
L 2688 0 
L 2688 519 
Q 2463 200 2181 54 
Q 1900 -91 1497 -91 
Q 953 -91 614 226 
Q 275 544 275 1050 
Q 275 1666 698 1953 
Q 1122 2241 2028 2241 
L 2688 2241 
L 2688 2328 
Q 2688 2594 2478 2717 
Q 2269 2841 1825 2841 
Q 1466 2841 1156 2769 
Q 847 2697 581 2553 
L 581 3406 
Q 941 3494 1303 3539 
Q 1666 3584 2028 3584 
Q 2975 3584 3395 3211 
Q 3816 2838 3816 1997 
z
" transform="scale(0.015625)"/>
    </defs>
    <use xlink:href="#DejaVuSans-Bold-4d"/>
    <use xlink:href="#DejaVuSans-Bold-6f" x="99.511719"/>
    <use xlink:href="#DejaVuSans-Bold-64" x="168.212891"/>
    <use xlink:href="#DejaVuSans-Bold-65" x="239.794922"/>
    <use xlink:href="#DejaVuSans-Bold-6c" x="307.617188"/>
    <use xlink:href="#DejaVuSans-Bold-3a" x="341.894531"/>
    <use xlink:href="#DejaVuSans-Bold-20" x="381.884766"/>
    <use xlink:href="#DejaVuSans-Bold-4f" x="416.699219"/>
    <use xlink:href="#DejaVuSans-Bold-56" x="499.083984"/>
    <use xlink:href="#DejaVuSans-Bold-52" x="576.476562"/>
    <use xlink:href="#DejaVuSans-Bold-5f" x="653.478516"/>
    <use xlink:href="#DejaVuSans-Bold-4c" x="703.478516"/>
    <use xlink:href="#DejaVuSans-Bold-32" x="767.199219"/>
    <use xlink:href="#DejaVuSans-Bold-5f" x="836.779297"/>
    <use xlink:href="#DejaVuSans-Bold-6c" x="886.779297"/>
    <use xlink:href="#DejaVuSans-Bold-6f" x="921.056641"/>
    <use xlink:href="#DejaVuSans-Bold-67" x="989.757812"/>
    <use xlink:href="#DejaVuSans-Bold-69" x="1061.339844"/>
    <use xlink:href="#DejaVuSans-Bold-73" x="1095.617188"/>
    <use xlink:href="#DejaVuSans-Bold-74" x="1155.138672"/>
    <use xlink:href="#DejaVuSans-Bold-69" x="1202.941406"/>
    <use xlink:href="#DejaVuSans-Bold-63" x="1237.21875"/>
    <use xlink:href="#DejaVuSans-Bold-2c" x="1296.496094"/>
    <use xlink:href="#DejaVuSans-Bold-20" x="1334.484375"/>
    <use xlink:href="#DejaVuSans-Bold-47" x="1369.298828"/>
    <use xlink:href="#DejaVuSans-Bold-72" x="1451.378906"/>
    <use xlink:href="#DejaVuSans-Bold-6f" x="1500.695312"/>
    <use xlink:href="#DejaVuSans-Bold-75" x="1569.396484"/>
    <use xlink:href="#DejaVuSans-Bold-70" x="1640.587891"/>
    <use xlink:href="#DejaVuSans-Bold-3a" x="1712.169922"/>
    <use xlink:href="#DejaVuSans-Bold-20" x="1752.160156"/>
    <use xlink:href="#DejaVuSans-Bold-41" x="1786.974609"/>
    <use xlink:href="#DejaVuSans-Bold-6c" x="1864.367188"/>
    <use xlink:href="#DejaVuSans-Bold-63" x="1898.644531"/>
    <use xlink:href="#DejaVuSans-Bold-6f" x="1957.921875"/>
    <use xlink:href="#DejaVuSans-Bold-68" x="2026.623047"/>
    <use xlink:href="#DejaVuSans-Bold-6f" x="2097.814453"/>
    <use xlink:href="#DejaVuSans-Bold-6c" x="2166.515625"/>
    <use xlink:href="#DejaVuSans-Bold-20" x="2200.792969"/>
    <use xlink:href="#DejaVuSans-Bold-2d" x="2235.607422"/>
    <use xlink:href="#DejaVuSans-Bold-20" x="2277.111328"/>
    <use xlink:href="#DejaVuSans-Bold-20" x="2311.925781"/>
    <use xlink:href="#DejaVuSans-Bold-45" x="2346.740234"/>
    <use xlink:href="#DejaVuSans-Bold-66" x="2415.050781"/>
    <use xlink:href="#DejaVuSans-Bold-66" x="2458.556641"/>
    <use xlink:href="#DejaVuSans-Bold-69" x="2502.0625"/>
    <use xlink:href="#DejaVuSans-Bold-63" x="2536.339844"/>
    <use xlink:href="#DejaVuSans-Bold-69" x="2595.617188"/>
    <use xlink:href="#DejaVuSans-Bold-65" x="2629.894531"/>
    <use xlink:href="#DejaVuSans-Bold-6e" x="2697.716797"/>
    <use xlink:href="#DejaVuSans-Bold-63" x="2768.908203"/>
    <use xlink:href="#DejaVuSans-Bold-79" x="2828.185547"/>
    <use xlink:href="#DejaVuSans-Bold-20" x="2893.371094"/>
    <use xlink:href="#DejaVuSans-Bold-43" x="2928.185547"/>
    <use xlink:href="#DejaVuSans-Bold-6f" x="3001.574219"/>
    <use xlink:href="#DejaVuSans-Bold-6d" x="3070.275391"/>
    <use xlink:href="#DejaVuSans-Bold-70" x="3174.474609"/>
    <use xlink:href="#DejaVuSans-Bold-61" x="3246.056641"/>
    <use xlink:href="#DejaVuSans-Bold-72" x="3313.537109"/>
    <use xlink:href="#DejaVuSans-Bold-69" x="3362.853516"/>
    <use xlink:href="#DejaVuSans-Bold-73" x="3397.130859"/>
    <use xlink:href="#DejaVuSans-Bold-6f" x="3456.652344"/>
    <use xlink:href="#DejaVuSans-Bold-6e" x="3525.353516"/>
   </g>
  </g>
 </g>
 <defs>
  <clipPath id="pdff4fc320f">
   <rect x="67.5125" y="68.64" width="245.155" height="184.28"/>
  </clipPath>
  <clipPath id="pe0d435fb53">
   <rect x="326.9675" y="68.64" width="245.155" height="184.28"/>
  </clipPath>
 </defs>
</svg>
