<?xml version="1.0" encoding="utf-8" standalone="no"?>
<!DOCTYPE svg PUBLIC "-//W3C//DTD SVG 1.1//EN"
  "http://www.w3.org/Graphics/SVG/1.1/DTD/svg11.dtd">
<svg xmlns:xlink="http://www.w3.org/1999/xlink" width="606.21pt" height="276.798125pt" viewBox="0 0 606.21 276.798125" xmlns="http://www.w3.org/2000/svg" version="1.1">
 <metadata>
  <rdf:RDF xmlns:dc="http://purl.org/dc/elements/1.1/" xmlns:cc="http://creativecommons.org/ns#" xmlns:rdf="http://www.w3.org/1999/02/22-rdf-syntax-ns#">
   <cc:Work>
    <dc:type rdf:resource="http://purl.org/dc/dcmitype/StillImage"/>
    <dc:date>2025-04-21T11:11:27.647553</dc:date>
    <dc:format>image/svg+xml</dc:format>
    <dc:creator>
     <cc:Agent>
      <dc:title>Matplotlib v3.7.1, https://matplotlib.org/</dc:title>
     </cc:Agent>
    </dc:creator>
   </cc:Work>
  </rdf:RDF>
 </metadata>
 <defs>
  <style type="text/css">*{stroke-linejoin: round; stroke-linecap: butt}</style>
 </defs>
 <g id="figure_1">
  <g id="patch_1">
   <path d="M 0 276.798125 
L 606.21 276.798125 
L 606.21 0 
L 0 0 
z
" style="fill: #ffffff"/>
  </g>
  <g id="axes_1">
   <g id="patch_2">
    <path d="M 75.695 252.92 
L 320.85 252.92 
L 320.85 68.64 
L 75.695 68.64 
z
" style="fill: #ffffff"/>
   </g>
   <g id="PolyCollection_1">
    <defs>
     <path id="mce2a61d8a6" d="M 138.482259 -86.625907 
L 135.485241 -86.625907 
L 135.183352 -87.335804 
L 134.836241 -88.045702 
L 134.435978 -88.7556 
L 133.974809 -89.465498 
L 133.446693 -90.175395 
L 132.848831 -90.885293 
L 132.182787 -91.595191 
L 131.454825 -92.305089 
L 130.675299 -93.014986 
L 129.857145 -93.724884 
L 129.013742 -94.434782 
L 128.156589 -95.14468 
L 127.293231 -95.854577 
L 126.4258 -96.564475 
L 125.550362 -97.274373 
L 124.657082 -97.984271 
L 123.731113 -98.694168 
L 122.754065 -99.404066 
L 121.70591 -100.113964 
L 120.567224 -100.823862 
L 119.321641 -101.533759 
L 117.958336 -102.243657 
L 116.47425 -102.953555 
L 114.875705 -103.663453 
L 113.179019 -104.37335 
L 111.409853 -105.083248 
L 109.601194 -105.793146 
L 107.790167 -106.503044 
L 106.014099 -107.212941 
L 104.306446 -107.922839 
L 102.693265 -108.632737 
L 101.190823 -109.342635 
L 99.804781 -110.052532 
L 98.531087 -110.76243 
L 97.358426 -111.472328 
L 96.271768 -112.182226 
L 95.256299 -112.892123 
L 94.300957 -113.602021 
L 93.400803 -114.311919 
L 92.557718 -115.021816 
L 91.779296 -115.731714 
L 91.076195 -116.441612 
L 90.458627 -117.15151 
L 89.932888 -117.861407 
L 89.498818 -118.571305 
L 89.148912 -119.281203 
L 88.869359 -119.991101 
L 88.642847 -120.700998 
L 88.452553 -121.410896 
L 88.286451 -122.120794 
L 88.141026 -122.830692 
L 88.023591 -123.540589 
L 87.95275 -124.250487 
L 87.956867 -124.960385 
L 88.070843 -125.670283 
L 88.331777 -126.38018 
L 88.774304 -127.090078 
L 89.426395 -127.799976 
L 90.306296 -128.509874 
L 91.420968 -129.219771 
L 92.76608 -129.929669 
L 94.327249 -130.639567 
L 96.082049 -131.349465 
L 98.002248 -132.059362 
L 100.055844 -132.76926 
L 102.208703 -133.479158 
L 104.42585 -134.189056 
L 106.672586 -134.898953 
L 108.915695 -135.608851 
L 111.124816 -136.318749 
L 113.273946 -137.028647 
L 115.342779 -137.738544 
L 117.317528 -138.448442 
L 119.190911 -139.15834 
L 120.961183 -139.868238 
L 122.63037 -140.578135 
L 124.202088 -141.288033 
L 125.679486 -141.997931 
L 127.063782 -142.707829 
L 128.353673 -143.417726 
L 129.545644 -144.127624 
L 130.634962 -144.837522 
L 131.617002 -145.547419 
L 132.488547 -146.257317 
L 133.248778 -146.967215 
L 133.899808 -147.677113 
L 134.446736 -148.38701 
L 134.897282 -149.096908 
L 135.261135 -149.806806 
L 135.54917 -150.516704 
L 135.772679 -151.226601 
L 135.942755 -151.936499 
L 136.069904 -152.646397 
L 136.163868 -153.356295 
L 136.23359 -154.066192 
L 136.287196 -154.77609 
L 136.331897 -155.485988 
L 136.373757 -156.195886 
L 136.417378 -156.905783 
L 137.550122 -156.905783 
L 137.550122 -156.905783 
L 137.593743 -156.195886 
L 137.635603 -155.485988 
L 137.680304 -154.77609 
L 137.73391 -154.066192 
L 137.803632 -153.356295 
L 137.897596 -152.646397 
L 138.024745 -151.936499 
L 138.194821 -151.226601 
L 138.41833 -150.516704 
L 138.706365 -149.806806 
L 139.070218 -149.096908 
L 139.520764 -148.38701 
L 140.067692 -147.677113 
L 140.718722 -146.967215 
L 141.478953 -146.257317 
L 142.350498 -145.547419 
L 143.332538 -144.837522 
L 144.421856 -144.127624 
L 145.613827 -143.417726 
L 146.903718 -142.707829 
L 148.288014 -141.997931 
L 149.765412 -141.288033 
L 151.33713 -140.578135 
L 153.006317 -139.868238 
L 154.776589 -139.15834 
L 156.649972 -138.448442 
L 158.624721 -137.738544 
L 160.693554 -137.028647 
L 162.842684 -136.318749 
L 165.051805 -135.608851 
L 167.294914 -134.898953 
L 169.54165 -134.189056 
L 171.758797 -133.479158 
L 173.911656 -132.76926 
L 175.965252 -132.059362 
L 177.885451 -131.349465 
L 179.640251 -130.639567 
L 181.20142 -129.929669 
L 182.546532 -129.219771 
L 183.661204 -128.509874 
L 184.541105 -127.799976 
L 185.193196 -127.090078 
L 185.635723 -126.38018 
L 185.896657 -125.670283 
L 186.010633 -124.960385 
L 186.01475 -124.250487 
L 185.943909 -123.540589 
L 185.826474 -122.830692 
L 185.681049 -122.120794 
L 185.514947 -121.410896 
L 185.324653 -120.700998 
L 185.098141 -119.991101 
L 184.818588 -119.281203 
L 184.468682 -118.571305 
L 184.034612 -117.861407 
L 183.508873 -117.15151 
L 182.891305 -116.441612 
L 182.188204 -115.731714 
L 181.409782 -115.021816 
L 180.566697 -114.311919 
L 179.666543 -113.602021 
L 178.711201 -112.892123 
L 177.695732 -112.182226 
L 176.609074 -111.472328 
L 175.436413 -110.76243 
L 174.162719 -110.052532 
L 172.776677 -109.342635 
L 171.274235 -108.632737 
L 169.661054 -107.922839 
L 167.953401 -107.212941 
L 166.177333 -106.503044 
L 164.366306 -105.793146 
L 162.557647 -105.083248 
L 160.788481 -104.37335 
L 159.091795 -103.663453 
L 157.49325 -102.953555 
L 156.009164 -102.243657 
L 154.645859 -101.533759 
L 153.400276 -100.823862 
L 152.26159 -100.113964 
L 151.213435 -99.404066 
L 150.236387 -98.694168 
L 149.310418 -97.984271 
L 148.417138 -97.274373 
L 147.5417 -96.564475 
L 146.674269 -95.854577 
L 145.810911 -95.14468 
L 144.953758 -94.434782 
L 144.110355 -93.724884 
L 143.292201 -93.014986 
L 142.512675 -92.305089 
L 141.784713 -91.595191 
L 141.118669 -90.885293 
L 140.520807 -90.175395 
L 139.992691 -89.465498 
L 139.531522 -88.7556 
L 139.131259 -88.045702 
L 138.784148 -87.335804 
L 138.482259 -86.625907 
z
" style="stroke: #3f3f3f; stroke-width: 1.5"/>
    </defs>
    <g clip-path="url(#pe1290ec72c)">
     <use xlink:href="#mce2a61d8a6" x="0" y="276.798125" style="fill: #3274a1; stroke: #3f3f3f; stroke-width: 1.5"/>
    </g>
   </g>
   <g id="PolyCollection_2">
    <defs>
     <path id="md281358a62" d="M 260.802667 -77.885595 
L 258.319833 -77.885595 
L 258.136853 -78.638981 
L 257.951346 -79.392367 
L 257.768204 -80.145752 
L 257.592362 -80.899138 
L 257.428052 -81.652524 
L 257.27789 -82.405909 
L 257.141906 -83.159295 
L 257.016687 -83.912681 
L 256.894824 -84.666067 
L 256.764805 -85.419452 
L 256.611447 -86.172838 
L 256.416877 -86.926224 
L 256.161994 -87.679609 
L 255.828264 -88.432995 
L 255.399616 -89.186381 
L 254.864198 -89.939767 
L 254.215681 -90.693152 
L 253.453888 -91.446538 
L 252.584551 -92.199924 
L 251.618193 -92.95331 
L 250.568289 -93.706695 
L 249.449042 -94.460081 
L 248.273252 -95.213467 
L 247.050772 -95.966852 
L 245.78792 -96.720238 
L 244.488039 -97.473624 
L 243.15305 -98.22701 
L 241.785623 -98.980395 
L 240.391387 -99.733781 
L 238.980574 -100.487167 
L 237.568664 -101.240553 
L 236.175799 -101.993938 
L 234.825081 -102.747324 
L 233.540083 -103.50071 
L 232.342061 -104.254095 
L 231.247332 -105.007481 
L 230.265198 -105.760867 
L 229.396617 -106.514253 
L 228.63371 -107.267638 
L 227.960093 -108.021024 
L 227.352029 -108.77441 
L 226.780411 -109.527795 
L 226.21353 -110.281181 
L 225.620535 -111.034567 
L 224.975245 -111.787953 
L 224.259794 -112.541338 
L 223.46743 -113.294724 
L 222.603774 -114.04811 
L 221.686108 -114.801496 
L 220.740619 -115.554881 
L 219.798059 -116.308267 
L 218.888715 -117.061653 
L 218.037803 -117.815038 
L 217.262335 -118.568424 
L 216.57016 -119.32181 
L 215.961302 -120.075196 
L 215.431146 -120.828581 
L 214.974565 -121.581967 
L 214.589877 -122.335353 
L 214.281639 -123.088739 
L 214.061631 -123.842124 
L 213.94788 -124.59551 
L 213.962059 -125.348896 
L 214.125949 -126.102281 
L 214.457821 -126.855667 
L 214.969519 -127.609053 
L 215.6648 -128.362439 
L 216.539154 -129.115824 
L 217.580994 -129.86921 
L 218.773853 -130.622596 
L 220.09904 -131.375981 
L 221.538241 -132.129367 
L 223.075568 -132.882753 
L 224.698784 -133.636139 
L 226.399563 -134.389524 
L 228.172838 -135.14291 
L 230.015429 -135.896296 
L 231.924204 -136.649682 
L 233.894088 -137.403067 
L 235.91622 -138.156453 
L 237.976558 -138.909839 
L 240.055176 -139.663224 
L 242.126426 -140.41661 
L 244.160028 -141.169996 
L 246.123034 -141.923382 
L 247.982416 -142.676767 
L 249.707955 -143.430153 
L 251.27497 -144.183539 
L 252.666464 -144.936925 
L 253.874373 -145.69031 
L 254.899735 -146.443696 
L 255.751838 -147.197082 
L 256.446549 -147.950467 
L 257.004158 -148.703853 
L 257.447095 -149.457239 
L 257.797838 -150.210625 
L 258.077225 -150.96401 
L 258.303293 -151.717396 
L 258.490639 -152.470782 
L 260.631861 -152.470782 
L 260.631861 -152.470782 
L 260.819207 -151.717396 
L 261.045275 -150.96401 
L 261.324662 -150.210625 
L 261.675405 -149.457239 
L 262.118342 -148.703853 
L 262.675951 -147.950467 
L 263.370662 -147.197082 
L 264.222765 -146.443696 
L 265.248127 -145.69031 
L 266.456036 -144.936925 
L 267.84753 -144.183539 
L 269.414545 -143.430153 
L 271.140084 -142.676767 
L 272.999466 -141.923382 
L 274.962472 -141.169996 
L 276.996074 -140.41661 
L 279.067324 -139.663224 
L 281.145942 -138.909839 
L 283.20628 -138.156453 
L 285.228412 -137.403067 
L 287.198296 -136.649682 
L 289.107071 -135.896296 
L 290.949662 -135.14291 
L 292.722937 -134.389524 
L 294.423716 -133.636139 
L 296.046932 -132.882753 
L 297.584259 -132.129367 
L 299.02346 -131.375981 
L 300.348647 -130.622596 
L 301.541506 -129.86921 
L 302.583346 -129.115824 
L 303.4577 -128.362439 
L 304.152981 -127.609053 
L 304.664679 -126.855667 
L 304.996551 -126.102281 
L 305.160441 -125.348896 
L 305.17462 -124.59551 
L 305.060869 -123.842124 
L 304.840861 -123.088739 
L 304.532623 -122.335353 
L 304.147935 -121.581967 
L 303.691354 -120.828581 
L 303.161198 -120.075196 
L 302.55234 -119.32181 
L 301.860165 -118.568424 
L 301.084697 -117.815038 
L 300.233785 -117.061653 
L 299.324441 -116.308267 
L 298.381881 -115.554881 
L 297.436392 -114.801496 
L 296.518726 -114.04811 
L 295.65507 -113.294724 
L 294.862706 -112.541338 
L 294.147255 -111.787953 
L 293.501965 -111.034567 
L 292.90897 -110.281181 
L 292.342089 -109.527795 
L 291.770471 -108.77441 
L 291.162407 -108.021024 
L 290.48879 -107.267638 
L 289.725883 -106.514253 
L 288.857302 -105.760867 
L 287.875168 -105.007481 
L 286.780439 -104.254095 
L 285.582417 -103.50071 
L 284.297419 -102.747324 
L 282.946701 -101.993938 
L 281.553836 -101.240553 
L 280.141926 -100.487167 
L 278.731113 -99.733781 
L 277.336877 -98.980395 
L 275.96945 -98.22701 
L 274.634461 -97.473624 
L 273.33458 -96.720238 
L 272.071728 -95.966852 
L 270.849248 -95.213467 
L 269.673458 -94.460081 
L 268.554211 -93.706695 
L 267.504307 -92.95331 
L 266.537949 -92.199924 
L 265.668612 -91.446538 
L 264.906819 -90.693152 
L 264.258302 -89.939767 
L 263.722884 -89.186381 
L 263.294236 -88.432995 
L 262.960506 -87.679609 
L 262.705623 -86.926224 
L 262.511053 -86.172838 
L 262.357695 -85.419452 
L 262.227676 -84.666067 
L 262.105813 -83.912681 
L 261.980594 -83.159295 
L 261.84461 -82.405909 
L 261.694448 -81.652524 
L 261.530138 -80.899138 
L 261.354296 -80.145752 
L 261.171154 -79.392367 
L 260.985647 -78.638981 
L 260.802667 -77.885595 
z
" style="stroke: #3f3f3f; stroke-width: 1.5"/>
    </defs>
    <g clip-path="url(#pe1290ec72c)">
     <use xlink:href="#md281358a62" x="0" y="276.798125" style="fill: #e1812c; stroke: #3f3f3f; stroke-width: 1.5"/>
    </g>
   </g>
   <g id="matplotlib.axis_1">
    <g id="xtick_1">
     <g id="line2d_1">
      <defs>
       <path id="m0847c25781" d="M 0 0 
L 0 3.5 
" style="stroke: #000000; stroke-width: 0.8"/>
      </defs>
      <g>
       <use xlink:href="#m0847c25781" x="136.98375" y="252.92" style="stroke: #000000; stroke-width: 0.8"/>
      </g>
     </g>
     <g id="text_1">
      <!-- HC -->
      <g transform="translate(129.732188 267.518437) scale(0.1 -0.1)">
       <defs>
        <path id="DejaVuSans-48" d="M 628 4666 
L 1259 4666 
L 1259 2753 
L 3553 2753 
L 3553 4666 
L 4184 4666 
L 4184 0 
L 3553 0 
L 3553 2222 
L 1259 2222 
L 1259 0 
L 628 0 
L 628 4666 
z
" transform="scale(0.015625)"/>
        <path id="DejaVuSans-43" d="M 4122 4306 
L 4122 3641 
Q 3803 3938 3442 4084 
Q 3081 4231 2675 4231 
Q 1875 4231 1450 3742 
Q 1025 3253 1025 2328 
Q 1025 1406 1450 917 
Q 1875 428 2675 428 
Q 3081 428 3442 575 
Q 3803 722 4122 1019 
L 4122 359 
Q 3791 134 3420 21 
Q 3050 -91 2638 -91 
Q 1578 -91 968 557 
Q 359 1206 359 2328 
Q 359 3453 968 4101 
Q 1578 4750 2638 4750 
Q 3056 4750 3426 4639 
Q 3797 4528 4122 4306 
z
" transform="scale(0.015625)"/>
       </defs>
       <use xlink:href="#DejaVuSans-48"/>
       <use xlink:href="#DejaVuSans-43" x="75.195312"/>
      </g>
     </g>
    </g>
    <g id="xtick_2">
     <g id="line2d_2">
      <g>
       <use xlink:href="#m0847c25781" x="259.56125" y="252.92" style="stroke: #000000; stroke-width: 0.8"/>
      </g>
     </g>
     <g id="text_2">
      <!-- Cannabis -->
      <g transform="translate(236.43625 267.518437) scale(0.1 -0.1)">
       <defs>
        <path id="DejaVuSans-61" d="M 2194 1759 
Q 1497 1759 1228 1600 
Q 959 1441 959 1056 
Q 959 750 1161 570 
Q 1363 391 1709 391 
Q 2188 391 2477 730 
Q 2766 1069 2766 1631 
L 2766 1759 
L 2194 1759 
z
M 3341 1997 
L 3341 0 
L 2766 0 
L 2766 531 
Q 2569 213 2275 61 
Q 1981 -91 1556 -91 
Q 1019 -91 701 211 
Q 384 513 384 1019 
Q 384 1609 779 1909 
Q 1175 2209 1959 2209 
L 2766 2209 
L 2766 2266 
Q 2766 2663 2505 2880 
Q 2244 3097 1772 3097 
Q 1472 3097 1187 3025 
Q 903 2953 641 2809 
L 641 3341 
Q 956 3463 1253 3523 
Q 1550 3584 1831 3584 
Q 2591 3584 2966 3190 
Q 3341 2797 3341 1997 
z
" transform="scale(0.015625)"/>
        <path id="DejaVuSans-6e" d="M 3513 2113 
L 3513 0 
L 2938 0 
L 2938 2094 
Q 2938 2591 2744 2837 
Q 2550 3084 2163 3084 
Q 1697 3084 1428 2787 
Q 1159 2491 1159 1978 
L 1159 0 
L 581 0 
L 581 3500 
L 1159 3500 
L 1159 2956 
Q 1366 3272 1645 3428 
Q 1925 3584 2291 3584 
Q 2894 3584 3203 3211 
Q 3513 2838 3513 2113 
z
" transform="scale(0.015625)"/>
        <path id="DejaVuSans-62" d="M 3116 1747 
Q 3116 2381 2855 2742 
Q 2594 3103 2138 3103 
Q 1681 3103 1420 2742 
Q 1159 2381 1159 1747 
Q 1159 1113 1420 752 
Q 1681 391 2138 391 
Q 2594 391 2855 752 
Q 3116 1113 3116 1747 
z
M 1159 2969 
Q 1341 3281 1617 3432 
Q 1894 3584 2278 3584 
Q 2916 3584 3314 3078 
Q 3713 2572 3713 1747 
Q 3713 922 3314 415 
Q 2916 -91 2278 -91 
Q 1894 -91 1617 61 
Q 1341 213 1159 525 
L 1159 0 
L 581 0 
L 581 4863 
L 1159 4863 
L 1159 2969 
z
" transform="scale(0.015625)"/>
        <path id="DejaVuSans-69" d="M 603 3500 
L 1178 3500 
L 1178 0 
L 603 0 
L 603 3500 
z
M 603 4863 
L 1178 4863 
L 1178 4134 
L 603 4134 
L 603 4863 
z
" transform="scale(0.015625)"/>
        <path id="DejaVuSans-73" d="M 2834 3397 
L 2834 2853 
Q 2591 2978 2328 3040 
Q 2066 3103 1784 3103 
Q 1356 3103 1142 2972 
Q 928 2841 928 2578 
Q 928 2378 1081 2264 
Q 1234 2150 1697 2047 
L 1894 2003 
Q 2506 1872 2764 1633 
Q 3022 1394 3022 966 
Q 3022 478 2636 193 
Q 2250 -91 1575 -91 
Q 1294 -91 989 -36 
Q 684 19 347 128 
L 347 722 
Q 666 556 975 473 
Q 1284 391 1588 391 
Q 1994 391 2212 530 
Q 2431 669 2431 922 
Q 2431 1156 2273 1281 
Q 2116 1406 1581 1522 
L 1381 1569 
Q 847 1681 609 1914 
Q 372 2147 372 2553 
Q 372 3047 722 3315 
Q 1072 3584 1716 3584 
Q 2034 3584 2315 3537 
Q 2597 3491 2834 3397 
z
" transform="scale(0.015625)"/>
       </defs>
       <use xlink:href="#DejaVuSans-43"/>
       <use xlink:href="#DejaVuSans-61" x="69.824219"/>
       <use xlink:href="#DejaVuSans-6e" x="131.103516"/>
       <use xlink:href="#DejaVuSans-6e" x="194.482422"/>
       <use xlink:href="#DejaVuSans-61" x="257.861328"/>
       <use xlink:href="#DejaVuSans-62" x="319.140625"/>
       <use xlink:href="#DejaVuSans-69" x="382.617188"/>
       <use xlink:href="#DejaVuSans-73" x="410.400391"/>
      </g>
     </g>
    </g>
   </g>
   <g id="matplotlib.axis_2">
    <g id="ytick_1">
     <g id="line2d_3">
      <defs>
       <path id="m7c61c919ab" d="M 0 0 
L -3.5 0 
" style="stroke: #000000; stroke-width: 0.8"/>
      </defs>
      <g>
       <use xlink:href="#m7c61c919ab" x="75.695" y="240.894026" style="stroke: #000000; stroke-width: 0.8"/>
      </g>
     </g>
     <g id="text_3">
      <!-- 0.025 -->
      <g transform="translate(40.066875 244.693244) scale(0.1 -0.1)">
       <defs>
        <path id="DejaVuSans-30" d="M 2034 4250 
Q 1547 4250 1301 3770 
Q 1056 3291 1056 2328 
Q 1056 1369 1301 889 
Q 1547 409 2034 409 
Q 2525 409 2770 889 
Q 3016 1369 3016 2328 
Q 3016 3291 2770 3770 
Q 2525 4250 2034 4250 
z
M 2034 4750 
Q 2819 4750 3233 4129 
Q 3647 3509 3647 2328 
Q 3647 1150 3233 529 
Q 2819 -91 2034 -91 
Q 1250 -91 836 529 
Q 422 1150 422 2328 
Q 422 3509 836 4129 
Q 1250 4750 2034 4750 
z
" transform="scale(0.015625)"/>
        <path id="DejaVuSans-2e" d="M 684 794 
L 1344 794 
L 1344 0 
L 684 0 
L 684 794 
z
" transform="scale(0.015625)"/>
        <path id="DejaVuSans-32" d="M 1228 531 
L 3431 531 
L 3431 0 
L 469 0 
L 469 531 
Q 828 903 1448 1529 
Q 2069 2156 2228 2338 
Q 2531 2678 2651 2914 
Q 2772 3150 2772 3378 
Q 2772 3750 2511 3984 
Q 2250 4219 1831 4219 
Q 1534 4219 1204 4116 
Q 875 4013 500 3803 
L 500 4441 
Q 881 4594 1212 4672 
Q 1544 4750 1819 4750 
Q 2544 4750 2975 4387 
Q 3406 4025 3406 3419 
Q 3406 3131 3298 2873 
Q 3191 2616 2906 2266 
Q 2828 2175 2409 1742 
Q 1991 1309 1228 531 
z
" transform="scale(0.015625)"/>
        <path id="DejaVuSans-35" d="M 691 4666 
L 3169 4666 
L 3169 4134 
L 1269 4134 
L 1269 2991 
Q 1406 3038 1543 3061 
Q 1681 3084 1819 3084 
Q 2600 3084 3056 2656 
Q 3513 2228 3513 1497 
Q 3513 744 3044 326 
Q 2575 -91 1722 -91 
Q 1428 -91 1123 -41 
Q 819 9 494 109 
L 494 744 
Q 775 591 1075 516 
Q 1375 441 1709 441 
Q 2250 441 2565 725 
Q 2881 1009 2881 1497 
Q 2881 1984 2565 2268 
Q 2250 2553 1709 2553 
Q 1456 2553 1204 2497 
Q 953 2441 691 2322 
L 691 4666 
z
" transform="scale(0.015625)"/>
       </defs>
       <use xlink:href="#DejaVuSans-30"/>
       <use xlink:href="#DejaVuSans-2e" x="63.623047"/>
       <use xlink:href="#DejaVuSans-30" x="95.410156"/>
       <use xlink:href="#DejaVuSans-32" x="159.033203"/>
       <use xlink:href="#DejaVuSans-35" x="222.65625"/>
      </g>
     </g>
    </g>
    <g id="ytick_2">
     <g id="line2d_4">
      <g>
       <use xlink:href="#m7c61c919ab" x="75.695" y="218.083958" style="stroke: #000000; stroke-width: 0.8"/>
      </g>
     </g>
     <g id="text_4">
      <!-- 0.050 -->
      <g transform="translate(40.066875 221.883177) scale(0.1 -0.1)">
       <use xlink:href="#DejaVuSans-30"/>
       <use xlink:href="#DejaVuSans-2e" x="63.623047"/>
       <use xlink:href="#DejaVuSans-30" x="95.410156"/>
       <use xlink:href="#DejaVuSans-35" x="159.033203"/>
       <use xlink:href="#DejaVuSans-30" x="222.65625"/>
      </g>
     </g>
    </g>
    <g id="ytick_3">
     <g id="line2d_5">
      <g>
       <use xlink:href="#m7c61c919ab" x="75.695" y="195.273891" style="stroke: #000000; stroke-width: 0.8"/>
      </g>
     </g>
     <g id="text_5">
      <!-- 0.075 -->
      <g transform="translate(40.066875 199.07311) scale(0.1 -0.1)">
       <defs>
        <path id="DejaVuSans-37" d="M 525 4666 
L 3525 4666 
L 3525 4397 
L 1831 0 
L 1172 0 
L 2766 4134 
L 525 4134 
L 525 4666 
z
" transform="scale(0.015625)"/>
       </defs>
       <use xlink:href="#DejaVuSans-30"/>
       <use xlink:href="#DejaVuSans-2e" x="63.623047"/>
       <use xlink:href="#DejaVuSans-30" x="95.410156"/>
       <use xlink:href="#DejaVuSans-37" x="159.033203"/>
       <use xlink:href="#DejaVuSans-35" x="222.65625"/>
      </g>
     </g>
    </g>
    <g id="ytick_4">
     <g id="line2d_6">
      <g>
       <use xlink:href="#m7c61c919ab" x="75.695" y="172.463823" style="stroke: #000000; stroke-width: 0.8"/>
      </g>
     </g>
     <g id="text_6">
      <!-- 0.100 -->
      <g transform="translate(40.066875 176.263042) scale(0.1 -0.1)">
       <defs>
        <path id="DejaVuSans-31" d="M 794 531 
L 1825 531 
L 1825 4091 
L 703 3866 
L 703 4441 
L 1819 4666 
L 2450 4666 
L 2450 531 
L 3481 531 
L 3481 0 
L 794 0 
L 794 531 
z
" transform="scale(0.015625)"/>
       </defs>
       <use xlink:href="#DejaVuSans-30"/>
       <use xlink:href="#DejaVuSans-2e" x="63.623047"/>
       <use xlink:href="#DejaVuSans-31" x="95.410156"/>
       <use xlink:href="#DejaVuSans-30" x="159.033203"/>
       <use xlink:href="#DejaVuSans-30" x="222.65625"/>
      </g>
     </g>
    </g>
    <g id="ytick_5">
     <g id="line2d_7">
      <g>
       <use xlink:href="#m7c61c919ab" x="75.695" y="149.653756" style="stroke: #000000; stroke-width: 0.8"/>
      </g>
     </g>
     <g id="text_7">
      <!-- 0.125 -->
      <g transform="translate(40.066875 153.452975) scale(0.1 -0.1)">
       <use xlink:href="#DejaVuSans-30"/>
       <use xlink:href="#DejaVuSans-2e" x="63.623047"/>
       <use xlink:href="#DejaVuSans-31" x="95.410156"/>
       <use xlink:href="#DejaVuSans-32" x="159.033203"/>
       <use xlink:href="#DejaVuSans-35" x="222.65625"/>
      </g>
     </g>
    </g>
    <g id="ytick_6">
     <g id="line2d_8">
      <g>
       <use xlink:href="#m7c61c919ab" x="75.695" y="126.843689" style="stroke: #000000; stroke-width: 0.8"/>
      </g>
     </g>
     <g id="text_8">
      <!-- 0.150 -->
      <g transform="translate(40.066875 130.642907) scale(0.1 -0.1)">
       <use xlink:href="#DejaVuSans-30"/>
       <use xlink:href="#DejaVuSans-2e" x="63.623047"/>
       <use xlink:href="#DejaVuSans-31" x="95.410156"/>
       <use xlink:href="#DejaVuSans-35" x="159.033203"/>
       <use xlink:href="#DejaVuSans-30" x="222.65625"/>
      </g>
     </g>
    </g>
    <g id="ytick_7">
     <g id="line2d_9">
      <g>
       <use xlink:href="#m7c61c919ab" x="75.695" y="104.033621" style="stroke: #000000; stroke-width: 0.8"/>
      </g>
     </g>
     <g id="text_9">
      <!-- 0.175 -->
      <g transform="translate(40.066875 107.83284) scale(0.1 -0.1)">
       <use xlink:href="#DejaVuSans-30"/>
       <use xlink:href="#DejaVuSans-2e" x="63.623047"/>
       <use xlink:href="#DejaVuSans-31" x="95.410156"/>
       <use xlink:href="#DejaVuSans-37" x="159.033203"/>
       <use xlink:href="#DejaVuSans-35" x="222.65625"/>
      </g>
     </g>
    </g>
    <g id="ytick_8">
     <g id="line2d_10">
      <g>
       <use xlink:href="#m7c61c919ab" x="75.695" y="81.223554" style="stroke: #000000; stroke-width: 0.8"/>
      </g>
     </g>
     <g id="text_10">
      <!-- 0.200 -->
      <g transform="translate(40.066875 85.022773) scale(0.1 -0.1)">
       <use xlink:href="#DejaVuSans-30"/>
       <use xlink:href="#DejaVuSans-2e" x="63.623047"/>
       <use xlink:href="#DejaVuSans-32" x="95.410156"/>
       <use xlink:href="#DejaVuSans-30" x="159.033203"/>
       <use xlink:href="#DejaVuSans-30" x="222.65625"/>
      </g>
     </g>
    </g>
    <g id="text_11">
     <!-- Efficiency Value -->
     <g transform="translate(33.987188 200.26125) rotate(-90) scale(0.1 -0.1)">
      <defs>
       <path id="DejaVuSans-45" d="M 628 4666 
L 3578 4666 
L 3578 4134 
L 1259 4134 
L 1259 2753 
L 3481 2753 
L 3481 2222 
L 1259 2222 
L 1259 531 
L 3634 531 
L 3634 0 
L 628 0 
L 628 4666 
z
" transform="scale(0.015625)"/>
       <path id="DejaVuSans-66" d="M 2375 4863 
L 2375 4384 
L 1825 4384 
Q 1516 4384 1395 4259 
Q 1275 4134 1275 3809 
L 1275 3500 
L 2222 3500 
L 2222 3053 
L 1275 3053 
L 1275 0 
L 697 0 
L 697 3053 
L 147 3053 
L 147 3500 
L 697 3500 
L 697 3744 
Q 697 4328 969 4595 
Q 1241 4863 1831 4863 
L 2375 4863 
z
" transform="scale(0.015625)"/>
       <path id="DejaVuSans-63" d="M 3122 3366 
L 3122 2828 
Q 2878 2963 2633 3030 
Q 2388 3097 2138 3097 
Q 1578 3097 1268 2742 
Q 959 2388 959 1747 
Q 959 1106 1268 751 
Q 1578 397 2138 397 
Q 2388 397 2633 464 
Q 2878 531 3122 666 
L 3122 134 
Q 2881 22 2623 -34 
Q 2366 -91 2075 -91 
Q 1284 -91 818 406 
Q 353 903 353 1747 
Q 353 2603 823 3093 
Q 1294 3584 2113 3584 
Q 2378 3584 2631 3529 
Q 2884 3475 3122 3366 
z
" transform="scale(0.015625)"/>
       <path id="DejaVuSans-65" d="M 3597 1894 
L 3597 1613 
L 953 1613 
Q 991 1019 1311 708 
Q 1631 397 2203 397 
Q 2534 397 2845 478 
Q 3156 559 3463 722 
L 3463 178 
Q 3153 47 2828 -22 
Q 2503 -91 2169 -91 
Q 1331 -91 842 396 
Q 353 884 353 1716 
Q 353 2575 817 3079 
Q 1281 3584 2069 3584 
Q 2775 3584 3186 3129 
Q 3597 2675 3597 1894 
z
M 3022 2063 
Q 3016 2534 2758 2815 
Q 2500 3097 2075 3097 
Q 1594 3097 1305 2825 
Q 1016 2553 972 2059 
L 3022 2063 
z
" transform="scale(0.015625)"/>
       <path id="DejaVuSans-79" d="M 2059 -325 
Q 1816 -950 1584 -1140 
Q 1353 -1331 966 -1331 
L 506 -1331 
L 506 -850 
L 844 -850 
Q 1081 -850 1212 -737 
Q 1344 -625 1503 -206 
L 1606 56 
L 191 3500 
L 800 3500 
L 1894 763 
L 2988 3500 
L 3597 3500 
L 2059 -325 
z
" transform="scale(0.015625)"/>
       <path id="DejaVuSans-20" transform="scale(0.015625)"/>
       <path id="DejaVuSans-56" d="M 1831 0 
L 50 4666 
L 709 4666 
L 2188 738 
L 3669 4666 
L 4325 4666 
L 2547 0 
L 1831 0 
z
" transform="scale(0.015625)"/>
       <path id="DejaVuSans-6c" d="M 603 4863 
L 1178 4863 
L 1178 0 
L 603 0 
L 603 4863 
z
" transform="scale(0.015625)"/>
       <path id="DejaVuSans-75" d="M 544 1381 
L 544 3500 
L 1119 3500 
L 1119 1403 
Q 1119 906 1312 657 
Q 1506 409 1894 409 
Q 2359 409 2629 706 
Q 2900 1003 2900 1516 
L 2900 3500 
L 3475 3500 
L 3475 0 
L 2900 0 
L 2900 538 
Q 2691 219 2414 64 
Q 2138 -91 1772 -91 
Q 1169 -91 856 284 
Q 544 659 544 1381 
z
M 1991 3584 
L 1991 3584 
z
" transform="scale(0.015625)"/>
      </defs>
      <use xlink:href="#DejaVuSans-45"/>
      <use xlink:href="#DejaVuSans-66" x="63.183594"/>
      <use xlink:href="#DejaVuSans-66" x="98.388672"/>
      <use xlink:href="#DejaVuSans-69" x="133.59375"/>
      <use xlink:href="#DejaVuSans-63" x="161.376953"/>
      <use xlink:href="#DejaVuSans-69" x="216.357422"/>
      <use xlink:href="#DejaVuSans-65" x="244.140625"/>
      <use xlink:href="#DejaVuSans-6e" x="305.664062"/>
      <use xlink:href="#DejaVuSans-63" x="369.042969"/>
      <use xlink:href="#DejaVuSans-79" x="424.023438"/>
      <use xlink:href="#DejaVuSans-20" x="483.203125"/>
      <use xlink:href="#DejaVuSans-56" x="514.990234"/>
      <use xlink:href="#DejaVuSans-61" x="575.648438"/>
      <use xlink:href="#DejaVuSans-6c" x="636.927734"/>
      <use xlink:href="#DejaVuSans-75" x="664.710938"/>
      <use xlink:href="#DejaVuSans-65" x="728.089844"/>
     </g>
    </g>
   </g>
   <g id="line2d_11">
    <path d="M 97.75468 165.343804 
L 176.21282 165.343804 
" clip-path="url(#pe1290ec72c)" style="fill: none; stroke-dasharray: 3.375,3.375; stroke-dashoffset: 0; stroke: #3f3f3f; stroke-width: 1.5"/>
   </g>
   <g id="line2d_12">
    <path d="M 89.126256 156.280165 
L 184.841244 156.280165 
" clip-path="url(#pe1290ec72c)" style="fill: none; stroke-dasharray: 6.75,6.75; stroke-dashoffset: 0; stroke: #3f3f3f; stroke-width: 1.5"/>
   </g>
   <g id="line2d_13">
    <path d="M 91.876596 147.870742 
L 182.090904 147.870742 
" clip-path="url(#pe1290ec72c)" style="fill: none; stroke-dasharray: 3.375,3.375; stroke-dashoffset: 0; stroke: #3f3f3f; stroke-width: 1.5"/>
   </g>
   <g id="line2d_14">
    <path d="M 226.547007 166.881726 
L 292.575493 166.881726 
" clip-path="url(#pe1290ec72c)" style="fill: none; stroke-dasharray: 3.375,3.375; stroke-dashoffset: 0; stroke: #3f3f3f; stroke-width: 1.5"/>
   </g>
   <g id="line2d_15">
    <path d="M 216.397302 156.421256 
L 302.725198 156.421256 
" clip-path="url(#pe1290ec72c)" style="fill: none; stroke-dasharray: 6.75,6.75; stroke-dashoffset: 0; stroke: #3f3f3f; stroke-width: 1.5"/>
   </g>
   <g id="line2d_16">
    <path d="M 216.969375 147.43814 
L 302.153125 147.43814 
" clip-path="url(#pe1290ec72c)" style="fill: none; stroke-dasharray: 3.375,3.375; stroke-dashoffset: 0; stroke: #3f3f3f; stroke-width: 1.5"/>
   </g>
   <g id="patch_3">
    <path d="M 75.695 252.92 
L 320.85 252.92 
" style="fill: none; stroke: #000000; stroke-width: 0.8; stroke-linejoin: miter; stroke-linecap: square"/>
   </g>
   <g id="text_12">
    <!-- Global Efficiency -->
    <g transform="translate(148.2325 62.64) scale(0.12 -0.12)">
     <defs>
      <path id="DejaVuSans-47" d="M 3809 666 
L 3809 1919 
L 2778 1919 
L 2778 2438 
L 4434 2438 
L 4434 434 
Q 4069 175 3628 42 
Q 3188 -91 2688 -91 
Q 1594 -91 976 548 
Q 359 1188 359 2328 
Q 359 3472 976 4111 
Q 1594 4750 2688 4750 
Q 3144 4750 3555 4637 
Q 3966 4525 4313 4306 
L 4313 3634 
Q 3963 3931 3569 4081 
Q 3175 4231 2741 4231 
Q 1884 4231 1454 3753 
Q 1025 3275 1025 2328 
Q 1025 1384 1454 906 
Q 1884 428 2741 428 
Q 3075 428 3337 486 
Q 3600 544 3809 666 
z
" transform="scale(0.015625)"/>
      <path id="DejaVuSans-6f" d="M 1959 3097 
Q 1497 3097 1228 2736 
Q 959 2375 959 1747 
Q 959 1119 1226 758 
Q 1494 397 1959 397 
Q 2419 397 2687 759 
Q 2956 1122 2956 1747 
Q 2956 2369 2687 2733 
Q 2419 3097 1959 3097 
z
M 1959 3584 
Q 2709 3584 3137 3096 
Q 3566 2609 3566 1747 
Q 3566 888 3137 398 
Q 2709 -91 1959 -91 
Q 1206 -91 779 398 
Q 353 888 353 1747 
Q 353 2609 779 3096 
Q 1206 3584 1959 3584 
z
" transform="scale(0.015625)"/>
     </defs>
     <use xlink:href="#DejaVuSans-47"/>
     <use xlink:href="#DejaVuSans-6c" x="77.490234"/>
     <use xlink:href="#DejaVuSans-6f" x="105.273438"/>
     <use xlink:href="#DejaVuSans-62" x="166.455078"/>
     <use xlink:href="#DejaVuSans-61" x="229.931641"/>
     <use xlink:href="#DejaVuSans-6c" x="291.210938"/>
     <use xlink:href="#DejaVuSans-20" x="318.994141"/>
     <use xlink:href="#DejaVuSans-45" x="350.78125"/>
     <use xlink:href="#DejaVuSans-66" x="413.964844"/>
     <use xlink:href="#DejaVuSans-66" x="449.169922"/>
     <use xlink:href="#DejaVuSans-69" x="484.375"/>
     <use xlink:href="#DejaVuSans-63" x="512.158203"/>
     <use xlink:href="#DejaVuSans-69" x="567.138672"/>
     <use xlink:href="#DejaVuSans-65" x="594.921875"/>
     <use xlink:href="#DejaVuSans-6e" x="656.445312"/>
     <use xlink:href="#DejaVuSans-63" x="719.824219"/>
     <use xlink:href="#DejaVuSans-79" x="774.804688"/>
    </g>
   </g>
  </g>
  <g id="axes_2">
   <g id="patch_4">
    <path d="M 335.15 252.92 
L 580.305 252.92 
L 580.305 68.64 
L 335.15 68.64 
z
" style="fill: #ffffff"/>
   </g>
   <g id="PolyCollection_3">
    <defs>
     <path id="maeebfc5c6c" d="M 397.157314 -32.254489 
L 395.720186 -32.254489 
L 395.576114 -33.946683 
L 395.395091 -35.638878 
L 395.161206 -37.331073 
L 394.855656 -39.023267 
L 394.458257 -40.715462 
L 393.949612 -42.407657 
L 393.313776 -44.099851 
L 392.541019 -45.792046 
L 391.630035 -47.484241 
L 390.5888 -49.176435 
L 389.433355 -50.86863 
L 388.184325 -52.560825 
L 386.86167 -54.253019 
L 385.479027 -55.945214 
L 384.039442 -57.637409 
L 382.534246 -59.329603 
L 380.945988 -61.021798 
L 379.255134 -62.713993 
L 377.448888 -64.406187 
L 375.529649 -66.098382 
L 373.520499 -67.790577 
L 371.46589 -69.482771 
L 369.427016 -71.174966 
L 367.472836 -72.867161 
L 365.668831 -74.559355 
L 364.066056 -76.25155 
L 362.692809 -77.943745 
L 361.55048 -79.63594 
L 360.614153 -81.328134 
L 359.837591 -83.020329 
L 359.161544 -84.712524 
L 358.523856 -86.404718 
L 357.869693 -88.096913 
L 357.160228 -89.789108 
L 356.37839 -91.481302 
L 355.530709 -93.173497 
L 354.644979 -94.865692 
L 353.76419 -96.557886 
L 352.937944 -98.250081 
L 352.213134 -99.942276 
L 351.625901 -101.63447 
L 351.196672 -103.326665 
L 350.929482 -105.01886 
L 350.8158 -106.711054 
L 350.841926 -108.403249 
L 350.998023 -110.095444 
L 351.286164 -111.787638 
L 351.724807 -113.479833 
L 352.347896 -115.172028 
L 353.198242 -116.864222 
L 354.316596 -118.556417 
L 355.729289 -120.248612 
L 357.4379 -121.940806 
L 359.413946 -123.633001 
L 361.600059 -125.325196 
L 363.917258 -127.01739 
L 366.276303 -128.709585 
L 368.590339 -130.40178 
L 370.786188 -132.093974 
L 372.812402 -133.786169 
L 374.643208 -135.478364 
L 376.278268 -137.170558 
L 377.738686 -138.862753 
L 379.060094 -140.554948 
L 380.283967 -142.247142 
L 381.448687 -143.939337 
L 382.582082 -145.631532 
L 383.697003 -147.323726 
L 384.790874 -149.015921 
L 385.849119 -150.708116 
L 386.851322 -152.40031 
L 387.778228 -154.092505 
L 388.617572 -155.7847 
L 389.367247 -157.476895 
L 390.035235 -159.169089 
L 390.636769 -160.861284 
L 391.18988 -162.553479 
L 391.710792 -164.245673 
L 392.21038 -165.937868 
L 392.692442 -167.630063 
L 393.153906 -169.322257 
L 393.586619 -171.014452 
L 393.980081 -172.706647 
L 394.324396 -174.398841 
L 394.612814 -176.091036 
L 394.843385 -177.783231 
L 395.019475 -179.475425 
L 395.149123 -181.16762 
L 395.24345 -182.859815 
L 395.314545 -184.552009 
L 395.37338 -186.244204 
L 395.428253 -187.936399 
L 395.484137 -189.628593 
L 395.542957 -191.320788 
L 395.604574 -193.012983 
L 395.668008 -194.705177 
L 395.732435 -196.397372 
L 395.797656 -198.089567 
L 395.863987 -199.781761 
L 397.013513 -199.781761 
L 397.013513 -199.781761 
L 397.079844 -198.089567 
L 397.145065 -196.397372 
L 397.209492 -194.705177 
L 397.272926 -193.012983 
L 397.334543 -191.320788 
L 397.393363 -189.628593 
L 397.449247 -187.936399 
L 397.50412 -186.244204 
L 397.562955 -184.552009 
L 397.63405 -182.859815 
L 397.728377 -181.16762 
L 397.858025 -179.475425 
L 398.034115 -177.783231 
L 398.264686 -176.091036 
L 398.553104 -174.398841 
L 398.897419 -172.706647 
L 399.290881 -171.014452 
L 399.723594 -169.322257 
L 400.185058 -167.630063 
L 400.66712 -165.937868 
L 401.166708 -164.245673 
L 401.68762 -162.553479 
L 402.240731 -160.861284 
L 402.842265 -159.169089 
L 403.510253 -157.476895 
L 404.259928 -155.7847 
L 405.099272 -154.092505 
L 406.026178 -152.40031 
L 407.028381 -150.708116 
L 408.086626 -149.015921 
L 409.180497 -147.323726 
L 410.295418 -145.631532 
L 411.428813 -143.939337 
L 412.593533 -142.247142 
L 413.817406 -140.554948 
L 415.138814 -138.862753 
L 416.599232 -137.170558 
L 418.234292 -135.478364 
L 420.065098 -133.786169 
L 422.091312 -132.093974 
L 424.287161 -130.40178 
L 426.601197 -128.709585 
L 428.960242 -127.01739 
L 431.277441 -125.325196 
L 433.463554 -123.633001 
L 435.4396 -121.940806 
L 437.148211 -120.248612 
L 438.560904 -118.556417 
L 439.679258 -116.864222 
L 440.529604 -115.172028 
L 441.152693 -113.479833 
L 441.591336 -111.787638 
L 441.879477 -110.095444 
L 442.035574 -108.403249 
L 442.0617 -106.711054 
L 441.948018 -105.01886 
L 441.680828 -103.326665 
L 441.251599 -101.63447 
L 440.664366 -99.942276 
L 439.939556 -98.250081 
L 439.11331 -96.557886 
L 438.232521 -94.865692 
L 437.346791 -93.173497 
L 436.49911 -91.481302 
L 435.717272 -89.789108 
L 435.007807 -88.096913 
L 434.353644 -86.404718 
L 433.715956 -84.712524 
L 433.039909 -83.020329 
L 432.263347 -81.328134 
L 431.32702 -79.63594 
L 430.184691 -77.943745 
L 428.811444 -76.25155 
L 427.208669 -74.559355 
L 425.404664 -72.867161 
L 423.450484 -71.174966 
L 421.41161 -69.482771 
L 419.357001 -67.790577 
L 417.347851 -66.098382 
L 415.428612 -64.406187 
L 413.622366 -62.713993 
L 411.931512 -61.021798 
L 410.343254 -59.329603 
L 408.838058 -57.637409 
L 407.398473 -55.945214 
L 406.01583 -54.253019 
L 404.693175 -52.560825 
L 403.444145 -50.86863 
L 402.2887 -49.176435 
L 401.247465 -47.484241 
L 400.336481 -45.792046 
L 399.563724 -44.099851 
L 398.927888 -42.407657 
L 398.419243 -40.715462 
L 398.021844 -39.023267 
L 397.716294 -37.331073 
L 397.482409 -35.638878 
L 397.301386 -33.946683 
L 397.157314 -32.254489 
z
" style="stroke: #3f3f3f; stroke-width: 1.5"/>
    </defs>
    <g clip-path="url(#p3724bc8941)">
     <use xlink:href="#maeebfc5c6c" x="0" y="276.798125" style="fill: #3274a1; stroke: #3f3f3f; stroke-width: 1.5"/>
    </g>
   </g>
   <g id="PolyCollection_4">
    <defs>
     <path id="m9c7dffbf70" d="M 520.431561 -42.041094 
L 517.600939 -42.041094 
L 517.345966 -43.563264 
L 517.042726 -45.085435 
L 516.675935 -46.607606 
L 516.229577 -48.129776 
L 515.689273 -49.651947 
L 515.044758 -51.174117 
L 514.291928 -52.696288 
L 513.433922 -54.218459 
L 512.48088 -55.740629 
L 511.4483 -57.2628 
L 510.354168 -58.784971 
L 509.215326 -60.307141 
L 508.04368 -61.829312 
L 506.842907 -63.351482 
L 505.60628 -64.873653 
L 504.31615 -66.395824 
L 502.945424 -67.917994 
L 501.461162 -69.440165 
L 499.830117 -70.962335 
L 498.025602 -72.484506 
L 496.03468 -74.006677 
L 493.864296 -75.528847 
L 491.54486 -77.051018 
L 489.130046 -78.573189 
L 486.692189 -80.095359 
L 484.313625 -81.61753 
L 482.075366 -83.1397 
L 480.045309 -84.661871 
L 478.268511 -86.184042 
L 476.761726 -87.706212 
L 475.513438 -89.228383 
L 474.489324 -90.750554 
L 473.641741 -92.272724 
L 472.920917 -93.794895 
L 472.285294 -95.317065 
L 471.708867 -96.839236 
L 471.184371 -98.361407 
L 470.722312 -99.883577 
L 470.346829 -101.405748 
L 470.089877 -102.927918 
L 469.98525 -104.450089 
L 470.063482 -105.97226 
L 470.348107 -107.49443 
L 470.853192 -109.016601 
L 471.58186 -110.538772 
L 472.525548 -112.060942 
L 473.664012 -113.583113 
L 474.966294 -115.105283 
L 476.392916 -116.627454 
L 477.899361 -118.149625 
L 479.440495 -119.671795 
L 480.975263 -121.193966 
L 482.470736 -122.716137 
L 483.904734 -124.238307 
L 485.266555 -125.760478 
L 486.55586 -127.282648 
L 487.780208 -128.804819 
L 488.95202 -130.32699 
L 490.085802 -131.84916 
L 491.196235 -133.371331 
L 492.2974 -134.893501 
L 493.403002 -136.415672 
L 494.527085 -137.937843 
L 495.684588 -139.460013 
L 496.89107 -140.982184 
L 498.161233 -142.504355 
L 499.506271 -144.026525 
L 500.93054 -145.548696 
L 502.428418 -147.070866 
L 503.982331 -148.593037 
L 505.56272 -150.115208 
L 507.13029 -151.637378 
L 508.640254 -153.159549 
L 510.047817 -154.68172 
L 511.313792 -156.20389 
L 512.409284 -157.726061 
L 513.318656 -159.248231 
L 514.040427 -160.770402 
L 514.586226 -162.292573 
L 514.978249 -163.814743 
L 515.245837 -165.336914 
L 515.421794 -166.859084 
L 515.538903 -168.381255 
L 515.626995 -169.903426 
L 515.710744 -171.425596 
L 515.80827 -172.947767 
L 515.930592 -174.469938 
L 516.081883 -175.992108 
L 516.260439 -177.514279 
L 516.460194 -179.036449 
L 516.672543 -180.55862 
L 516.888194 -182.080791 
L 517.098776 -183.602961 
L 517.297981 -185.125132 
L 517.48213 -186.647303 
L 517.650142 -188.169473 
L 517.803025 -189.691644 
L 517.943069 -191.213814 
L 518.07295 -192.735985 
L 519.95955 -192.735985 
L 519.95955 -192.735985 
L 520.089431 -191.213814 
L 520.229475 -189.691644 
L 520.382358 -188.169473 
L 520.55037 -186.647303 
L 520.734519 -185.125132 
L 520.933724 -183.602961 
L 521.144306 -182.080791 
L 521.359957 -180.55862 
L 521.572306 -179.036449 
L 521.772061 -177.514279 
L 521.950617 -175.992108 
L 522.101908 -174.469938 
L 522.22423 -172.947767 
L 522.321756 -171.425596 
L 522.405505 -169.903426 
L 522.493597 -168.381255 
L 522.610706 -166.859084 
L 522.786663 -165.336914 
L 523.054251 -163.814743 
L 523.446274 -162.292573 
L 523.992073 -160.770402 
L 524.713844 -159.248231 
L 525.623216 -157.726061 
L 526.718708 -156.20389 
L 527.984683 -154.68172 
L 529.392246 -153.159549 
L 530.90221 -151.637378 
L 532.46978 -150.115208 
L 534.050169 -148.593037 
L 535.604082 -147.070866 
L 537.10196 -145.548696 
L 538.526229 -144.026525 
L 539.871267 -142.504355 
L 541.14143 -140.982184 
L 542.347912 -139.460013 
L 543.505415 -137.937843 
L 544.629498 -136.415672 
L 545.7351 -134.893501 
L 546.836265 -133.371331 
L 547.946698 -131.84916 
L 549.08048 -130.32699 
L 550.252292 -128.804819 
L 551.47664 -127.282648 
L 552.765945 -125.760478 
L 554.127766 -124.238307 
L 555.561764 -122.716137 
L 557.057237 -121.193966 
L 558.592005 -119.671795 
L 560.133139 -118.149625 
L 561.639584 -116.627454 
L 563.066206 -115.105283 
L 564.368488 -113.583113 
L 565.506952 -112.060942 
L 566.45064 -110.538772 
L 567.179308 -109.016601 
L 567.684393 -107.49443 
L 567.969018 -105.97226 
L 568.04725 -104.450089 
L 567.942623 -102.927918 
L 567.685671 -101.405748 
L 567.310188 -99.883577 
L 566.848129 -98.361407 
L 566.323633 -96.839236 
L 565.747206 -95.317065 
L 565.111583 -93.794895 
L 564.390759 -92.272724 
L 563.543176 -90.750554 
L 562.519062 -89.228383 
L 561.270774 -87.706212 
L 559.763989 -86.184042 
L 557.987191 -84.661871 
L 555.957134 -83.1397 
L 553.718875 -81.61753 
L 551.340311 -80.095359 
L 548.902454 -78.573189 
L 546.48764 -77.051018 
L 544.168204 -75.528847 
L 541.99782 -74.006677 
L 540.006898 -72.484506 
L 538.202383 -70.962335 
L 536.571338 -69.440165 
L 535.087076 -67.917994 
L 533.71635 -66.395824 
L 532.42622 -64.873653 
L 531.189593 -63.351482 
L 529.98882 -61.829312 
L 528.817174 -60.307141 
L 527.678332 -58.784971 
L 526.5842 -57.2628 
L 525.55162 -55.740629 
L 524.598578 -54.218459 
L 523.740572 -52.696288 
L 522.987742 -51.174117 
L 522.343227 -49.651947 
L 521.802923 -48.129776 
L 521.356565 -46.607606 
L 520.989774 -45.085435 
L 520.686534 -43.563264 
L 520.431561 -42.041094 
z
" style="stroke: #3f3f3f; stroke-width: 1.5"/>
    </defs>
    <g clip-path="url(#p3724bc8941)">
     <use xlink:href="#m9c7dffbf70" x="0" y="276.798125" style="fill: #e1812c; stroke: #3f3f3f; stroke-width: 1.5"/>
    </g>
   </g>
   <g id="matplotlib.axis_3">
    <g id="xtick_3">
     <g id="line2d_17">
      <g>
       <use xlink:href="#m0847c25781" x="396.43875" y="252.92" style="stroke: #000000; stroke-width: 0.8"/>
      </g>
     </g>
     <g id="text_13">
      <!-- HC -->
      <g transform="translate(389.187188 267.518437) scale(0.1 -0.1)">
       <use xlink:href="#DejaVuSans-48"/>
       <use xlink:href="#DejaVuSans-43" x="75.195312"/>
      </g>
     </g>
    </g>
    <g id="xtick_4">
     <g id="line2d_18">
      <g>
       <use xlink:href="#m0847c25781" x="519.01625" y="252.92" style="stroke: #000000; stroke-width: 0.8"/>
      </g>
     </g>
     <g id="text_14">
      <!-- Cannabis -->
      <g transform="translate(495.89125 267.518437) scale(0.1 -0.1)">
       <use xlink:href="#DejaVuSans-43"/>
       <use xlink:href="#DejaVuSans-61" x="69.824219"/>
       <use xlink:href="#DejaVuSans-6e" x="131.103516"/>
       <use xlink:href="#DejaVuSans-6e" x="194.482422"/>
       <use xlink:href="#DejaVuSans-61" x="257.861328"/>
       <use xlink:href="#DejaVuSans-62" x="319.140625"/>
       <use xlink:href="#DejaVuSans-69" x="382.617188"/>
       <use xlink:href="#DejaVuSans-73" x="410.400391"/>
      </g>
     </g>
    </g>
   </g>
   <g id="matplotlib.axis_4">
    <g id="ytick_9">
     <g id="line2d_19">
      <g>
       <use xlink:href="#m7c61c919ab" x="335.15" y="240.894026" style="stroke: #000000; stroke-width: 0.8"/>
      </g>
     </g>
    </g>
    <g id="ytick_10">
     <g id="line2d_20">
      <g>
       <use xlink:href="#m7c61c919ab" x="335.15" y="218.083958" style="stroke: #000000; stroke-width: 0.8"/>
      </g>
     </g>
    </g>
    <g id="ytick_11">
     <g id="line2d_21">
      <g>
       <use xlink:href="#m7c61c919ab" x="335.15" y="195.273891" style="stroke: #000000; stroke-width: 0.8"/>
      </g>
     </g>
    </g>
    <g id="ytick_12">
     <g id="line2d_22">
      <g>
       <use xlink:href="#m7c61c919ab" x="335.15" y="172.463823" style="stroke: #000000; stroke-width: 0.8"/>
      </g>
     </g>
    </g>
    <g id="ytick_13">
     <g id="line2d_23">
      <g>
       <use xlink:href="#m7c61c919ab" x="335.15" y="149.653756" style="stroke: #000000; stroke-width: 0.8"/>
      </g>
     </g>
    </g>
    <g id="ytick_14">
     <g id="line2d_24">
      <g>
       <use xlink:href="#m7c61c919ab" x="335.15" y="126.843689" style="stroke: #000000; stroke-width: 0.8"/>
      </g>
     </g>
    </g>
    <g id="ytick_15">
     <g id="line2d_25">
      <g>
       <use xlink:href="#m7c61c919ab" x="335.15" y="104.033621" style="stroke: #000000; stroke-width: 0.8"/>
      </g>
     </g>
    </g>
    <g id="ytick_16">
     <g id="line2d_26">
      <g>
       <use xlink:href="#m7c61c919ab" x="335.15" y="81.223554" style="stroke: #000000; stroke-width: 0.8"/>
      </g>
     </g>
    </g>
   </g>
   <g id="line2d_27">
    <path d="M 360.203602 192.974781 
L 432.673898 192.974781 
" clip-path="url(#p3724bc8941)" style="fill: none; stroke-dasharray: 3.375,3.375; stroke-dashoffset: 0; stroke: #3f3f3f; stroke-width: 1.5"/>
   </g>
   <g id="line2d_28">
    <path d="M 351.649092 173.607454 
L 441.228408 173.607454 
" clip-path="url(#p3724bc8941)" style="fill: none; stroke-dasharray: 6.75,6.75; stroke-dashoffset: 0; stroke: #3f3f3f; stroke-width: 1.5"/>
   </g>
   <g id="line2d_29">
    <path d="M 357.827908 155.678209 
L 435.049592 155.678209 
" clip-path="url(#p3724bc8941)" style="fill: none; stroke-dasharray: 3.375,3.375; stroke-dashoffset: 0; stroke: #3f3f3f; stroke-width: 1.5"/>
   </g>
   <g id="line2d_30">
    <path d="M 477.184271 188.460137 
L 560.848229 188.460137 
" clip-path="url(#p3724bc8941)" style="fill: none; stroke-dasharray: 3.375,3.375; stroke-dashoffset: 0; stroke: #3f3f3f; stroke-width: 1.5"/>
   </g>
   <g id="line2d_31">
    <path d="M 470.55301 170.910566 
L 567.47949 170.910566 
" clip-path="url(#p3724bc8941)" style="fill: none; stroke-dasharray: 6.75,6.75; stroke-dashoffset: 0; stroke: #3f3f3f; stroke-width: 1.5"/>
   </g>
   <g id="line2d_32">
    <path d="M 484.255849 152.734624 
L 553.776651 152.734624 
" clip-path="url(#p3724bc8941)" style="fill: none; stroke-dasharray: 3.375,3.375; stroke-dashoffset: 0; stroke: #3f3f3f; stroke-width: 1.5"/>
   </g>
   <g id="patch_5">
    <path d="M 335.15 252.92 
L 580.305 252.92 
" style="fill: none; stroke: #000000; stroke-width: 0.8; stroke-linejoin: miter; stroke-linecap: square"/>
   </g>
   <g id="text_15">
    <!-- Local Efficiency -->
    <g transform="translate(411.275313 62.64) scale(0.12 -0.12)">
     <defs>
      <path id="DejaVuSans-4c" d="M 628 4666 
L 1259 4666 
L 1259 531 
L 3531 531 
L 3531 0 
L 628 0 
L 628 4666 
z
" transform="scale(0.015625)"/>
     </defs>
     <use xlink:href="#DejaVuSans-4c"/>
     <use xlink:href="#DejaVuSans-6f" x="53.962891"/>
     <use xlink:href="#DejaVuSans-63" x="115.144531"/>
     <use xlink:href="#DejaVuSans-61" x="170.125"/>
     <use xlink:href="#DejaVuSans-6c" x="231.404297"/>
     <use xlink:href="#DejaVuSans-20" x="259.1875"/>
     <use xlink:href="#DejaVuSans-45" x="290.974609"/>
     <use xlink:href="#DejaVuSans-66" x="354.158203"/>
     <use xlink:href="#DejaVuSans-66" x="389.363281"/>
     <use xlink:href="#DejaVuSans-69" x="424.568359"/>
     <use xlink:href="#DejaVuSans-63" x="452.351562"/>
     <use xlink:href="#DejaVuSans-69" x="507.332031"/>
     <use xlink:href="#DejaVuSans-65" x="535.115234"/>
     <use xlink:href="#DejaVuSans-6e" x="596.638672"/>
     <use xlink:href="#DejaVuSans-63" x="660.017578"/>
     <use xlink:href="#DejaVuSans-79" x="714.998047"/>
    </g>
   </g>
  </g>
  <g id="text_16">
   <!-- Model: OVR_L2_logistic, Group: Cannabis -  Efficiency Comparison -->
   <g transform="translate(7.2 19.3575) scale(0.16 -0.16)">
    <defs>
     <path id="DejaVuSans-Bold-4d" d="M 588 4666 
L 2119 4666 
L 3181 2169 
L 4250 4666 
L 5778 4666 
L 5778 0 
L 4641 0 
L 4641 3413 
L 3566 897 
L 2803 897 
L 1728 3413 
L 1728 0 
L 588 0 
L 588 4666 
z
" transform="scale(0.015625)"/>
     <path id="DejaVuSans-Bold-6f" d="M 2203 2784 
Q 1831 2784 1636 2517 
Q 1441 2250 1441 1747 
Q 1441 1244 1636 976 
Q 1831 709 2203 709 
Q 2569 709 2762 976 
Q 2956 1244 2956 1747 
Q 2956 2250 2762 2517 
Q 2569 2784 2203 2784 
z
M 2203 3584 
Q 3106 3584 3614 3096 
Q 4122 2609 4122 1747 
Q 4122 884 3614 396 
Q 3106 -91 2203 -91 
Q 1297 -91 786 396 
Q 275 884 275 1747 
Q 275 2609 786 3096 
Q 1297 3584 2203 3584 
z
" transform="scale(0.015625)"/>
     <path id="DejaVuSans-Bold-64" d="M 2919 2988 
L 2919 4863 
L 4044 4863 
L 4044 0 
L 2919 0 
L 2919 506 
Q 2688 197 2409 53 
Q 2131 -91 1766 -91 
Q 1119 -91 703 423 
Q 288 938 288 1747 
Q 288 2556 703 3070 
Q 1119 3584 1766 3584 
Q 2128 3584 2408 3439 
Q 2688 3294 2919 2988 
z
M 2181 722 
Q 2541 722 2730 984 
Q 2919 1247 2919 1747 
Q 2919 2247 2730 2509 
Q 2541 2772 2181 2772 
Q 1825 2772 1636 2509 
Q 1447 2247 1447 1747 
Q 1447 1247 1636 984 
Q 1825 722 2181 722 
z
" transform="scale(0.015625)"/>
     <path id="DejaVuSans-Bold-65" d="M 4031 1759 
L 4031 1441 
L 1416 1441 
Q 1456 1047 1700 850 
Q 1944 653 2381 653 
Q 2734 653 3104 758 
Q 3475 863 3866 1075 
L 3866 213 
Q 3469 63 3072 -14 
Q 2675 -91 2278 -91 
Q 1328 -91 801 392 
Q 275 875 275 1747 
Q 275 2603 792 3093 
Q 1309 3584 2216 3584 
Q 3041 3584 3536 3087 
Q 4031 2591 4031 1759 
z
M 2881 2131 
Q 2881 2450 2695 2645 
Q 2509 2841 2209 2841 
Q 1884 2841 1681 2658 
Q 1478 2475 1428 2131 
L 2881 2131 
z
" transform="scale(0.015625)"/>
     <path id="DejaVuSans-Bold-6c" d="M 538 4863 
L 1656 4863 
L 1656 0 
L 538 0 
L 538 4863 
z
" transform="scale(0.015625)"/>
     <path id="DejaVuSans-Bold-3a" d="M 716 3500 
L 1844 3500 
L 1844 2291 
L 716 2291 
L 716 3500 
z
M 716 1209 
L 1844 1209 
L 1844 0 
L 716 0 
L 716 1209 
z
" transform="scale(0.015625)"/>
     <path id="DejaVuSans-Bold-20" transform="scale(0.015625)"/>
     <path id="DejaVuSans-Bold-4f" d="M 2719 3878 
Q 2169 3878 1866 3472 
Q 1563 3066 1563 2328 
Q 1563 1594 1866 1187 
Q 2169 781 2719 781 
Q 3272 781 3575 1187 
Q 3878 1594 3878 2328 
Q 3878 3066 3575 3472 
Q 3272 3878 2719 3878 
z
M 2719 4750 
Q 3844 4750 4481 4106 
Q 5119 3463 5119 2328 
Q 5119 1197 4481 553 
Q 3844 -91 2719 -91 
Q 1597 -91 958 553 
Q 319 1197 319 2328 
Q 319 3463 958 4106 
Q 1597 4750 2719 4750 
z
" transform="scale(0.015625)"/>
     <path id="DejaVuSans-Bold-56" d="M 31 4666 
L 1241 4666 
L 2478 1222 
L 3713 4666 
L 4922 4666 
L 3194 0 
L 1759 0 
L 31 4666 
z
" transform="scale(0.015625)"/>
     <path id="DejaVuSans-Bold-52" d="M 2297 2597 
Q 2675 2597 2839 2737 
Q 3003 2878 3003 3200 
Q 3003 3519 2839 3656 
Q 2675 3794 2297 3794 
L 1791 3794 
L 1791 2597 
L 2297 2597 
z
M 1791 1766 
L 1791 0 
L 588 0 
L 588 4666 
L 2425 4666 
Q 3347 4666 3776 4356 
Q 4206 4047 4206 3378 
Q 4206 2916 3982 2619 
Q 3759 2322 3309 2181 
Q 3556 2125 3751 1926 
Q 3947 1728 4147 1325 
L 4800 0 
L 3519 0 
L 2950 1159 
Q 2778 1509 2601 1637 
Q 2425 1766 2131 1766 
L 1791 1766 
z
" transform="scale(0.015625)"/>
     <path id="DejaVuSans-Bold-5f" d="M 3200 -916 
L 3200 -1509 
L 0 -1509 
L 0 -916 
L 3200 -916 
z
" transform="scale(0.015625)"/>
     <path id="DejaVuSans-Bold-4c" d="M 588 4666 
L 1791 4666 
L 1791 909 
L 3903 909 
L 3903 0 
L 588 0 
L 588 4666 
z
" transform="scale(0.015625)"/>
     <path id="DejaVuSans-Bold-32" d="M 1844 884 
L 3897 884 
L 3897 0 
L 506 0 
L 506 884 
L 2209 2388 
Q 2438 2594 2547 2791 
Q 2656 2988 2656 3200 
Q 2656 3528 2436 3728 
Q 2216 3928 1850 3928 
Q 1569 3928 1234 3808 
Q 900 3688 519 3450 
L 519 4475 
Q 925 4609 1322 4679 
Q 1719 4750 2100 4750 
Q 2938 4750 3402 4381 
Q 3866 4013 3866 3353 
Q 3866 2972 3669 2642 
Q 3472 2313 2841 1759 
L 1844 884 
z
" transform="scale(0.015625)"/>
     <path id="DejaVuSans-Bold-67" d="M 2919 594 
Q 2688 288 2409 144 
Q 2131 0 1766 0 
Q 1125 0 706 504 
Q 288 1009 288 1791 
Q 288 2575 706 3076 
Q 1125 3578 1766 3578 
Q 2131 3578 2409 3434 
Q 2688 3291 2919 2981 
L 2919 3500 
L 4044 3500 
L 4044 353 
Q 4044 -491 3511 -936 
Q 2978 -1381 1966 -1381 
Q 1638 -1381 1331 -1331 
Q 1025 -1281 716 -1178 
L 716 -306 
Q 1009 -475 1290 -558 
Q 1572 -641 1856 -641 
Q 2406 -641 2662 -400 
Q 2919 -159 2919 353 
L 2919 594 
z
M 2181 2772 
Q 1834 2772 1640 2515 
Q 1447 2259 1447 1791 
Q 1447 1309 1634 1061 
Q 1822 813 2181 813 
Q 2531 813 2725 1069 
Q 2919 1325 2919 1791 
Q 2919 2259 2725 2515 
Q 2531 2772 2181 2772 
z
" transform="scale(0.015625)"/>
     <path id="DejaVuSans-Bold-69" d="M 538 3500 
L 1656 3500 
L 1656 0 
L 538 0 
L 538 3500 
z
M 538 4863 
L 1656 4863 
L 1656 3950 
L 538 3950 
L 538 4863 
z
" transform="scale(0.015625)"/>
     <path id="DejaVuSans-Bold-73" d="M 3272 3391 
L 3272 2541 
Q 2913 2691 2578 2766 
Q 2244 2841 1947 2841 
Q 1628 2841 1473 2761 
Q 1319 2681 1319 2516 
Q 1319 2381 1436 2309 
Q 1553 2238 1856 2203 
L 2053 2175 
Q 2913 2066 3209 1816 
Q 3506 1566 3506 1031 
Q 3506 472 3093 190 
Q 2681 -91 1863 -91 
Q 1516 -91 1145 -36 
Q 775 19 384 128 
L 384 978 
Q 719 816 1070 734 
Q 1422 653 1784 653 
Q 2113 653 2278 743 
Q 2444 834 2444 1013 
Q 2444 1163 2330 1236 
Q 2216 1309 1875 1350 
L 1678 1375 
Q 931 1469 631 1722 
Q 331 1975 331 2491 
Q 331 3047 712 3315 
Q 1094 3584 1881 3584 
Q 2191 3584 2531 3537 
Q 2872 3491 3272 3391 
z
" transform="scale(0.015625)"/>
     <path id="DejaVuSans-Bold-74" d="M 1759 4494 
L 1759 3500 
L 2913 3500 
L 2913 2700 
L 1759 2700 
L 1759 1216 
Q 1759 972 1856 886 
Q 1953 800 2241 800 
L 2816 800 
L 2816 0 
L 1856 0 
Q 1194 0 917 276 
Q 641 553 641 1216 
L 641 2700 
L 84 2700 
L 84 3500 
L 641 3500 
L 641 4494 
L 1759 4494 
z
" transform="scale(0.015625)"/>
     <path id="DejaVuSans-Bold-63" d="M 3366 3391 
L 3366 2478 
Q 3138 2634 2908 2709 
Q 2678 2784 2431 2784 
Q 1963 2784 1702 2511 
Q 1441 2238 1441 1747 
Q 1441 1256 1702 982 
Q 1963 709 2431 709 
Q 2694 709 2930 787 
Q 3166 866 3366 1019 
L 3366 103 
Q 3103 6 2833 -42 
Q 2563 -91 2291 -91 
Q 1344 -91 809 395 
Q 275 881 275 1747 
Q 275 2613 809 3098 
Q 1344 3584 2291 3584 
Q 2566 3584 2833 3536 
Q 3100 3488 3366 3391 
z
" transform="scale(0.015625)"/>
     <path id="DejaVuSans-Bold-2c" d="M 653 1209 
L 1778 1209 
L 1778 256 
L 1006 -909 
L 341 -909 
L 653 256 
L 653 1209 
z
" transform="scale(0.015625)"/>
     <path id="DejaVuSans-Bold-47" d="M 4781 347 
Q 4331 128 3847 18 
Q 3363 -91 2847 -91 
Q 1681 -91 1000 561 
Q 319 1213 319 2328 
Q 319 3456 1012 4103 
Q 1706 4750 2913 4750 
Q 3378 4750 3804 4662 
Q 4231 4575 4609 4403 
L 4609 3438 
Q 4219 3659 3833 3768 
Q 3447 3878 3059 3878 
Q 2341 3878 1952 3476 
Q 1563 3075 1563 2328 
Q 1563 1588 1938 1184 
Q 2313 781 3003 781 
Q 3191 781 3352 804 
Q 3513 828 3641 878 
L 3641 1784 
L 2906 1784 
L 2906 2591 
L 4781 2591 
L 4781 347 
z
" transform="scale(0.015625)"/>
     <path id="DejaVuSans-Bold-72" d="M 3138 2547 
Q 2991 2616 2845 2648 
Q 2700 2681 2553 2681 
Q 2122 2681 1889 2404 
Q 1656 2128 1656 1613 
L 1656 0 
L 538 0 
L 538 3500 
L 1656 3500 
L 1656 2925 
Q 1872 3269 2151 3426 
Q 2431 3584 2822 3584 
Q 2878 3584 2943 3579 
Q 3009 3575 3134 3559 
L 3138 2547 
z
" transform="scale(0.015625)"/>
     <path id="DejaVuSans-Bold-75" d="M 500 1363 
L 500 3500 
L 1625 3500 
L 1625 3150 
Q 1625 2866 1622 2436 
Q 1619 2006 1619 1863 
Q 1619 1441 1641 1255 
Q 1663 1069 1716 984 
Q 1784 875 1895 815 
Q 2006 756 2150 756 
Q 2500 756 2700 1025 
Q 2900 1294 2900 1772 
L 2900 3500 
L 4019 3500 
L 4019 0 
L 2900 0 
L 2900 506 
Q 2647 200 2364 54 
Q 2081 -91 1741 -91 
Q 1134 -91 817 281 
Q 500 653 500 1363 
z
" transform="scale(0.015625)"/>
     <path id="DejaVuSans-Bold-70" d="M 1656 506 
L 1656 -1331 
L 538 -1331 
L 538 3500 
L 1656 3500 
L 1656 2988 
Q 1888 3294 2169 3439 
Q 2450 3584 2816 3584 
Q 3463 3584 3878 3070 
Q 4294 2556 4294 1747 
Q 4294 938 3878 423 
Q 3463 -91 2816 -91 
Q 2450 -91 2169 54 
Q 1888 200 1656 506 
z
M 2400 2772 
Q 2041 2772 1848 2508 
Q 1656 2244 1656 1747 
Q 1656 1250 1848 986 
Q 2041 722 2400 722 
Q 2759 722 2948 984 
Q 3138 1247 3138 1747 
Q 3138 2247 2948 2509 
Q 2759 2772 2400 2772 
z
" transform="scale(0.015625)"/>
     <path id="DejaVuSans-Bold-43" d="M 4288 256 
Q 3956 84 3597 -3 
Q 3238 -91 2847 -91 
Q 1681 -91 1000 561 
Q 319 1213 319 2328 
Q 319 3447 1000 4098 
Q 1681 4750 2847 4750 
Q 3238 4750 3597 4662 
Q 3956 4575 4288 4403 
L 4288 3438 
Q 3953 3666 3628 3772 
Q 3303 3878 2944 3878 
Q 2300 3878 1931 3465 
Q 1563 3053 1563 2328 
Q 1563 1606 1931 1193 
Q 2300 781 2944 781 
Q 3303 781 3628 887 
Q 3953 994 4288 1222 
L 4288 256 
z
" transform="scale(0.015625)"/>
     <path id="DejaVuSans-Bold-61" d="M 2106 1575 
Q 1756 1575 1579 1456 
Q 1403 1338 1403 1106 
Q 1403 894 1545 773 
Q 1688 653 1941 653 
Q 2256 653 2472 879 
Q 2688 1106 2688 1447 
L 2688 1575 
L 2106 1575 
z
M 3816 1997 
L 3816 0 
L 2688 0 
L 2688 519 
Q 2463 200 2181 54 
Q 1900 -91 1497 -91 
Q 953 -91 614 226 
Q 275 544 275 1050 
Q 275 1666 698 1953 
Q 1122 2241 2028 2241 
L 2688 2241 
L 2688 2328 
Q 2688 2594 2478 2717 
Q 2269 2841 1825 2841 
Q 1466 2841 1156 2769 
Q 847 2697 581 2553 
L 581 3406 
Q 941 3494 1303 3539 
Q 1666 3584 2028 3584 
Q 2975 3584 3395 3211 
Q 3816 2838 3816 1997 
z
" transform="scale(0.015625)"/>
     <path id="DejaVuSans-Bold-6e" d="M 4056 2131 
L 4056 0 
L 2931 0 
L 2931 347 
L 2931 1631 
Q 2931 2084 2911 2256 
Q 2891 2428 2841 2509 
Q 2775 2619 2662 2680 
Q 2550 2741 2406 2741 
Q 2056 2741 1856 2470 
Q 1656 2200 1656 1722 
L 1656 0 
L 538 0 
L 538 3500 
L 1656 3500 
L 1656 2988 
Q 1909 3294 2193 3439 
Q 2478 3584 2822 3584 
Q 3428 3584 3742 3212 
Q 4056 2841 4056 2131 
z
" transform="scale(0.015625)"/>
     <path id="DejaVuSans-Bold-62" d="M 2400 722 
Q 2759 722 2948 984 
Q 3138 1247 3138 1747 
Q 3138 2247 2948 2509 
Q 2759 2772 2400 2772 
Q 2041 2772 1848 2508 
Q 1656 2244 1656 1747 
Q 1656 1250 1848 986 
Q 2041 722 2400 722 
z
M 1656 2988 
Q 1888 3294 2169 3439 
Q 2450 3584 2816 3584 
Q 3463 3584 3878 3070 
Q 4294 2556 4294 1747 
Q 4294 938 3878 423 
Q 3463 -91 2816 -91 
Q 2450 -91 2169 54 
Q 1888 200 1656 506 
L 1656 0 
L 538 0 
L 538 4863 
L 1656 4863 
L 1656 2988 
z
" transform="scale(0.015625)"/>
     <path id="DejaVuSans-Bold-2d" d="M 347 2297 
L 2309 2297 
L 2309 1388 
L 347 1388 
L 347 2297 
z
" transform="scale(0.015625)"/>
     <path id="DejaVuSans-Bold-45" d="M 588 4666 
L 3834 4666 
L 3834 3756 
L 1791 3756 
L 1791 2888 
L 3713 2888 
L 3713 1978 
L 1791 1978 
L 1791 909 
L 3903 909 
L 3903 0 
L 588 0 
L 588 4666 
z
" transform="scale(0.015625)"/>
     <path id="DejaVuSans-Bold-66" d="M 2841 4863 
L 2841 4128 
L 2222 4128 
Q 1984 4128 1890 4042 
Q 1797 3956 1797 3744 
L 1797 3500 
L 2753 3500 
L 2753 2700 
L 1797 2700 
L 1797 0 
L 678 0 
L 678 2700 
L 122 2700 
L 122 3500 
L 678 3500 
L 678 3744 
Q 678 4316 997 4589 
Q 1316 4863 1984 4863 
L 2841 4863 
z
" transform="scale(0.015625)"/>
     <path id="DejaVuSans-Bold-79" d="M 78 3500 
L 1197 3500 
L 2138 1125 
L 2938 3500 
L 4056 3500 
L 2584 -331 
Q 2363 -916 2067 -1148 
Q 1772 -1381 1288 -1381 
L 641 -1381 
L 641 -647 
L 991 -647 
Q 1275 -647 1404 -556 
Q 1534 -466 1606 -231 
L 1638 -134 
L 78 3500 
z
" transform="scale(0.015625)"/>
     <path id="DejaVuSans-Bold-6d" d="M 3781 2919 
Q 3994 3244 4286 3414 
Q 4578 3584 4928 3584 
Q 5531 3584 5847 3212 
Q 6163 2841 6163 2131 
L 6163 0 
L 5038 0 
L 5038 1825 
Q 5041 1866 5042 1909 
Q 5044 1953 5044 2034 
Q 5044 2406 4934 2573 
Q 4825 2741 4581 2741 
Q 4263 2741 4089 2478 
Q 3916 2216 3909 1719 
L 3909 0 
L 2784 0 
L 2784 1825 
Q 2784 2406 2684 2573 
Q 2584 2741 2328 2741 
Q 2006 2741 1831 2477 
Q 1656 2213 1656 1722 
L 1656 0 
L 531 0 
L 531 3500 
L 1656 3500 
L 1656 2988 
Q 1863 3284 2130 3434 
Q 2397 3584 2719 3584 
Q 3081 3584 3359 3409 
Q 3638 3234 3781 2919 
z
" transform="scale(0.015625)"/>
    </defs>
    <use xlink:href="#DejaVuSans-Bold-4d"/>
    <use xlink:href="#DejaVuSans-Bold-6f" x="99.511719"/>
    <use xlink:href="#DejaVuSans-Bold-64" x="168.212891"/>
    <use xlink:href="#DejaVuSans-Bold-65" x="239.794922"/>
    <use xlink:href="#DejaVuSans-Bold-6c" x="307.617188"/>
    <use xlink:href="#DejaVuSans-Bold-3a" x="341.894531"/>
    <use xlink:href="#DejaVuSans-Bold-20" x="381.884766"/>
    <use xlink:href="#DejaVuSans-Bold-4f" x="416.699219"/>
    <use xlink:href="#DejaVuSans-Bold-56" x="499.083984"/>
    <use xlink:href="#DejaVuSans-Bold-52" x="576.476562"/>
    <use xlink:href="#DejaVuSans-Bold-5f" x="653.478516"/>
    <use xlink:href="#DejaVuSans-Bold-4c" x="703.478516"/>
    <use xlink:href="#DejaVuSans-Bold-32" x="767.199219"/>
    <use xlink:href="#DejaVuSans-Bold-5f" x="836.779297"/>
    <use xlink:href="#DejaVuSans-Bold-6c" x="886.779297"/>
    <use xlink:href="#DejaVuSans-Bold-6f" x="921.056641"/>
    <use xlink:href="#DejaVuSans-Bold-67" x="989.757812"/>
    <use xlink:href="#DejaVuSans-Bold-69" x="1061.339844"/>
    <use xlink:href="#DejaVuSans-Bold-73" x="1095.617188"/>
    <use xlink:href="#DejaVuSans-Bold-74" x="1155.138672"/>
    <use xlink:href="#DejaVuSans-Bold-69" x="1202.941406"/>
    <use xlink:href="#DejaVuSans-Bold-63" x="1237.21875"/>
    <use xlink:href="#DejaVuSans-Bold-2c" x="1296.496094"/>
    <use xlink:href="#DejaVuSans-Bold-20" x="1334.484375"/>
    <use xlink:href="#DejaVuSans-Bold-47" x="1369.298828"/>
    <use xlink:href="#DejaVuSans-Bold-72" x="1451.378906"/>
    <use xlink:href="#DejaVuSans-Bold-6f" x="1500.695312"/>
    <use xlink:href="#DejaVuSans-Bold-75" x="1569.396484"/>
    <use xlink:href="#DejaVuSans-Bold-70" x="1640.587891"/>
    <use xlink:href="#DejaVuSans-Bold-3a" x="1712.169922"/>
    <use xlink:href="#DejaVuSans-Bold-20" x="1752.160156"/>
    <use xlink:href="#DejaVuSans-Bold-43" x="1786.974609"/>
    <use xlink:href="#DejaVuSans-Bold-61" x="1860.363281"/>
    <use xlink:href="#DejaVuSans-Bold-6e" x="1927.84375"/>
    <use xlink:href="#DejaVuSans-Bold-6e" x="1999.035156"/>
    <use xlink:href="#DejaVuSans-Bold-61" x="2070.226562"/>
    <use xlink:href="#DejaVuSans-Bold-62" x="2137.707031"/>
    <use xlink:href="#DejaVuSans-Bold-69" x="2209.289062"/>
    <use xlink:href="#DejaVuSans-Bold-73" x="2243.566406"/>
    <use xlink:href="#DejaVuSans-Bold-20" x="2303.087891"/>
    <use xlink:href="#DejaVuSans-Bold-2d" x="2337.902344"/>
    <use xlink:href="#DejaVuSans-Bold-20" x="2379.40625"/>
    <use xlink:href="#DejaVuSans-Bold-20" x="2414.220703"/>
    <use xlink:href="#DejaVuSans-Bold-45" x="2449.035156"/>
    <use xlink:href="#DejaVuSans-Bold-66" x="2517.345703"/>
    <use xlink:href="#DejaVuSans-Bold-66" x="2560.851562"/>
    <use xlink:href="#DejaVuSans-Bold-69" x="2604.357422"/>
    <use xlink:href="#DejaVuSans-Bold-63" x="2638.634766"/>
    <use xlink:href="#DejaVuSans-Bold-69" x="2697.912109"/>
    <use xlink:href="#DejaVuSans-Bold-65" x="2732.189453"/>
    <use xlink:href="#DejaVuSans-Bold-6e" x="2800.011719"/>
    <use xlink:href="#DejaVuSans-Bold-63" x="2871.203125"/>
    <use xlink:href="#DejaVuSans-Bold-79" x="2930.480469"/>
    <use xlink:href="#DejaVuSans-Bold-20" x="2995.666016"/>
    <use xlink:href="#DejaVuSans-Bold-43" x="3030.480469"/>
    <use xlink:href="#DejaVuSans-Bold-6f" x="3103.869141"/>
    <use xlink:href="#DejaVuSans-Bold-6d" x="3172.570312"/>
    <use xlink:href="#DejaVuSans-Bold-70" x="3276.769531"/>
    <use xlink:href="#DejaVuSans-Bold-61" x="3348.351562"/>
    <use xlink:href="#DejaVuSans-Bold-72" x="3415.832031"/>
    <use xlink:href="#DejaVuSans-Bold-69" x="3465.148438"/>
    <use xlink:href="#DejaVuSans-Bold-73" x="3499.425781"/>
    <use xlink:href="#DejaVuSans-Bold-6f" x="3558.947266"/>
    <use xlink:href="#DejaVuSans-Bold-6e" x="3627.648438"/>
   </g>
  </g>
 </g>
 <defs>
  <clipPath id="pe1290ec72c">
   <rect x="75.695" y="68.64" width="245.155" height="184.28"/>
  </clipPath>
  <clipPath id="p3724bc8941">
   <rect x="335.15" y="68.64" width="245.155" height="184.28"/>
  </clipPath>
 </defs>
</svg>
