<?xml version="1.0" encoding="utf-8" standalone="no"?>
<!DOCTYPE svg PUBLIC "-//W3C//DTD SVG 1.1//EN"
  "http://www.w3.org/Graphics/SVG/1.1/DTD/svg11.dtd">
<svg xmlns:xlink="http://www.w3.org/1999/xlink" width="568.31625pt" height="276.798125pt" viewBox="0 0 568.31625 276.798125" xmlns="http://www.w3.org/2000/svg" version="1.1">
 <metadata>
  <rdf:RDF xmlns:dc="http://purl.org/dc/elements/1.1/" xmlns:cc="http://creativecommons.org/ns#" xmlns:rdf="http://www.w3.org/1999/02/22-rdf-syntax-ns#">
   <cc:Work>
    <dc:type rdf:resource="http://purl.org/dc/dcmitype/StillImage"/>
    <dc:date>2025-04-21T11:11:27.482404</dc:date>
    <dc:format>image/svg+xml</dc:format>
    <dc:creator>
     <cc:Agent>
      <dc:title>Matplotlib v3.7.1, https://matplotlib.org/</dc:title>
     </cc:Agent>
    </dc:creator>
   </cc:Work>
  </rdf:RDF>
 </metadata>
 <defs>
  <style type="text/css">*{stroke-linejoin: round; stroke-linecap: butt}</style>
 </defs>
 <g id="figure_1">
  <g id="patch_1">
   <path d="M 0 276.798125 
L 568.31625 276.798125 
L 568.31625 0 
L 0 0 
z
" style="fill: #ffffff"/>
  </g>
  <g id="axes_1">
   <g id="patch_2">
    <path d="M 56.50625 252.92 
L 301.66125 252.92 
L 301.66125 68.64 
L 56.50625 68.64 
z
" style="fill: #ffffff"/>
   </g>
   <g id="PolyCollection_1">
    <defs>
     <path id="m4a98d54c5b" d="M 119.019366 -98.042847 
L 116.570634 -98.042847 
L 116.408513 -98.902346 
L 116.255494 -99.761846 
L 116.111111 -100.621346 
L 115.971122 -101.480845 
L 115.827924 -102.340345 
L 115.671696 -103.199845 
L 115.492021 -104.059344 
L 115.279595 -104.918844 
L 115.027631 -105.778343 
L 114.732614 -106.637843 
L 114.394303 -107.497343 
L 114.015032 -108.356842 
L 113.598596 -109.216342 
L 113.149055 -110.075841 
L 112.669778 -110.935341 
L 112.162954 -111.794841 
L 111.629645 -112.65434 
L 111.070337 -113.51384 
L 110.48587 -114.37334 
L 109.878562 -115.232839 
L 109.253291 -116.092339 
L 108.618251 -116.951838 
L 107.985029 -117.811338 
L 107.367685 -118.670838 
L 106.780637 -119.530337 
L 106.235477 -120.389837 
L 105.737218 -121.249337 
L 105.280816 -122.108836 
L 104.848979 -122.968336 
L 104.412054 -123.827835 
L 103.930359 -124.687335 
L 103.358602 -125.546835 
L 102.651525 -126.406334 
L 101.769545 -127.265834 
L 100.683276 -128.125334 
L 99.376194 -128.984833 
L 97.845272 -129.844333 
L 96.099879 -130.703832 
L 94.159552 -131.563332 
L 92.051336 -132.422832 
L 89.807321 -133.282331 
L 87.462892 -134.141831 
L 85.056014 -135.00133 
L 82.627708 -135.86083 
L 80.223459 -136.72033 
L 77.894956 -137.579829 
L 75.701088 -138.439329 
L 73.707031 -139.298829 
L 71.980479 -140.158328 
L 70.584838 -141.017828 
L 69.570217 -141.877327 
L 68.964086 -142.736827 
L 68.764 -143.596327 
L 68.934655 -144.455826 
L 69.410603 -145.315326 
L 70.104565 -146.174826 
L 70.919836 -147.034325 
L 71.76431 -147.893825 
L 72.563431 -148.753324 
L 73.269883 -149.612824 
L 73.868814 -150.472324 
L 74.378387 -151.331823 
L 74.846163 -152.191323 
L 75.342112 -153.050823 
L 75.94906 -153.910322 
L 76.75136 -154.769822 
L 77.822768 -155.629321 
L 79.214868 -156.488821 
L 80.947802 -157.348321 
L 83.005164 -158.20782 
L 85.334448 -159.06732 
L 87.853475 -159.926819 
L 90.461885 -160.786319 
L 93.055553 -161.645819 
L 95.541089 -162.505318 
L 97.847581 -163.364818 
L 99.933508 -164.224318 
L 101.787934 -165.083817 
L 103.42639 -165.943317 
L 104.88288 -166.802816 
L 106.200028 -167.662316 
L 107.419448 -168.521816 
L 108.574059 -169.381315 
L 109.683449 -170.240815 
L 110.75265 -171.100315 
L 111.773979 -171.959814 
L 112.731077 -172.819314 
L 113.604002 -173.678813 
L 114.374198 -174.538313 
L 115.028448 -175.397813 
L 115.561275 -176.257312 
L 115.975696 -177.116812 
L 116.282536 -177.976312 
L 116.498706 -178.835811 
L 116.644872 -179.695311 
L 116.742905 -180.55481 
L 116.813447 -181.41431 
L 116.873851 -182.27381 
L 116.936758 -183.133309 
L 118.653242 -183.133309 
L 118.653242 -183.133309 
L 118.716149 -182.27381 
L 118.776553 -181.41431 
L 118.847095 -180.55481 
L 118.945128 -179.695311 
L 119.091294 -178.835811 
L 119.307464 -177.976312 
L 119.614304 -177.116812 
L 120.028725 -176.257312 
L 120.561552 -175.397813 
L 121.215802 -174.538313 
L 121.985998 -173.678813 
L 122.858923 -172.819314 
L 123.816021 -171.959814 
L 124.83735 -171.100315 
L 125.906551 -170.240815 
L 127.015941 -169.381315 
L 128.170552 -168.521816 
L 129.389972 -167.662316 
L 130.70712 -166.802816 
L 132.16361 -165.943317 
L 133.802066 -165.083817 
L 135.656492 -164.224318 
L 137.742419 -163.364818 
L 140.048911 -162.505318 
L 142.534447 -161.645819 
L 145.128115 -160.786319 
L 147.736525 -159.926819 
L 150.255552 -159.06732 
L 152.584836 -158.20782 
L 154.642198 -157.348321 
L 156.375132 -156.488821 
L 157.767232 -155.629321 
L 158.83864 -154.769822 
L 159.64094 -153.910322 
L 160.247888 -153.050823 
L 160.743837 -152.191323 
L 161.211613 -151.331823 
L 161.721186 -150.472324 
L 162.320117 -149.612824 
L 163.026569 -148.753324 
L 163.82569 -147.893825 
L 164.670164 -147.034325 
L 165.485435 -146.174826 
L 166.179397 -145.315326 
L 166.655345 -144.455826 
L 166.826 -143.596327 
L 166.625914 -142.736827 
L 166.019783 -141.877327 
L 165.005162 -141.017828 
L 163.609521 -140.158328 
L 161.882969 -139.298829 
L 159.888912 -138.439329 
L 157.695044 -137.579829 
L 155.366541 -136.72033 
L 152.962292 -135.86083 
L 150.533986 -135.00133 
L 148.127108 -134.141831 
L 145.782679 -133.282331 
L 143.538664 -132.422832 
L 141.430448 -131.563332 
L 139.490121 -130.703832 
L 137.744728 -129.844333 
L 136.213806 -128.984833 
L 134.906724 -128.125334 
L 133.820455 -127.265834 
L 132.938475 -126.406334 
L 132.231398 -125.546835 
L 131.659641 -124.687335 
L 131.177946 -123.827835 
L 130.741021 -122.968336 
L 130.309184 -122.108836 
L 129.852782 -121.249337 
L 129.354523 -120.389837 
L 128.809363 -119.530337 
L 128.222315 -118.670838 
L 127.604971 -117.811338 
L 126.971749 -116.951838 
L 126.336709 -116.092339 
L 125.711438 -115.232839 
L 125.10413 -114.37334 
L 124.519663 -113.51384 
L 123.960355 -112.65434 
L 123.427046 -111.794841 
L 122.920222 -110.935341 
L 122.440945 -110.075841 
L 121.991404 -109.216342 
L 121.574968 -108.356842 
L 121.195697 -107.497343 
L 120.857386 -106.637843 
L 120.562369 -105.778343 
L 120.310405 -104.918844 
L 120.097979 -104.059344 
L 119.918304 -103.199845 
L 119.762076 -102.340345 
L 119.618878 -101.480845 
L 119.478889 -100.621346 
L 119.334506 -99.761846 
L 119.181487 -98.902346 
L 119.019366 -98.042847 
z
" style="stroke: #3f3f3f; stroke-width: 1.5"/>
    </defs>
    <g clip-path="url(#p99e9b0aa85)">
     <use xlink:href="#m4a98d54c5b" x="0" y="276.798125" style="fill: #3274a1; stroke: #3f3f3f; stroke-width: 1.5"/>
    </g>
   </g>
   <g id="PolyCollection_2">
    <defs>
     <path id="mc86badff94" d="M 242.121495 -101.776769 
L 238.623505 -101.776769 
L 238.414565 -102.495566 
L 238.211449 -103.214364 
L 238.016548 -103.933161 
L 237.830647 -104.651958 
L 237.652863 -105.370755 
L 237.480803 -106.089552 
L 237.310888 -106.808349 
L 237.138757 -107.527146 
L 236.959652 -108.245944 
L 236.768686 -108.964741 
L 236.560946 -109.683538 
L 236.331458 -110.402335 
L 236.075068 -111.121132 
L 235.786376 -111.839929 
L 235.459838 -112.558727 
L 235.090125 -113.277524 
L 234.672752 -113.996321 
L 234.204885 -114.715118 
L 233.686142 -115.433915 
L 233.119165 -116.152712 
L 232.509723 -116.87151 
L 231.866215 -117.590307 
L 231.198541 -118.309104 
L 230.516499 -119.027901 
L 229.82795 -119.746698 
L 229.13714 -120.465495 
L 228.443483 -121.184292 
L 227.7411 -121.90309 
L 227.019208 -122.621887 
L 226.263314 -123.340684 
L 225.457026 -124.059481 
L 224.584171 -124.778278 
L 223.630913 -125.497075 
L 222.587569 -126.215873 
L 221.449903 -126.93467 
L 220.21977 -127.653467 
L 218.905056 -128.372264 
L 217.518957 -129.091061 
L 216.078692 -129.809858 
L 214.603787 -130.528655 
L 213.114157 -131.247453 
L 211.628213 -131.96625 
L 210.161283 -132.685047 
L 208.724615 -133.403844 
L 207.325171 -134.122641 
L 205.966328 -134.841438 
L 204.649434 -135.560236 
L 203.375977 -136.279033 
L 202.149975 -136.99783 
L 200.980049 -137.716627 
L 199.880633 -138.435424 
L 198.871877 -139.154221 
L 197.977983 -139.873019 
L 197.224074 -140.591816 
L 196.631993 -141.310613 
L 196.215758 -142.02941 
L 195.977571 -142.748207 
L 195.905275 -143.467004 
L 195.971956 -144.185801 
L 196.138009 -144.904599 
L 196.35553 -145.623396 
L 196.574399 -146.342193 
L 196.74912 -147.06099 
L 196.845259 -147.779787 
L 196.844447 -148.498584 
L 196.747148 -149.217382 
L 196.572824 -149.936179 
L 196.357601 -150.654976 
L 196.14992 -151.373773 
L 196.004963 -152.09257 
L 195.978753 -152.811367 
L 196.122726 -153.530164 
L 196.479426 -154.248962 
L 197.079638 -154.967759 
L 197.94101 -155.686556 
L 199.067978 -156.405353 
L 200.452647 -157.12415 
L 202.076255 -157.842947 
L 203.910902 -158.561745 
L 205.921368 -159.280542 
L 208.066944 -159.999339 
L 210.30333 -160.718136 
L 212.584682 -161.436933 
L 214.865836 -162.15573 
L 217.104655 -162.874527 
L 219.264326 -163.593325 
L 221.315326 -164.312122 
L 223.236784 -165.030919 
L 225.016991 -165.749716 
L 226.652947 -166.468513 
L 228.149007 -167.18731 
L 229.514851 -167.906108 
L 230.763115 -168.624905 
L 231.907072 -169.343702 
L 232.958705 -170.062499 
L 233.927419 -170.781296 
L 234.819489 -171.500093 
L 235.63819 -172.218891 
L 236.384464 -172.937688 
L 244.360536 -172.937688 
L 244.360536 -172.937688 
L 245.10681 -172.218891 
L 245.925511 -171.500093 
L 246.817581 -170.781296 
L 247.786295 -170.062499 
L 248.837928 -169.343702 
L 249.981885 -168.624905 
L 251.230149 -167.906108 
L 252.595993 -167.18731 
L 254.092053 -166.468513 
L 255.728009 -165.749716 
L 257.508216 -165.030919 
L 259.429674 -164.312122 
L 261.480674 -163.593325 
L 263.640345 -162.874527 
L 265.879164 -162.15573 
L 268.160318 -161.436933 
L 270.44167 -160.718136 
L 272.678056 -159.999339 
L 274.823632 -159.280542 
L 276.834098 -158.561745 
L 278.668745 -157.842947 
L 280.292353 -157.12415 
L 281.677022 -156.405353 
L 282.80399 -155.686556 
L 283.665362 -154.967759 
L 284.265574 -154.248962 
L 284.622274 -153.530164 
L 284.766247 -152.811367 
L 284.740037 -152.09257 
L 284.59508 -151.373773 
L 284.387399 -150.654976 
L 284.172176 -149.936179 
L 283.997852 -149.217382 
L 283.900553 -148.498584 
L 283.899741 -147.779787 
L 283.99588 -147.06099 
L 284.170601 -146.342193 
L 284.38947 -145.623396 
L 284.606991 -144.904599 
L 284.773044 -144.185801 
L 284.839725 -143.467004 
L 284.767429 -142.748207 
L 284.529242 -142.02941 
L 284.113007 -141.310613 
L 283.520926 -140.591816 
L 282.767017 -139.873019 
L 281.873123 -139.154221 
L 280.864367 -138.435424 
L 279.764951 -137.716627 
L 278.595025 -136.99783 
L 277.369023 -136.279033 
L 276.095566 -135.560236 
L 274.778672 -134.841438 
L 273.419829 -134.122641 
L 272.020385 -133.403844 
L 270.583717 -132.685047 
L 269.116787 -131.96625 
L 267.630843 -131.247453 
L 266.141213 -130.528655 
L 264.666308 -129.809858 
L 263.226043 -129.091061 
L 261.839944 -128.372264 
L 260.52523 -127.653467 
L 259.295097 -126.93467 
L 258.157431 -126.215873 
L 257.114087 -125.497075 
L 256.160829 -124.778278 
L 255.287974 -124.059481 
L 254.481686 -123.340684 
L 253.725792 -122.621887 
L 253.0039 -121.90309 
L 252.301517 -121.184292 
L 251.60786 -120.465495 
L 250.91705 -119.746698 
L 250.228501 -119.027901 
L 249.546459 -118.309104 
L 248.878785 -117.590307 
L 248.235277 -116.87151 
L 247.625835 -116.152712 
L 247.058858 -115.433915 
L 246.540115 -114.715118 
L 246.072248 -113.996321 
L 245.654875 -113.277524 
L 245.285162 -112.558727 
L 244.958624 -111.839929 
L 244.669932 -111.121132 
L 244.413542 -110.402335 
L 244.184054 -109.683538 
L 243.976314 -108.964741 
L 243.785348 -108.245944 
L 243.606243 -107.527146 
L 243.434112 -106.808349 
L 243.264197 -106.089552 
L 243.092137 -105.370755 
L 242.914353 -104.651958 
L 242.728452 -103.933161 
L 242.533551 -103.214364 
L 242.330435 -102.495566 
L 242.121495 -101.776769 
z
" style="stroke: #3f3f3f; stroke-width: 1.5"/>
    </defs>
    <g clip-path="url(#p99e9b0aa85)">
     <use xlink:href="#mc86badff94" x="0" y="276.798125" style="fill: #e1812c; stroke: #3f3f3f; stroke-width: 1.5"/>
    </g>
   </g>
   <g id="matplotlib.axis_1">
    <g id="xtick_1">
     <g id="line2d_1">
      <defs>
       <path id="m1f05b1cd99" d="M 0 0 
L 0 3.5 
" style="stroke: #000000; stroke-width: 0.8"/>
      </defs>
      <g>
       <use xlink:href="#m1f05b1cd99" x="117.795" y="252.92" style="stroke: #000000; stroke-width: 0.8"/>
      </g>
     </g>
     <g id="text_1">
      <!-- HC -->
      <g transform="translate(110.543438 267.518437) scale(0.1 -0.1)">
       <defs>
        <path id="DejaVuSans-48" d="M 628 4666 
L 1259 4666 
L 1259 2753 
L 3553 2753 
L 3553 4666 
L 4184 4666 
L 4184 0 
L 3553 0 
L 3553 2222 
L 1259 2222 
L 1259 0 
L 628 0 
L 628 4666 
z
" transform="scale(0.015625)"/>
        <path id="DejaVuSans-43" d="M 4122 4306 
L 4122 3641 
Q 3803 3938 3442 4084 
Q 3081 4231 2675 4231 
Q 1875 4231 1450 3742 
Q 1025 3253 1025 2328 
Q 1025 1406 1450 917 
Q 1875 428 2675 428 
Q 3081 428 3442 575 
Q 3803 722 4122 1019 
L 4122 359 
Q 3791 134 3420 21 
Q 3050 -91 2638 -91 
Q 1578 -91 968 557 
Q 359 1206 359 2328 
Q 359 3453 968 4101 
Q 1578 4750 2638 4750 
Q 3056 4750 3426 4639 
Q 3797 4528 4122 4306 
z
" transform="scale(0.015625)"/>
       </defs>
       <use xlink:href="#DejaVuSans-48"/>
       <use xlink:href="#DejaVuSans-43" x="75.195312"/>
      </g>
     </g>
    </g>
    <g id="xtick_2">
     <g id="line2d_2">
      <g>
       <use xlink:href="#m1f05b1cd99" x="240.3725" y="252.92" style="stroke: #000000; stroke-width: 0.8"/>
      </g>
     </g>
     <g id="text_2">
      <!-- Cannabis -->
      <g transform="translate(217.2475 267.518437) scale(0.1 -0.1)">
       <defs>
        <path id="DejaVuSans-61" d="M 2194 1759 
Q 1497 1759 1228 1600 
Q 959 1441 959 1056 
Q 959 750 1161 570 
Q 1363 391 1709 391 
Q 2188 391 2477 730 
Q 2766 1069 2766 1631 
L 2766 1759 
L 2194 1759 
z
M 3341 1997 
L 3341 0 
L 2766 0 
L 2766 531 
Q 2569 213 2275 61 
Q 1981 -91 1556 -91 
Q 1019 -91 701 211 
Q 384 513 384 1019 
Q 384 1609 779 1909 
Q 1175 2209 1959 2209 
L 2766 2209 
L 2766 2266 
Q 2766 2663 2505 2880 
Q 2244 3097 1772 3097 
Q 1472 3097 1187 3025 
Q 903 2953 641 2809 
L 641 3341 
Q 956 3463 1253 3523 
Q 1550 3584 1831 3584 
Q 2591 3584 2966 3190 
Q 3341 2797 3341 1997 
z
" transform="scale(0.015625)"/>
        <path id="DejaVuSans-6e" d="M 3513 2113 
L 3513 0 
L 2938 0 
L 2938 2094 
Q 2938 2591 2744 2837 
Q 2550 3084 2163 3084 
Q 1697 3084 1428 2787 
Q 1159 2491 1159 1978 
L 1159 0 
L 581 0 
L 581 3500 
L 1159 3500 
L 1159 2956 
Q 1366 3272 1645 3428 
Q 1925 3584 2291 3584 
Q 2894 3584 3203 3211 
Q 3513 2838 3513 2113 
z
" transform="scale(0.015625)"/>
        <path id="DejaVuSans-62" d="M 3116 1747 
Q 3116 2381 2855 2742 
Q 2594 3103 2138 3103 
Q 1681 3103 1420 2742 
Q 1159 2381 1159 1747 
Q 1159 1113 1420 752 
Q 1681 391 2138 391 
Q 2594 391 2855 752 
Q 3116 1113 3116 1747 
z
M 1159 2969 
Q 1341 3281 1617 3432 
Q 1894 3584 2278 3584 
Q 2916 3584 3314 3078 
Q 3713 2572 3713 1747 
Q 3713 922 3314 415 
Q 2916 -91 2278 -91 
Q 1894 -91 1617 61 
Q 1341 213 1159 525 
L 1159 0 
L 581 0 
L 581 4863 
L 1159 4863 
L 1159 2969 
z
" transform="scale(0.015625)"/>
        <path id="DejaVuSans-69" d="M 603 3500 
L 1178 3500 
L 1178 0 
L 603 0 
L 603 3500 
z
M 603 4863 
L 1178 4863 
L 1178 4134 
L 603 4134 
L 603 4863 
z
" transform="scale(0.015625)"/>
        <path id="DejaVuSans-73" d="M 2834 3397 
L 2834 2853 
Q 2591 2978 2328 3040 
Q 2066 3103 1784 3103 
Q 1356 3103 1142 2972 
Q 928 2841 928 2578 
Q 928 2378 1081 2264 
Q 1234 2150 1697 2047 
L 1894 2003 
Q 2506 1872 2764 1633 
Q 3022 1394 3022 966 
Q 3022 478 2636 193 
Q 2250 -91 1575 -91 
Q 1294 -91 989 -36 
Q 684 19 347 128 
L 347 722 
Q 666 556 975 473 
Q 1284 391 1588 391 
Q 1994 391 2212 530 
Q 2431 669 2431 922 
Q 2431 1156 2273 1281 
Q 2116 1406 1581 1522 
L 1381 1569 
Q 847 1681 609 1914 
Q 372 2147 372 2553 
Q 372 3047 722 3315 
Q 1072 3584 1716 3584 
Q 2034 3584 2315 3537 
Q 2597 3491 2834 3397 
z
" transform="scale(0.015625)"/>
       </defs>
       <use xlink:href="#DejaVuSans-43"/>
       <use xlink:href="#DejaVuSans-61" x="69.824219"/>
       <use xlink:href="#DejaVuSans-6e" x="131.103516"/>
       <use xlink:href="#DejaVuSans-6e" x="194.482422"/>
       <use xlink:href="#DejaVuSans-61" x="257.861328"/>
       <use xlink:href="#DejaVuSans-62" x="319.140625"/>
       <use xlink:href="#DejaVuSans-69" x="382.617188"/>
       <use xlink:href="#DejaVuSans-73" x="410.400391"/>
      </g>
     </g>
    </g>
   </g>
   <g id="matplotlib.axis_2">
    <g id="ytick_1">
     <g id="line2d_3">
      <defs>
       <path id="m10e5f8284e" d="M 0 0 
L -3.5 0 
" style="stroke: #000000; stroke-width: 0.8"/>
      </defs>
      <g>
       <use xlink:href="#m10e5f8284e" x="56.50625" y="249.43783" style="stroke: #000000; stroke-width: 0.8"/>
      </g>
     </g>
     <g id="text_3">
      <!-- 0.000 -->
      <g transform="translate(20.878125 253.237048) scale(0.1 -0.1)">
       <defs>
        <path id="DejaVuSans-30" d="M 2034 4250 
Q 1547 4250 1301 3770 
Q 1056 3291 1056 2328 
Q 1056 1369 1301 889 
Q 1547 409 2034 409 
Q 2525 409 2770 889 
Q 3016 1369 3016 2328 
Q 3016 3291 2770 3770 
Q 2525 4250 2034 4250 
z
M 2034 4750 
Q 2819 4750 3233 4129 
Q 3647 3509 3647 2328 
Q 3647 1150 3233 529 
Q 2819 -91 2034 -91 
Q 1250 -91 836 529 
Q 422 1150 422 2328 
Q 422 3509 836 4129 
Q 1250 4750 2034 4750 
z
" transform="scale(0.015625)"/>
        <path id="DejaVuSans-2e" d="M 684 794 
L 1344 794 
L 1344 0 
L 684 0 
L 684 794 
z
" transform="scale(0.015625)"/>
       </defs>
       <use xlink:href="#DejaVuSans-30"/>
       <use xlink:href="#DejaVuSans-2e" x="63.623047"/>
       <use xlink:href="#DejaVuSans-30" x="95.410156"/>
       <use xlink:href="#DejaVuSans-30" x="159.033203"/>
       <use xlink:href="#DejaVuSans-30" x="222.65625"/>
      </g>
     </g>
    </g>
    <g id="ytick_2">
     <g id="line2d_4">
      <g>
       <use xlink:href="#m10e5f8284e" x="56.50625" y="225.254757" style="stroke: #000000; stroke-width: 0.8"/>
      </g>
     </g>
     <g id="text_4">
      <!-- 0.025 -->
      <g transform="translate(20.878125 229.053976) scale(0.1 -0.1)">
       <defs>
        <path id="DejaVuSans-32" d="M 1228 531 
L 3431 531 
L 3431 0 
L 469 0 
L 469 531 
Q 828 903 1448 1529 
Q 2069 2156 2228 2338 
Q 2531 2678 2651 2914 
Q 2772 3150 2772 3378 
Q 2772 3750 2511 3984 
Q 2250 4219 1831 4219 
Q 1534 4219 1204 4116 
Q 875 4013 500 3803 
L 500 4441 
Q 881 4594 1212 4672 
Q 1544 4750 1819 4750 
Q 2544 4750 2975 4387 
Q 3406 4025 3406 3419 
Q 3406 3131 3298 2873 
Q 3191 2616 2906 2266 
Q 2828 2175 2409 1742 
Q 1991 1309 1228 531 
z
" transform="scale(0.015625)"/>
        <path id="DejaVuSans-35" d="M 691 4666 
L 3169 4666 
L 3169 4134 
L 1269 4134 
L 1269 2991 
Q 1406 3038 1543 3061 
Q 1681 3084 1819 3084 
Q 2600 3084 3056 2656 
Q 3513 2228 3513 1497 
Q 3513 744 3044 326 
Q 2575 -91 1722 -91 
Q 1428 -91 1123 -41 
Q 819 9 494 109 
L 494 744 
Q 775 591 1075 516 
Q 1375 441 1709 441 
Q 2250 441 2565 725 
Q 2881 1009 2881 1497 
Q 2881 1984 2565 2268 
Q 2250 2553 1709 2553 
Q 1456 2553 1204 2497 
Q 953 2441 691 2322 
L 691 4666 
z
" transform="scale(0.015625)"/>
       </defs>
       <use xlink:href="#DejaVuSans-30"/>
       <use xlink:href="#DejaVuSans-2e" x="63.623047"/>
       <use xlink:href="#DejaVuSans-30" x="95.410156"/>
       <use xlink:href="#DejaVuSans-32" x="159.033203"/>
       <use xlink:href="#DejaVuSans-35" x="222.65625"/>
      </g>
     </g>
    </g>
    <g id="ytick_3">
     <g id="line2d_5">
      <g>
       <use xlink:href="#m10e5f8284e" x="56.50625" y="201.071685" style="stroke: #000000; stroke-width: 0.8"/>
      </g>
     </g>
     <g id="text_5">
      <!-- 0.050 -->
      <g transform="translate(20.878125 204.870904) scale(0.1 -0.1)">
       <use xlink:href="#DejaVuSans-30"/>
       <use xlink:href="#DejaVuSans-2e" x="63.623047"/>
       <use xlink:href="#DejaVuSans-30" x="95.410156"/>
       <use xlink:href="#DejaVuSans-35" x="159.033203"/>
       <use xlink:href="#DejaVuSans-30" x="222.65625"/>
      </g>
     </g>
    </g>
    <g id="ytick_4">
     <g id="line2d_6">
      <g>
       <use xlink:href="#m10e5f8284e" x="56.50625" y="176.888613" style="stroke: #000000; stroke-width: 0.8"/>
      </g>
     </g>
     <g id="text_6">
      <!-- 0.075 -->
      <g transform="translate(20.878125 180.687832) scale(0.1 -0.1)">
       <defs>
        <path id="DejaVuSans-37" d="M 525 4666 
L 3525 4666 
L 3525 4397 
L 1831 0 
L 1172 0 
L 2766 4134 
L 525 4134 
L 525 4666 
z
" transform="scale(0.015625)"/>
       </defs>
       <use xlink:href="#DejaVuSans-30"/>
       <use xlink:href="#DejaVuSans-2e" x="63.623047"/>
       <use xlink:href="#DejaVuSans-30" x="95.410156"/>
       <use xlink:href="#DejaVuSans-37" x="159.033203"/>
       <use xlink:href="#DejaVuSans-35" x="222.65625"/>
      </g>
     </g>
    </g>
    <g id="ytick_5">
     <g id="line2d_7">
      <g>
       <use xlink:href="#m10e5f8284e" x="56.50625" y="152.705541" style="stroke: #000000; stroke-width: 0.8"/>
      </g>
     </g>
     <g id="text_7">
      <!-- 0.100 -->
      <g transform="translate(20.878125 156.50476) scale(0.1 -0.1)">
       <defs>
        <path id="DejaVuSans-31" d="M 794 531 
L 1825 531 
L 1825 4091 
L 703 3866 
L 703 4441 
L 1819 4666 
L 2450 4666 
L 2450 531 
L 3481 531 
L 3481 0 
L 794 0 
L 794 531 
z
" transform="scale(0.015625)"/>
       </defs>
       <use xlink:href="#DejaVuSans-30"/>
       <use xlink:href="#DejaVuSans-2e" x="63.623047"/>
       <use xlink:href="#DejaVuSans-31" x="95.410156"/>
       <use xlink:href="#DejaVuSans-30" x="159.033203"/>
       <use xlink:href="#DejaVuSans-30" x="222.65625"/>
      </g>
     </g>
    </g>
    <g id="ytick_6">
     <g id="line2d_8">
      <g>
       <use xlink:href="#m10e5f8284e" x="56.50625" y="128.522469" style="stroke: #000000; stroke-width: 0.8"/>
      </g>
     </g>
     <g id="text_8">
      <!-- 0.125 -->
      <g transform="translate(20.878125 132.321687) scale(0.1 -0.1)">
       <use xlink:href="#DejaVuSans-30"/>
       <use xlink:href="#DejaVuSans-2e" x="63.623047"/>
       <use xlink:href="#DejaVuSans-31" x="95.410156"/>
       <use xlink:href="#DejaVuSans-32" x="159.033203"/>
       <use xlink:href="#DejaVuSans-35" x="222.65625"/>
      </g>
     </g>
    </g>
    <g id="ytick_7">
     <g id="line2d_9">
      <g>
       <use xlink:href="#m10e5f8284e" x="56.50625" y="104.339397" style="stroke: #000000; stroke-width: 0.8"/>
      </g>
     </g>
     <g id="text_9">
      <!-- 0.150 -->
      <g transform="translate(20.878125 108.138615) scale(0.1 -0.1)">
       <use xlink:href="#DejaVuSans-30"/>
       <use xlink:href="#DejaVuSans-2e" x="63.623047"/>
       <use xlink:href="#DejaVuSans-31" x="95.410156"/>
       <use xlink:href="#DejaVuSans-35" x="159.033203"/>
       <use xlink:href="#DejaVuSans-30" x="222.65625"/>
      </g>
     </g>
    </g>
    <g id="ytick_8">
     <g id="line2d_10">
      <g>
       <use xlink:href="#m10e5f8284e" x="56.50625" y="80.156324" style="stroke: #000000; stroke-width: 0.8"/>
      </g>
     </g>
     <g id="text_10">
      <!-- 0.175 -->
      <g transform="translate(20.878125 83.955543) scale(0.1 -0.1)">
       <use xlink:href="#DejaVuSans-30"/>
       <use xlink:href="#DejaVuSans-2e" x="63.623047"/>
       <use xlink:href="#DejaVuSans-31" x="95.410156"/>
       <use xlink:href="#DejaVuSans-37" x="159.033203"/>
       <use xlink:href="#DejaVuSans-35" x="222.65625"/>
      </g>
     </g>
    </g>
    <g id="text_11">
     <!-- Efficiency Value -->
     <g transform="translate(14.798438 200.26125) rotate(-90) scale(0.1 -0.1)">
      <defs>
       <path id="DejaVuSans-45" d="M 628 4666 
L 3578 4666 
L 3578 4134 
L 1259 4134 
L 1259 2753 
L 3481 2753 
L 3481 2222 
L 1259 2222 
L 1259 531 
L 3634 531 
L 3634 0 
L 628 0 
L 628 4666 
z
" transform="scale(0.015625)"/>
       <path id="DejaVuSans-66" d="M 2375 4863 
L 2375 4384 
L 1825 4384 
Q 1516 4384 1395 4259 
Q 1275 4134 1275 3809 
L 1275 3500 
L 2222 3500 
L 2222 3053 
L 1275 3053 
L 1275 0 
L 697 0 
L 697 3053 
L 147 3053 
L 147 3500 
L 697 3500 
L 697 3744 
Q 697 4328 969 4595 
Q 1241 4863 1831 4863 
L 2375 4863 
z
" transform="scale(0.015625)"/>
       <path id="DejaVuSans-63" d="M 3122 3366 
L 3122 2828 
Q 2878 2963 2633 3030 
Q 2388 3097 2138 3097 
Q 1578 3097 1268 2742 
Q 959 2388 959 1747 
Q 959 1106 1268 751 
Q 1578 397 2138 397 
Q 2388 397 2633 464 
Q 2878 531 3122 666 
L 3122 134 
Q 2881 22 2623 -34 
Q 2366 -91 2075 -91 
Q 1284 -91 818 406 
Q 353 903 353 1747 
Q 353 2603 823 3093 
Q 1294 3584 2113 3584 
Q 2378 3584 2631 3529 
Q 2884 3475 3122 3366 
z
" transform="scale(0.015625)"/>
       <path id="DejaVuSans-65" d="M 3597 1894 
L 3597 1613 
L 953 1613 
Q 991 1019 1311 708 
Q 1631 397 2203 397 
Q 2534 397 2845 478 
Q 3156 559 3463 722 
L 3463 178 
Q 3153 47 2828 -22 
Q 2503 -91 2169 -91 
Q 1331 -91 842 396 
Q 353 884 353 1716 
Q 353 2575 817 3079 
Q 1281 3584 2069 3584 
Q 2775 3584 3186 3129 
Q 3597 2675 3597 1894 
z
M 3022 2063 
Q 3016 2534 2758 2815 
Q 2500 3097 2075 3097 
Q 1594 3097 1305 2825 
Q 1016 2553 972 2059 
L 3022 2063 
z
" transform="scale(0.015625)"/>
       <path id="DejaVuSans-79" d="M 2059 -325 
Q 1816 -950 1584 -1140 
Q 1353 -1331 966 -1331 
L 506 -1331 
L 506 -850 
L 844 -850 
Q 1081 -850 1212 -737 
Q 1344 -625 1503 -206 
L 1606 56 
L 191 3500 
L 800 3500 
L 1894 763 
L 2988 3500 
L 3597 3500 
L 2059 -325 
z
" transform="scale(0.015625)"/>
       <path id="DejaVuSans-20" transform="scale(0.015625)"/>
       <path id="DejaVuSans-56" d="M 1831 0 
L 50 4666 
L 709 4666 
L 2188 738 
L 3669 4666 
L 4325 4666 
L 2547 0 
L 1831 0 
z
" transform="scale(0.015625)"/>
       <path id="DejaVuSans-6c" d="M 603 4863 
L 1178 4863 
L 1178 0 
L 603 0 
L 603 4863 
z
" transform="scale(0.015625)"/>
       <path id="DejaVuSans-75" d="M 544 1381 
L 544 3500 
L 1119 3500 
L 1119 1403 
Q 1119 906 1312 657 
Q 1506 409 1894 409 
Q 2359 409 2629 706 
Q 2900 1003 2900 1516 
L 2900 3500 
L 3475 3500 
L 3475 0 
L 2900 0 
L 2900 538 
Q 2691 219 2414 64 
Q 2138 -91 1772 -91 
Q 1169 -91 856 284 
Q 544 659 544 1381 
z
M 1991 3584 
L 1991 3584 
z
" transform="scale(0.015625)"/>
      </defs>
      <use xlink:href="#DejaVuSans-45"/>
      <use xlink:href="#DejaVuSans-66" x="63.183594"/>
      <use xlink:href="#DejaVuSans-66" x="98.388672"/>
      <use xlink:href="#DejaVuSans-69" x="133.59375"/>
      <use xlink:href="#DejaVuSans-63" x="161.376953"/>
      <use xlink:href="#DejaVuSans-69" x="216.357422"/>
      <use xlink:href="#DejaVuSans-65" x="244.140625"/>
      <use xlink:href="#DejaVuSans-6e" x="305.664062"/>
      <use xlink:href="#DejaVuSans-63" x="369.042969"/>
      <use xlink:href="#DejaVuSans-79" x="424.023438"/>
      <use xlink:href="#DejaVuSans-20" x="483.203125"/>
      <use xlink:href="#DejaVuSans-56" x="514.990234"/>
      <use xlink:href="#DejaVuSans-61" x="575.648438"/>
      <use xlink:href="#DejaVuSans-6c" x="636.927734"/>
      <use xlink:href="#DejaVuSans-75" x="664.710938"/>
      <use xlink:href="#DejaVuSans-65" x="728.089844"/>
     </g>
    </g>
   </g>
   <g id="line2d_11">
    <path d="M 82.979381 140.537889 
L 152.610619 140.537889 
" clip-path="url(#p99e9b0aa85)" style="fill: none; stroke-dasharray: 3.375,3.375; stroke-dashoffset: 0; stroke: #3f3f3f; stroke-width: 1.5"/>
   </g>
   <g id="line2d_12">
    <path d="M 69.423258 132.197554 
L 166.166742 132.197554 
" clip-path="url(#p99e9b0aa85)" style="fill: none; stroke-dasharray: 6.75,6.75; stroke-dashoffset: 0; stroke: #3f3f3f; stroke-width: 1.5"/>
   </g>
   <g id="line2d_13">
    <path d="M 77.161797 122.149259 
L 158.428203 122.149259 
" clip-path="url(#p99e9b0aa85)" style="fill: none; stroke-dasharray: 3.375,3.375; stroke-dashoffset: 0; stroke: #3f3f3f; stroke-width: 1.5"/>
   </g>
   <g id="line2d_14">
    <path d="M 205.006664 141.196518 
L 275.738336 141.196518 
" clip-path="url(#p99e9b0aa85)" style="fill: none; stroke-dasharray: 3.375,3.375; stroke-dashoffset: 0; stroke: #3f3f3f; stroke-width: 1.5"/>
   </g>
   <g id="line2d_15">
    <path d="M 196.415961 132.458879 
L 284.329039 132.458879 
" clip-path="url(#p99e9b0aa85)" style="fill: none; stroke-dasharray: 6.75,6.75; stroke-dashoffset: 0; stroke: #3f3f3f; stroke-width: 1.5"/>
   </g>
   <g id="line2d_16">
    <path d="M 196.918357 122.276466 
L 283.826643 122.276466 
" clip-path="url(#p99e9b0aa85)" style="fill: none; stroke-dasharray: 3.375,3.375; stroke-dashoffset: 0; stroke: #3f3f3f; stroke-width: 1.5"/>
   </g>
   <g id="patch_3">
    <path d="M 56.50625 252.92 
L 301.66125 252.92 
" style="fill: none; stroke: #000000; stroke-width: 0.8; stroke-linejoin: miter; stroke-linecap: square"/>
   </g>
   <g id="text_12">
    <!-- Global Efficiency -->
    <g transform="translate(129.04375 62.64) scale(0.12 -0.12)">
     <defs>
      <path id="DejaVuSans-47" d="M 3809 666 
L 3809 1919 
L 2778 1919 
L 2778 2438 
L 4434 2438 
L 4434 434 
Q 4069 175 3628 42 
Q 3188 -91 2688 -91 
Q 1594 -91 976 548 
Q 359 1188 359 2328 
Q 359 3472 976 4111 
Q 1594 4750 2688 4750 
Q 3144 4750 3555 4637 
Q 3966 4525 4313 4306 
L 4313 3634 
Q 3963 3931 3569 4081 
Q 3175 4231 2741 4231 
Q 1884 4231 1454 3753 
Q 1025 3275 1025 2328 
Q 1025 1384 1454 906 
Q 1884 428 2741 428 
Q 3075 428 3337 486 
Q 3600 544 3809 666 
z
" transform="scale(0.015625)"/>
      <path id="DejaVuSans-6f" d="M 1959 3097 
Q 1497 3097 1228 2736 
Q 959 2375 959 1747 
Q 959 1119 1226 758 
Q 1494 397 1959 397 
Q 2419 397 2687 759 
Q 2956 1122 2956 1747 
Q 2956 2369 2687 2733 
Q 2419 3097 1959 3097 
z
M 1959 3584 
Q 2709 3584 3137 3096 
Q 3566 2609 3566 1747 
Q 3566 888 3137 398 
Q 2709 -91 1959 -91 
Q 1206 -91 779 398 
Q 353 888 353 1747 
Q 353 2609 779 3096 
Q 1206 3584 1959 3584 
z
" transform="scale(0.015625)"/>
     </defs>
     <use xlink:href="#DejaVuSans-47"/>
     <use xlink:href="#DejaVuSans-6c" x="77.490234"/>
     <use xlink:href="#DejaVuSans-6f" x="105.273438"/>
     <use xlink:href="#DejaVuSans-62" x="166.455078"/>
     <use xlink:href="#DejaVuSans-61" x="229.931641"/>
     <use xlink:href="#DejaVuSans-6c" x="291.210938"/>
     <use xlink:href="#DejaVuSans-20" x="318.994141"/>
     <use xlink:href="#DejaVuSans-45" x="350.78125"/>
     <use xlink:href="#DejaVuSans-66" x="413.964844"/>
     <use xlink:href="#DejaVuSans-66" x="449.169922"/>
     <use xlink:href="#DejaVuSans-69" x="484.375"/>
     <use xlink:href="#DejaVuSans-63" x="512.158203"/>
     <use xlink:href="#DejaVuSans-69" x="567.138672"/>
     <use xlink:href="#DejaVuSans-65" x="594.921875"/>
     <use xlink:href="#DejaVuSans-6e" x="656.445312"/>
     <use xlink:href="#DejaVuSans-63" x="719.824219"/>
     <use xlink:href="#DejaVuSans-79" x="774.804688"/>
    </g>
   </g>
  </g>
  <g id="axes_2">
   <g id="patch_4">
    <path d="M 315.96125 252.92 
L 561.11625 252.92 
L 561.11625 68.64 
L 315.96125 68.64 
z
" style="fill: #ffffff"/>
   </g>
   <g id="PolyCollection_3">
    <defs>
     <path id="m6c644166e1" d="M 379.167074 -32.254489 
L 375.332926 -32.254489 
L 374.938443 -33.946683 
L 374.497011 -35.638878 
L 374.005039 -37.331073 
L 373.458341 -39.023267 
L 372.852715 -40.715462 
L 372.184726 -42.407657 
L 371.452498 -44.099851 
L 370.656351 -45.792046 
L 369.799117 -47.484241 
L 368.886055 -49.176435 
L 367.924357 -50.86863 
L 366.922311 -52.560825 
L 365.888238 -54.253019 
L 364.829304 -55.945214 
L 363.750285 -57.637409 
L 362.652358 -59.329603 
L 361.531941 -61.021798 
L 360.379732 -62.713993 
L 359.18015 -64.406187 
L 357.911532 -66.098382 
L 356.547443 -67.790577 
L 355.059373 -69.482771 
L 353.420831 -71.174966 
L 351.612459 -72.867161 
L 349.627401 -74.559355 
L 347.475909 -76.25155 
L 345.188093 -77.943745 
L 342.813957 -79.63594 
L 340.420288 -81.328134 
L 338.084554 -83.020329 
L 335.886619 -84.712524 
L 333.8996 -86.404718 
L 332.181587 -88.096913 
L 330.769915 -89.789108 
L 329.679305 -91.481302 
L 328.904351 -93.173497 
L 328.425805 -94.865692 
L 328.219 -96.557886 
L 328.262159 -98.250081 
L 328.542213 -99.942276 
L 329.056493 -101.63447 
L 329.80984 -103.326665 
L 330.8081 -105.01886 
L 332.050039 -106.711054 
L 333.520227 -108.403249 
L 335.18512 -110.095444 
L 336.993605 -111.787638 
L 338.882006 -113.479833 
L 340.782269 -115.172028 
L 342.631273 -116.864222 
L 344.378935 -118.556417 
L 345.993296 -120.248612 
L 347.461611 -121.940806 
L 348.787661 -123.633001 
L 349.98645 -125.325196 
L 351.078083 -127.01739 
L 352.082606 -128.709585 
L 353.017073 -130.40178 
L 353.895219 -132.093974 
L 354.729173 -133.786169 
L 355.531978 -135.478364 
L 356.319526 -137.170558 
L 357.110822 -138.862753 
L 357.926262 -140.554948 
L 358.784339 -142.247142 
L 359.697818 -143.939337 
L 360.670612 -145.631532 
L 361.696315 -147.323726 
L 362.758843 -149.015921 
L 363.834999 -150.708116 
L 364.898286 -152.40031 
L 365.923085 -154.092505 
L 366.888319 -155.7847 
L 367.779996 -157.476895 
L 368.592326 -159.169089 
L 369.327407 -160.861284 
L 369.993707 -162.553479 
L 370.603742 -164.245673 
L 371.171393 -165.937868 
L 371.709346 -167.630063 
L 372.227082 -169.322257 
L 372.729681 -171.014452 
L 373.217591 -172.706647 
L 373.687262 -174.398841 
L 374.1324 -176.091036 
L 374.54553 -177.783231 
L 374.919515 -179.475425 
L 375.248807 -181.16762 
L 375.530277 -182.859815 
L 375.763606 -184.552009 
L 375.951283 -186.244204 
L 376.098269 -187.936399 
L 376.211424 -189.628593 
L 376.29876 -191.320788 
L 376.368612 -193.012983 
L 376.428807 -194.705177 
L 376.48594 -196.397372 
L 376.544833 -198.089567 
L 376.608256 -199.781761 
L 377.891744 -199.781761 
L 377.891744 -199.781761 
L 377.955167 -198.089567 
L 378.01406 -196.397372 
L 378.071193 -194.705177 
L 378.131388 -193.012983 
L 378.20124 -191.320788 
L 378.288576 -189.628593 
L 378.401731 -187.936399 
L 378.548717 -186.244204 
L 378.736394 -184.552009 
L 378.969723 -182.859815 
L 379.251193 -181.16762 
L 379.580485 -179.475425 
L 379.95447 -177.783231 
L 380.3676 -176.091036 
L 380.812738 -174.398841 
L 381.282409 -172.706647 
L 381.770319 -171.014452 
L 382.272918 -169.322257 
L 382.790654 -167.630063 
L 383.328607 -165.937868 
L 383.896258 -164.245673 
L 384.506293 -162.553479 
L 385.172593 -160.861284 
L 385.907674 -159.169089 
L 386.720004 -157.476895 
L 387.611681 -155.7847 
L 388.576915 -154.092505 
L 389.601714 -152.40031 
L 390.665001 -150.708116 
L 391.741157 -149.015921 
L 392.803685 -147.323726 
L 393.829388 -145.631532 
L 394.802182 -143.939337 
L 395.715661 -142.247142 
L 396.573738 -140.554948 
L 397.389178 -138.862753 
L 398.180474 -137.170558 
L 398.968022 -135.478364 
L 399.770827 -133.786169 
L 400.604781 -132.093974 
L 401.482927 -130.40178 
L 402.417394 -128.709585 
L 403.421917 -127.01739 
L 404.51355 -125.325196 
L 405.712339 -123.633001 
L 407.038389 -121.940806 
L 408.506704 -120.248612 
L 410.121065 -118.556417 
L 411.868727 -116.864222 
L 413.717731 -115.172028 
L 415.617994 -113.479833 
L 417.506395 -111.787638 
L 419.31488 -110.095444 
L 420.979773 -108.403249 
L 422.449961 -106.711054 
L 423.6919 -105.01886 
L 424.69016 -103.326665 
L 425.443507 -101.63447 
L 425.957787 -99.942276 
L 426.237841 -98.250081 
L 426.281 -96.557886 
L 426.074195 -94.865692 
L 425.595649 -93.173497 
L 424.820695 -91.481302 
L 423.730085 -89.789108 
L 422.318413 -88.096913 
L 420.6004 -86.404718 
L 418.613381 -84.712524 
L 416.415446 -83.020329 
L 414.079712 -81.328134 
L 411.686043 -79.63594 
L 409.311907 -77.943745 
L 407.024091 -76.25155 
L 404.872599 -74.559355 
L 402.887541 -72.867161 
L 401.079169 -71.174966 
L 399.440627 -69.482771 
L 397.952557 -67.790577 
L 396.588468 -66.098382 
L 395.31985 -64.406187 
L 394.120268 -62.713993 
L 392.968059 -61.021798 
L 391.847642 -59.329603 
L 390.749715 -57.637409 
L 389.670696 -55.945214 
L 388.611762 -54.253019 
L 387.577689 -52.560825 
L 386.575643 -50.86863 
L 385.613945 -49.176435 
L 384.700883 -47.484241 
L 383.843649 -45.792046 
L 383.047502 -44.099851 
L 382.315274 -42.407657 
L 381.647285 -40.715462 
L 381.041659 -39.023267 
L 380.494961 -37.331073 
L 380.002989 -35.638878 
L 379.561557 -33.946683 
L 379.167074 -32.254489 
z
" style="stroke: #3f3f3f; stroke-width: 1.5"/>
    </defs>
    <g clip-path="url(#p73cf958085)">
     <use xlink:href="#m6c644166e1" x="0" y="276.798125" style="fill: #3274a1; stroke: #3f3f3f; stroke-width: 1.5"/>
    </g>
   </g>
   <g id="PolyCollection_4">
    <defs>
     <path id="mcd25d385fb" d="M 506.491578 -48.96384 
L 493.163422 -48.96384 
L 492.456694 -50.420408 
L 491.789074 -51.876975 
L 491.167963 -53.333543 
L 490.593785 -54.790111 
L 490.059516 -56.246679 
L 489.550984 -57.703246 
L 489.047926 -59.159814 
L 488.525682 -60.616382 
L 487.957396 -62.072949 
L 487.316493 -63.529517 
L 486.579215 -64.986085 
L 485.726965 -66.442653 
L 484.748234 -67.89922 
L 483.639894 -69.355788 
L 482.407717 -70.812356 
L 481.06605 -72.268923 
L 479.636658 -73.725491 
L 478.146859 -75.182059 
L 476.627137 -76.638627 
L 475.108481 -78.095194 
L 473.619727 -79.551762 
L 472.185159 -81.00833 
L 470.822613 -82.464898 
L 469.54227 -83.921465 
L 468.346257 -85.378033 
L 467.229107 -86.834601 
L 466.17905 -88.291168 
L 465.180007 -89.747736 
L 464.214061 -91.204304 
L 463.264132 -92.660872 
L 462.316507 -94.117439 
L 461.362909 -95.574007 
L 460.401835 -97.030575 
L 459.439014 -98.487142 
L 458.48699 -99.94371 
L 457.563956 -101.400278 
L 456.69209 -102.856846 
L 455.895701 -104.313413 
L 455.199453 -105.769981 
L 454.626858 -107.226549 
L 454.199126 -108.683117 
L 453.934333 -110.139684 
L 453.846786 -111.596252 
L 453.946468 -113.05282 
L 454.238461 -114.509387 
L 454.722352 -115.965955 
L 455.391691 -117.422523 
L 456.233677 -118.879091 
L 457.229236 -120.335658 
L 458.35366 -121.792226 
L 459.577862 -123.248794 
L 460.870218 -124.705362 
L 462.198845 -126.161929 
L 463.534066 -127.618497 
L 464.850761 -129.075065 
L 466.130277 -130.531632 
L 467.361642 -131.9882 
L 468.541869 -133.444768 
L 469.675304 -134.901336 
L 470.772103 -136.357903 
L 471.846057 -137.814471 
L 472.912135 -139.271039 
L 473.984107 -140.727606 
L 475.072642 -142.184174 
L 476.184129 -143.640742 
L 477.320335 -145.09731 
L 478.478816 -146.553877 
L 479.653865 -148.010445 
L 480.837709 -149.467013 
L 482.02162 -150.923581 
L 483.196754 -152.380148 
L 484.354584 -153.836716 
L 485.486983 -155.293284 
L 486.586074 -156.749851 
L 487.644037 -158.206419 
L 488.653027 -159.662987 
L 489.605321 -161.119555 
L 490.4937 -162.576122 
L 491.31203 -164.03269 
L 492.055914 -165.489258 
L 492.723292 -166.945825 
L 493.314871 -168.402393 
L 493.83428 -169.858961 
L 494.287919 -171.315529 
L 494.684497 -172.772096 
L 495.034317 -174.228664 
L 495.348377 -175.685232 
L 495.637414 -177.1418 
L 495.911011 -178.598367 
L 496.176875 -180.054935 
L 496.440378 -181.511503 
L 496.704416 -182.96807 
L 496.969564 -184.424638 
L 497.234494 -185.881206 
L 497.49655 -187.337774 
L 497.752375 -188.794341 
L 497.998498 -190.250909 
L 498.231778 -191.707477 
L 498.449703 -193.164044 
L 501.205297 -193.164044 
L 501.205297 -193.164044 
L 501.423222 -191.707477 
L 501.656502 -190.250909 
L 501.902625 -188.794341 
L 502.15845 -187.337774 
L 502.420506 -185.881206 
L 502.685436 -184.424638 
L 502.950584 -182.96807 
L 503.214622 -181.511503 
L 503.478125 -180.054935 
L 503.743989 -178.598367 
L 504.017586 -177.1418 
L 504.306623 -175.685232 
L 504.620683 -174.228664 
L 504.970503 -172.772096 
L 505.367081 -171.315529 
L 505.82072 -169.858961 
L 506.340129 -168.402393 
L 506.931708 -166.945825 
L 507.599086 -165.489258 
L 508.34297 -164.03269 
L 509.1613 -162.576122 
L 510.049679 -161.119555 
L 511.001973 -159.662987 
L 512.010963 -158.206419 
L 513.068926 -156.749851 
L 514.168017 -155.293284 
L 515.300416 -153.836716 
L 516.458246 -152.380148 
L 517.63338 -150.923581 
L 518.817291 -149.467013 
L 520.001135 -148.010445 
L 521.176184 -146.553877 
L 522.334665 -145.09731 
L 523.470871 -143.640742 
L 524.582358 -142.184174 
L 525.670893 -140.727606 
L 526.742865 -139.271039 
L 527.808943 -137.814471 
L 528.882897 -136.357903 
L 529.979696 -134.901336 
L 531.113131 -133.444768 
L 532.293358 -131.9882 
L 533.524723 -130.531632 
L 534.804239 -129.075065 
L 536.120934 -127.618497 
L 537.456155 -126.161929 
L 538.784782 -124.705362 
L 540.077138 -123.248794 
L 541.30134 -121.792226 
L 542.425764 -120.335658 
L 543.421323 -118.879091 
L 544.263309 -117.422523 
L 544.932648 -115.965955 
L 545.416539 -114.509387 
L 545.708532 -113.05282 
L 545.808214 -111.596252 
L 545.720667 -110.139684 
L 545.455874 -108.683117 
L 545.028142 -107.226549 
L 544.455547 -105.769981 
L 543.759299 -104.313413 
L 542.96291 -102.856846 
L 542.091044 -101.400278 
L 541.16801 -99.94371 
L 540.215986 -98.487142 
L 539.253165 -97.030575 
L 538.292091 -95.574007 
L 537.338493 -94.117439 
L 536.390868 -92.660872 
L 535.440939 -91.204304 
L 534.474993 -89.747736 
L 533.47595 -88.291168 
L 532.425893 -86.834601 
L 531.308743 -85.378033 
L 530.11273 -83.921465 
L 528.832387 -82.464898 
L 527.469841 -81.00833 
L 526.035273 -79.551762 
L 524.546519 -78.095194 
L 523.027863 -76.638627 
L 521.508141 -75.182059 
L 520.018342 -73.725491 
L 518.58895 -72.268923 
L 517.247283 -70.812356 
L 516.015106 -69.355788 
L 514.906766 -67.89922 
L 513.928035 -66.442653 
L 513.075785 -64.986085 
L 512.338507 -63.529517 
L 511.697604 -62.072949 
L 511.129318 -60.616382 
L 510.607074 -59.159814 
L 510.104016 -57.703246 
L 509.595484 -56.246679 
L 509.061215 -54.790111 
L 508.487037 -53.333543 
L 507.865926 -51.876975 
L 507.198306 -50.420408 
L 506.491578 -48.96384 
z
" style="stroke: #3f3f3f; stroke-width: 1.5"/>
    </defs>
    <g clip-path="url(#p73cf958085)">
     <use xlink:href="#mcd25d385fb" x="0" y="276.798125" style="fill: #e1812c; stroke: #3f3f3f; stroke-width: 1.5"/>
    </g>
   </g>
   <g id="matplotlib.axis_3">
    <g id="xtick_3">
     <g id="line2d_17">
      <g>
       <use xlink:href="#m1f05b1cd99" x="377.25" y="252.92" style="stroke: #000000; stroke-width: 0.8"/>
      </g>
     </g>
     <g id="text_13">
      <!-- HC -->
      <g transform="translate(369.998438 267.518437) scale(0.1 -0.1)">
       <use xlink:href="#DejaVuSans-48"/>
       <use xlink:href="#DejaVuSans-43" x="75.195312"/>
      </g>
     </g>
    </g>
    <g id="xtick_4">
     <g id="line2d_18">
      <g>
       <use xlink:href="#m1f05b1cd99" x="499.8275" y="252.92" style="stroke: #000000; stroke-width: 0.8"/>
      </g>
     </g>
     <g id="text_14">
      <!-- Cannabis -->
      <g transform="translate(476.7025 267.518437) scale(0.1 -0.1)">
       <use xlink:href="#DejaVuSans-43"/>
       <use xlink:href="#DejaVuSans-61" x="69.824219"/>
       <use xlink:href="#DejaVuSans-6e" x="131.103516"/>
       <use xlink:href="#DejaVuSans-6e" x="194.482422"/>
       <use xlink:href="#DejaVuSans-61" x="257.861328"/>
       <use xlink:href="#DejaVuSans-62" x="319.140625"/>
       <use xlink:href="#DejaVuSans-69" x="382.617188"/>
       <use xlink:href="#DejaVuSans-73" x="410.400391"/>
      </g>
     </g>
    </g>
   </g>
   <g id="matplotlib.axis_4">
    <g id="ytick_9">
     <g id="line2d_19">
      <g>
       <use xlink:href="#m10e5f8284e" x="315.96125" y="249.43783" style="stroke: #000000; stroke-width: 0.8"/>
      </g>
     </g>
    </g>
    <g id="ytick_10">
     <g id="line2d_20">
      <g>
       <use xlink:href="#m10e5f8284e" x="315.96125" y="225.254757" style="stroke: #000000; stroke-width: 0.8"/>
      </g>
     </g>
    </g>
    <g id="ytick_11">
     <g id="line2d_21">
      <g>
       <use xlink:href="#m10e5f8284e" x="315.96125" y="201.071685" style="stroke: #000000; stroke-width: 0.8"/>
      </g>
     </g>
    </g>
    <g id="ytick_12">
     <g id="line2d_22">
      <g>
       <use xlink:href="#m10e5f8284e" x="315.96125" y="176.888613" style="stroke: #000000; stroke-width: 0.8"/>
      </g>
     </g>
    </g>
    <g id="ytick_13">
     <g id="line2d_23">
      <g>
       <use xlink:href="#m10e5f8284e" x="315.96125" y="152.705541" style="stroke: #000000; stroke-width: 0.8"/>
      </g>
     </g>
    </g>
    <g id="ytick_14">
     <g id="line2d_24">
      <g>
       <use xlink:href="#m10e5f8284e" x="315.96125" y="128.522469" style="stroke: #000000; stroke-width: 0.8"/>
      </g>
     </g>
    </g>
    <g id="ytick_15">
     <g id="line2d_25">
      <g>
       <use xlink:href="#m10e5f8284e" x="315.96125" y="104.339397" style="stroke: #000000; stroke-width: 0.8"/>
      </g>
     </g>
    </g>
    <g id="ytick_16">
     <g id="line2d_26">
      <g>
       <use xlink:href="#m10e5f8284e" x="315.96125" y="80.156324" style="stroke: #000000; stroke-width: 0.8"/>
      </g>
     </g>
    </g>
   </g>
   <g id="line2d_27">
    <path d="M 336.300253 191.797669 
L 418.199747 191.797669 
" clip-path="url(#p73cf958085)" style="fill: none; stroke-dasharray: 3.375,3.375; stroke-dashoffset: 0; stroke: #3f3f3f; stroke-width: 1.5"/>
   </g>
   <g id="line2d_28">
    <path d="M 329.538428 175.598849 
L 424.961572 175.598849 
" clip-path="url(#p73cf958085)" style="fill: none; stroke-dasharray: 6.75,6.75; stroke-dashoffset: 0; stroke: #3f3f3f; stroke-width: 1.5"/>
   </g>
   <g id="line2d_29">
    <path d="M 347.759495 155.569124 
L 406.740505 155.569124 
" clip-path="url(#p73cf958085)" style="fill: none; stroke-dasharray: 3.375,3.375; stroke-dashoffset: 0; stroke: #3f3f3f; stroke-width: 1.5"/>
   </g>
   <g id="line2d_30">
    <path d="M 464.570196 185.957265 
L 535.084804 185.957265 
" clip-path="url(#p73cf958085)" style="fill: none; stroke-dasharray: 3.375,3.375; stroke-dashoffset: 0; stroke: #3f3f3f; stroke-width: 1.5"/>
   </g>
   <g id="line2d_31">
    <path d="M 454.393265 166.530197 
L 545.261735 166.530197 
" clip-path="url(#p73cf958085)" style="fill: none; stroke-dasharray: 6.75,6.75; stroke-dashoffset: 0; stroke: #3f3f3f; stroke-width: 1.5"/>
   </g>
   <g id="line2d_32">
    <path d="M 465.200528 147.681796 
L 534.454472 147.681796 
" clip-path="url(#p73cf958085)" style="fill: none; stroke-dasharray: 3.375,3.375; stroke-dashoffset: 0; stroke: #3f3f3f; stroke-width: 1.5"/>
   </g>
   <g id="patch_5">
    <path d="M 315.96125 252.92 
L 561.11625 252.92 
" style="fill: none; stroke: #000000; stroke-width: 0.8; stroke-linejoin: miter; stroke-linecap: square"/>
   </g>
   <g id="text_15">
    <!-- Local Efficiency -->
    <g transform="translate(392.086563 62.64) scale(0.12 -0.12)">
     <defs>
      <path id="DejaVuSans-4c" d="M 628 4666 
L 1259 4666 
L 1259 531 
L 3531 531 
L 3531 0 
L 628 0 
L 628 4666 
z
" transform="scale(0.015625)"/>
     </defs>
     <use xlink:href="#DejaVuSans-4c"/>
     <use xlink:href="#DejaVuSans-6f" x="53.962891"/>
     <use xlink:href="#DejaVuSans-63" x="115.144531"/>
     <use xlink:href="#DejaVuSans-61" x="170.125"/>
     <use xlink:href="#DejaVuSans-6c" x="231.404297"/>
     <use xlink:href="#DejaVuSans-20" x="259.1875"/>
     <use xlink:href="#DejaVuSans-45" x="290.974609"/>
     <use xlink:href="#DejaVuSans-66" x="354.158203"/>
     <use xlink:href="#DejaVuSans-66" x="389.363281"/>
     <use xlink:href="#DejaVuSans-69" x="424.568359"/>
     <use xlink:href="#DejaVuSans-63" x="452.351562"/>
     <use xlink:href="#DejaVuSans-69" x="507.332031"/>
     <use xlink:href="#DejaVuSans-65" x="535.115234"/>
     <use xlink:href="#DejaVuSans-6e" x="596.638672"/>
     <use xlink:href="#DejaVuSans-63" x="660.017578"/>
     <use xlink:href="#DejaVuSans-79" x="714.998047"/>
    </g>
   </g>
  </g>
  <g id="text_16">
   <!-- Model: OVR_L2_logistic, Group: HC -  Efficiency Comparison -->
   <g transform="translate(16.73375 19.3575) scale(0.16 -0.16)">
    <defs>
     <path id="DejaVuSans-Bold-4d" d="M 588 4666 
L 2119 4666 
L 3181 2169 
L 4250 4666 
L 5778 4666 
L 5778 0 
L 4641 0 
L 4641 3413 
L 3566 897 
L 2803 897 
L 1728 3413 
L 1728 0 
L 588 0 
L 588 4666 
z
" transform="scale(0.015625)"/>
     <path id="DejaVuSans-Bold-6f" d="M 2203 2784 
Q 1831 2784 1636 2517 
Q 1441 2250 1441 1747 
Q 1441 1244 1636 976 
Q 1831 709 2203 709 
Q 2569 709 2762 976 
Q 2956 1244 2956 1747 
Q 2956 2250 2762 2517 
Q 2569 2784 2203 2784 
z
M 2203 3584 
Q 3106 3584 3614 3096 
Q 4122 2609 4122 1747 
Q 4122 884 3614 396 
Q 3106 -91 2203 -91 
Q 1297 -91 786 396 
Q 275 884 275 1747 
Q 275 2609 786 3096 
Q 1297 3584 2203 3584 
z
" transform="scale(0.015625)"/>
     <path id="DejaVuSans-Bold-64" d="M 2919 2988 
L 2919 4863 
L 4044 4863 
L 4044 0 
L 2919 0 
L 2919 506 
Q 2688 197 2409 53 
Q 2131 -91 1766 -91 
Q 1119 -91 703 423 
Q 288 938 288 1747 
Q 288 2556 703 3070 
Q 1119 3584 1766 3584 
Q 2128 3584 2408 3439 
Q 2688 3294 2919 2988 
z
M 2181 722 
Q 2541 722 2730 984 
Q 2919 1247 2919 1747 
Q 2919 2247 2730 2509 
Q 2541 2772 2181 2772 
Q 1825 2772 1636 2509 
Q 1447 2247 1447 1747 
Q 1447 1247 1636 984 
Q 1825 722 2181 722 
z
" transform="scale(0.015625)"/>
     <path id="DejaVuSans-Bold-65" d="M 4031 1759 
L 4031 1441 
L 1416 1441 
Q 1456 1047 1700 850 
Q 1944 653 2381 653 
Q 2734 653 3104 758 
Q 3475 863 3866 1075 
L 3866 213 
Q 3469 63 3072 -14 
Q 2675 -91 2278 -91 
Q 1328 -91 801 392 
Q 275 875 275 1747 
Q 275 2603 792 3093 
Q 1309 3584 2216 3584 
Q 3041 3584 3536 3087 
Q 4031 2591 4031 1759 
z
M 2881 2131 
Q 2881 2450 2695 2645 
Q 2509 2841 2209 2841 
Q 1884 2841 1681 2658 
Q 1478 2475 1428 2131 
L 2881 2131 
z
" transform="scale(0.015625)"/>
     <path id="DejaVuSans-Bold-6c" d="M 538 4863 
L 1656 4863 
L 1656 0 
L 538 0 
L 538 4863 
z
" transform="scale(0.015625)"/>
     <path id="DejaVuSans-Bold-3a" d="M 716 3500 
L 1844 3500 
L 1844 2291 
L 716 2291 
L 716 3500 
z
M 716 1209 
L 1844 1209 
L 1844 0 
L 716 0 
L 716 1209 
z
" transform="scale(0.015625)"/>
     <path id="DejaVuSans-Bold-20" transform="scale(0.015625)"/>
     <path id="DejaVuSans-Bold-4f" d="M 2719 3878 
Q 2169 3878 1866 3472 
Q 1563 3066 1563 2328 
Q 1563 1594 1866 1187 
Q 2169 781 2719 781 
Q 3272 781 3575 1187 
Q 3878 1594 3878 2328 
Q 3878 3066 3575 3472 
Q 3272 3878 2719 3878 
z
M 2719 4750 
Q 3844 4750 4481 4106 
Q 5119 3463 5119 2328 
Q 5119 1197 4481 553 
Q 3844 -91 2719 -91 
Q 1597 -91 958 553 
Q 319 1197 319 2328 
Q 319 3463 958 4106 
Q 1597 4750 2719 4750 
z
" transform="scale(0.015625)"/>
     <path id="DejaVuSans-Bold-56" d="M 31 4666 
L 1241 4666 
L 2478 1222 
L 3713 4666 
L 4922 4666 
L 3194 0 
L 1759 0 
L 31 4666 
z
" transform="scale(0.015625)"/>
     <path id="DejaVuSans-Bold-52" d="M 2297 2597 
Q 2675 2597 2839 2737 
Q 3003 2878 3003 3200 
Q 3003 3519 2839 3656 
Q 2675 3794 2297 3794 
L 1791 3794 
L 1791 2597 
L 2297 2597 
z
M 1791 1766 
L 1791 0 
L 588 0 
L 588 4666 
L 2425 4666 
Q 3347 4666 3776 4356 
Q 4206 4047 4206 3378 
Q 4206 2916 3982 2619 
Q 3759 2322 3309 2181 
Q 3556 2125 3751 1926 
Q 3947 1728 4147 1325 
L 4800 0 
L 3519 0 
L 2950 1159 
Q 2778 1509 2601 1637 
Q 2425 1766 2131 1766 
L 1791 1766 
z
" transform="scale(0.015625)"/>
     <path id="DejaVuSans-Bold-5f" d="M 3200 -916 
L 3200 -1509 
L 0 -1509 
L 0 -916 
L 3200 -916 
z
" transform="scale(0.015625)"/>
     <path id="DejaVuSans-Bold-4c" d="M 588 4666 
L 1791 4666 
L 1791 909 
L 3903 909 
L 3903 0 
L 588 0 
L 588 4666 
z
" transform="scale(0.015625)"/>
     <path id="DejaVuSans-Bold-32" d="M 1844 884 
L 3897 884 
L 3897 0 
L 506 0 
L 506 884 
L 2209 2388 
Q 2438 2594 2547 2791 
Q 2656 2988 2656 3200 
Q 2656 3528 2436 3728 
Q 2216 3928 1850 3928 
Q 1569 3928 1234 3808 
Q 900 3688 519 3450 
L 519 4475 
Q 925 4609 1322 4679 
Q 1719 4750 2100 4750 
Q 2938 4750 3402 4381 
Q 3866 4013 3866 3353 
Q 3866 2972 3669 2642 
Q 3472 2313 2841 1759 
L 1844 884 
z
" transform="scale(0.015625)"/>
     <path id="DejaVuSans-Bold-67" d="M 2919 594 
Q 2688 288 2409 144 
Q 2131 0 1766 0 
Q 1125 0 706 504 
Q 288 1009 288 1791 
Q 288 2575 706 3076 
Q 1125 3578 1766 3578 
Q 2131 3578 2409 3434 
Q 2688 3291 2919 2981 
L 2919 3500 
L 4044 3500 
L 4044 353 
Q 4044 -491 3511 -936 
Q 2978 -1381 1966 -1381 
Q 1638 -1381 1331 -1331 
Q 1025 -1281 716 -1178 
L 716 -306 
Q 1009 -475 1290 -558 
Q 1572 -641 1856 -641 
Q 2406 -641 2662 -400 
Q 2919 -159 2919 353 
L 2919 594 
z
M 2181 2772 
Q 1834 2772 1640 2515 
Q 1447 2259 1447 1791 
Q 1447 1309 1634 1061 
Q 1822 813 2181 813 
Q 2531 813 2725 1069 
Q 2919 1325 2919 1791 
Q 2919 2259 2725 2515 
Q 2531 2772 2181 2772 
z
" transform="scale(0.015625)"/>
     <path id="DejaVuSans-Bold-69" d="M 538 3500 
L 1656 3500 
L 1656 0 
L 538 0 
L 538 3500 
z
M 538 4863 
L 1656 4863 
L 1656 3950 
L 538 3950 
L 538 4863 
z
" transform="scale(0.015625)"/>
     <path id="DejaVuSans-Bold-73" d="M 3272 3391 
L 3272 2541 
Q 2913 2691 2578 2766 
Q 2244 2841 1947 2841 
Q 1628 2841 1473 2761 
Q 1319 2681 1319 2516 
Q 1319 2381 1436 2309 
Q 1553 2238 1856 2203 
L 2053 2175 
Q 2913 2066 3209 1816 
Q 3506 1566 3506 1031 
Q 3506 472 3093 190 
Q 2681 -91 1863 -91 
Q 1516 -91 1145 -36 
Q 775 19 384 128 
L 384 978 
Q 719 816 1070 734 
Q 1422 653 1784 653 
Q 2113 653 2278 743 
Q 2444 834 2444 1013 
Q 2444 1163 2330 1236 
Q 2216 1309 1875 1350 
L 1678 1375 
Q 931 1469 631 1722 
Q 331 1975 331 2491 
Q 331 3047 712 3315 
Q 1094 3584 1881 3584 
Q 2191 3584 2531 3537 
Q 2872 3491 3272 3391 
z
" transform="scale(0.015625)"/>
     <path id="DejaVuSans-Bold-74" d="M 1759 4494 
L 1759 3500 
L 2913 3500 
L 2913 2700 
L 1759 2700 
L 1759 1216 
Q 1759 972 1856 886 
Q 1953 800 2241 800 
L 2816 800 
L 2816 0 
L 1856 0 
Q 1194 0 917 276 
Q 641 553 641 1216 
L 641 2700 
L 84 2700 
L 84 3500 
L 641 3500 
L 641 4494 
L 1759 4494 
z
" transform="scale(0.015625)"/>
     <path id="DejaVuSans-Bold-63" d="M 3366 3391 
L 3366 2478 
Q 3138 2634 2908 2709 
Q 2678 2784 2431 2784 
Q 1963 2784 1702 2511 
Q 1441 2238 1441 1747 
Q 1441 1256 1702 982 
Q 1963 709 2431 709 
Q 2694 709 2930 787 
Q 3166 866 3366 1019 
L 3366 103 
Q 3103 6 2833 -42 
Q 2563 -91 2291 -91 
Q 1344 -91 809 395 
Q 275 881 275 1747 
Q 275 2613 809 3098 
Q 1344 3584 2291 3584 
Q 2566 3584 2833 3536 
Q 3100 3488 3366 3391 
z
" transform="scale(0.015625)"/>
     <path id="DejaVuSans-Bold-2c" d="M 653 1209 
L 1778 1209 
L 1778 256 
L 1006 -909 
L 341 -909 
L 653 256 
L 653 1209 
z
" transform="scale(0.015625)"/>
     <path id="DejaVuSans-Bold-47" d="M 4781 347 
Q 4331 128 3847 18 
Q 3363 -91 2847 -91 
Q 1681 -91 1000 561 
Q 319 1213 319 2328 
Q 319 3456 1012 4103 
Q 1706 4750 2913 4750 
Q 3378 4750 3804 4662 
Q 4231 4575 4609 4403 
L 4609 3438 
Q 4219 3659 3833 3768 
Q 3447 3878 3059 3878 
Q 2341 3878 1952 3476 
Q 1563 3075 1563 2328 
Q 1563 1588 1938 1184 
Q 2313 781 3003 781 
Q 3191 781 3352 804 
Q 3513 828 3641 878 
L 3641 1784 
L 2906 1784 
L 2906 2591 
L 4781 2591 
L 4781 347 
z
" transform="scale(0.015625)"/>
     <path id="DejaVuSans-Bold-72" d="M 3138 2547 
Q 2991 2616 2845 2648 
Q 2700 2681 2553 2681 
Q 2122 2681 1889 2404 
Q 1656 2128 1656 1613 
L 1656 0 
L 538 0 
L 538 3500 
L 1656 3500 
L 1656 2925 
Q 1872 3269 2151 3426 
Q 2431 3584 2822 3584 
Q 2878 3584 2943 3579 
Q 3009 3575 3134 3559 
L 3138 2547 
z
" transform="scale(0.015625)"/>
     <path id="DejaVuSans-Bold-75" d="M 500 1363 
L 500 3500 
L 1625 3500 
L 1625 3150 
Q 1625 2866 1622 2436 
Q 1619 2006 1619 1863 
Q 1619 1441 1641 1255 
Q 1663 1069 1716 984 
Q 1784 875 1895 815 
Q 2006 756 2150 756 
Q 2500 756 2700 1025 
Q 2900 1294 2900 1772 
L 2900 3500 
L 4019 3500 
L 4019 0 
L 2900 0 
L 2900 506 
Q 2647 200 2364 54 
Q 2081 -91 1741 -91 
Q 1134 -91 817 281 
Q 500 653 500 1363 
z
" transform="scale(0.015625)"/>
     <path id="DejaVuSans-Bold-70" d="M 1656 506 
L 1656 -1331 
L 538 -1331 
L 538 3500 
L 1656 3500 
L 1656 2988 
Q 1888 3294 2169 3439 
Q 2450 3584 2816 3584 
Q 3463 3584 3878 3070 
Q 4294 2556 4294 1747 
Q 4294 938 3878 423 
Q 3463 -91 2816 -91 
Q 2450 -91 2169 54 
Q 1888 200 1656 506 
z
M 2400 2772 
Q 2041 2772 1848 2508 
Q 1656 2244 1656 1747 
Q 1656 1250 1848 986 
Q 2041 722 2400 722 
Q 2759 722 2948 984 
Q 3138 1247 3138 1747 
Q 3138 2247 2948 2509 
Q 2759 2772 2400 2772 
z
" transform="scale(0.015625)"/>
     <path id="DejaVuSans-Bold-48" d="M 588 4666 
L 1791 4666 
L 1791 2888 
L 3566 2888 
L 3566 4666 
L 4769 4666 
L 4769 0 
L 3566 0 
L 3566 1978 
L 1791 1978 
L 1791 0 
L 588 0 
L 588 4666 
z
" transform="scale(0.015625)"/>
     <path id="DejaVuSans-Bold-43" d="M 4288 256 
Q 3956 84 3597 -3 
Q 3238 -91 2847 -91 
Q 1681 -91 1000 561 
Q 319 1213 319 2328 
Q 319 3447 1000 4098 
Q 1681 4750 2847 4750 
Q 3238 4750 3597 4662 
Q 3956 4575 4288 4403 
L 4288 3438 
Q 3953 3666 3628 3772 
Q 3303 3878 2944 3878 
Q 2300 3878 1931 3465 
Q 1563 3053 1563 2328 
Q 1563 1606 1931 1193 
Q 2300 781 2944 781 
Q 3303 781 3628 887 
Q 3953 994 4288 1222 
L 4288 256 
z
" transform="scale(0.015625)"/>
     <path id="DejaVuSans-Bold-2d" d="M 347 2297 
L 2309 2297 
L 2309 1388 
L 347 1388 
L 347 2297 
z
" transform="scale(0.015625)"/>
     <path id="DejaVuSans-Bold-45" d="M 588 4666 
L 3834 4666 
L 3834 3756 
L 1791 3756 
L 1791 2888 
L 3713 2888 
L 3713 1978 
L 1791 1978 
L 1791 909 
L 3903 909 
L 3903 0 
L 588 0 
L 588 4666 
z
" transform="scale(0.015625)"/>
     <path id="DejaVuSans-Bold-66" d="M 2841 4863 
L 2841 4128 
L 2222 4128 
Q 1984 4128 1890 4042 
Q 1797 3956 1797 3744 
L 1797 3500 
L 2753 3500 
L 2753 2700 
L 1797 2700 
L 1797 0 
L 678 0 
L 678 2700 
L 122 2700 
L 122 3500 
L 678 3500 
L 678 3744 
Q 678 4316 997 4589 
Q 1316 4863 1984 4863 
L 2841 4863 
z
" transform="scale(0.015625)"/>
     <path id="DejaVuSans-Bold-6e" d="M 4056 2131 
L 4056 0 
L 2931 0 
L 2931 347 
L 2931 1631 
Q 2931 2084 2911 2256 
Q 2891 2428 2841 2509 
Q 2775 2619 2662 2680 
Q 2550 2741 2406 2741 
Q 2056 2741 1856 2470 
Q 1656 2200 1656 1722 
L 1656 0 
L 538 0 
L 538 3500 
L 1656 3500 
L 1656 2988 
Q 1909 3294 2193 3439 
Q 2478 3584 2822 3584 
Q 3428 3584 3742 3212 
Q 4056 2841 4056 2131 
z
" transform="scale(0.015625)"/>
     <path id="DejaVuSans-Bold-79" d="M 78 3500 
L 1197 3500 
L 2138 1125 
L 2938 3500 
L 4056 3500 
L 2584 -331 
Q 2363 -916 2067 -1148 
Q 1772 -1381 1288 -1381 
L 641 -1381 
L 641 -647 
L 991 -647 
Q 1275 -647 1404 -556 
Q 1534 -466 1606 -231 
L 1638 -134 
L 78 3500 
z
" transform="scale(0.015625)"/>
     <path id="DejaVuSans-Bold-6d" d="M 3781 2919 
Q 3994 3244 4286 3414 
Q 4578 3584 4928 3584 
Q 5531 3584 5847 3212 
Q 6163 2841 6163 2131 
L 6163 0 
L 5038 0 
L 5038 1825 
Q 5041 1866 5042 1909 
Q 5044 1953 5044 2034 
Q 5044 2406 4934 2573 
Q 4825 2741 4581 2741 
Q 4263 2741 4089 2478 
Q 3916 2216 3909 1719 
L 3909 0 
L 2784 0 
L 2784 1825 
Q 2784 2406 2684 2573 
Q 2584 2741 2328 2741 
Q 2006 2741 1831 2477 
Q 1656 2213 1656 1722 
L 1656 0 
L 531 0 
L 531 3500 
L 1656 3500 
L 1656 2988 
Q 1863 3284 2130 3434 
Q 2397 3584 2719 3584 
Q 3081 3584 3359 3409 
Q 3638 3234 3781 2919 
z
" transform="scale(0.015625)"/>
     <path id="DejaVuSans-Bold-61" d="M 2106 1575 
Q 1756 1575 1579 1456 
Q 1403 1338 1403 1106 
Q 1403 894 1545 773 
Q 1688 653 1941 653 
Q 2256 653 2472 879 
Q 2688 1106 2688 1447 
L 2688 1575 
L 2106 1575 
z
M 3816 1997 
L 3816 0 
L 2688 0 
L 2688 519 
Q 2463 200 2181 54 
Q 1900 -91 1497 -91 
Q 953 -91 614 226 
Q 275 544 275 1050 
Q 275 1666 698 1953 
Q 1122 2241 2028 2241 
L 2688 2241 
L 2688 2328 
Q 2688 2594 2478 2717 
Q 2269 2841 1825 2841 
Q 1466 2841 1156 2769 
Q 847 2697 581 2553 
L 581 3406 
Q 941 3494 1303 3539 
Q 1666 3584 2028 3584 
Q 2975 3584 3395 3211 
Q 3816 2838 3816 1997 
z
" transform="scale(0.015625)"/>
    </defs>
    <use xlink:href="#DejaVuSans-Bold-4d"/>
    <use xlink:href="#DejaVuSans-Bold-6f" x="99.511719"/>
    <use xlink:href="#DejaVuSans-Bold-64" x="168.212891"/>
    <use xlink:href="#DejaVuSans-Bold-65" x="239.794922"/>
    <use xlink:href="#DejaVuSans-Bold-6c" x="307.617188"/>
    <use xlink:href="#DejaVuSans-Bold-3a" x="341.894531"/>
    <use xlink:href="#DejaVuSans-Bold-20" x="381.884766"/>
    <use xlink:href="#DejaVuSans-Bold-4f" x="416.699219"/>
    <use xlink:href="#DejaVuSans-Bold-56" x="499.083984"/>
    <use xlink:href="#DejaVuSans-Bold-52" x="576.476562"/>
    <use xlink:href="#DejaVuSans-Bold-5f" x="653.478516"/>
    <use xlink:href="#DejaVuSans-Bold-4c" x="703.478516"/>
    <use xlink:href="#DejaVuSans-Bold-32" x="767.199219"/>
    <use xlink:href="#DejaVuSans-Bold-5f" x="836.779297"/>
    <use xlink:href="#DejaVuSans-Bold-6c" x="886.779297"/>
    <use xlink:href="#DejaVuSans-Bold-6f" x="921.056641"/>
    <use xlink:href="#DejaVuSans-Bold-67" x="989.757812"/>
    <use xlink:href="#DejaVuSans-Bold-69" x="1061.339844"/>
    <use xlink:href="#DejaVuSans-Bold-73" x="1095.617188"/>
    <use xlink:href="#DejaVuSans-Bold-74" x="1155.138672"/>
    <use xlink:href="#DejaVuSans-Bold-69" x="1202.941406"/>
    <use xlink:href="#DejaVuSans-Bold-63" x="1237.21875"/>
    <use xlink:href="#DejaVuSans-Bold-2c" x="1296.496094"/>
    <use xlink:href="#DejaVuSans-Bold-20" x="1334.484375"/>
    <use xlink:href="#DejaVuSans-Bold-47" x="1369.298828"/>
    <use xlink:href="#DejaVuSans-Bold-72" x="1451.378906"/>
    <use xlink:href="#DejaVuSans-Bold-6f" x="1500.695312"/>
    <use xlink:href="#DejaVuSans-Bold-75" x="1569.396484"/>
    <use xlink:href="#DejaVuSans-Bold-70" x="1640.587891"/>
    <use xlink:href="#DejaVuSans-Bold-3a" x="1712.169922"/>
    <use xlink:href="#DejaVuSans-Bold-20" x="1752.160156"/>
    <use xlink:href="#DejaVuSans-Bold-48" x="1786.974609"/>
    <use xlink:href="#DejaVuSans-Bold-43" x="1870.666016"/>
    <use xlink:href="#DejaVuSans-Bold-20" x="1944.054688"/>
    <use xlink:href="#DejaVuSans-Bold-2d" x="1978.869141"/>
    <use xlink:href="#DejaVuSans-Bold-20" x="2020.373047"/>
    <use xlink:href="#DejaVuSans-Bold-20" x="2055.1875"/>
    <use xlink:href="#DejaVuSans-Bold-45" x="2090.001953"/>
    <use xlink:href="#DejaVuSans-Bold-66" x="2158.3125"/>
    <use xlink:href="#DejaVuSans-Bold-66" x="2201.818359"/>
    <use xlink:href="#DejaVuSans-Bold-69" x="2245.324219"/>
    <use xlink:href="#DejaVuSans-Bold-63" x="2279.601562"/>
    <use xlink:href="#DejaVuSans-Bold-69" x="2338.878906"/>
    <use xlink:href="#DejaVuSans-Bold-65" x="2373.15625"/>
    <use xlink:href="#DejaVuSans-Bold-6e" x="2440.978516"/>
    <use xlink:href="#DejaVuSans-Bold-63" x="2512.169922"/>
    <use xlink:href="#DejaVuSans-Bold-79" x="2571.447266"/>
    <use xlink:href="#DejaVuSans-Bold-20" x="2636.632812"/>
    <use xlink:href="#DejaVuSans-Bold-43" x="2671.447266"/>
    <use xlink:href="#DejaVuSans-Bold-6f" x="2744.835938"/>
    <use xlink:href="#DejaVuSans-Bold-6d" x="2813.537109"/>
    <use xlink:href="#DejaVuSans-Bold-70" x="2917.736328"/>
    <use xlink:href="#DejaVuSans-Bold-61" x="2989.318359"/>
    <use xlink:href="#DejaVuSans-Bold-72" x="3056.798828"/>
    <use xlink:href="#DejaVuSans-Bold-69" x="3106.115234"/>
    <use xlink:href="#DejaVuSans-Bold-73" x="3140.392578"/>
    <use xlink:href="#DejaVuSans-Bold-6f" x="3199.914062"/>
    <use xlink:href="#DejaVuSans-Bold-6e" x="3268.615234"/>
   </g>
  </g>
 </g>
 <defs>
  <clipPath id="p99e9b0aa85">
   <rect x="56.50625" y="68.64" width="245.155" height="184.28"/>
  </clipPath>
  <clipPath id="p73cf958085">
   <rect x="315.96125" y="68.64" width="245.155" height="184.28"/>
  </clipPath>
 </defs>
</svg>
