<?xml version="1.0" encoding="utf-8" standalone="no"?>
<!DOCTYPE svg PUBLIC "-//W3C//DTD SVG 1.1//EN"
  "http://www.w3.org/Graphics/SVG/1.1/DTD/svg11.dtd">
<svg xmlns:xlink="http://www.w3.org/1999/xlink" width="633.94942pt" height="534.32538pt" viewBox="0 0 633.94942 534.32538" xmlns="http://www.w3.org/2000/svg" version="1.1">
 <metadata>
  <rdf:RDF xmlns:dc="http://purl.org/dc/elements/1.1/" xmlns:cc="http://creativecommons.org/ns#" xmlns:rdf="http://www.w3.org/1999/02/22-rdf-syntax-ns#">
   <cc:Work>
    <dc:type rdf:resource="http://purl.org/dc/dcmitype/StillImage"/>
    <dc:date>2025-04-21T16:18:15.313115</dc:date>
    <dc:format>image/svg+xml</dc:format>
    <dc:creator>
     <cc:Agent>
      <dc:title>Matplotlib v3.7.1, https://matplotlib.org/</dc:title>
     </cc:Agent>
    </dc:creator>
   </cc:Work>
  </rdf:RDF>
 </metadata>
 <defs>
  <style type="text/css">*{stroke-linejoin: round; stroke-linecap: butt}</style>
 </defs>
 <g id="figure_1">
  <g id="patch_1">
   <path d="M 0 534.32538 
L 633.94942 534.32538 
L 633.94942 0 
L 0 0 
z
" style="fill: #ffffff"/>
  </g>
  <g id="axes_1">
   <g id="patch_2">
    <path d="M 476.51742 291.4695 
C 476.51742 262.348244 470.781168 233.510155 459.636945 206.605622 
C 448.492723 179.701089 432.157258 155.253338 411.56542 134.6615 
C 390.973582 114.069662 366.525831 97.734197 339.621298 86.589975 
C 312.716766 75.445753 283.878677 69.7095 254.75742 69.7095 
C 225.636164 69.7095 196.798075 75.445753 169.893542 86.589975 
C 142.98901 97.734197 118.541258 114.069662 97.949421 134.6615 
C 77.357583 155.253338 61.022118 179.701089 49.877895 206.605622 
C 38.733673 233.510155 32.99742 262.348244 32.99742 291.4695 
C 32.99742 320.590756 38.733673 349.428845 49.877895 376.333378 
C 61.022118 403.237911 77.357583 427.685662 97.949421 448.2775 
C 118.541258 468.869338 142.98901 485.204803 169.893542 496.349025 
C 196.798075 507.493247 225.636164 513.2295 254.75742 513.2295 
C 283.878677 513.2295 312.716766 507.493247 339.621298 496.349025 
C 366.525831 485.204803 390.973582 468.869338 411.56542 448.2775 
C 432.157258 427.685662 448.492723 403.237911 459.636945 376.333378 
C 470.781168 349.428845 476.51742 320.590756 476.51742 291.4695 
M 254.75742 291.4695 
C 254.75742 291.4695 254.75742 291.4695 254.75742 291.4695 
C 254.75742 291.4695 254.75742 291.4695 254.75742 291.4695 
C 254.75742 291.4695 254.75742 291.4695 254.75742 291.4695 
C 254.75742 291.4695 254.75742 291.4695 254.75742 291.4695 
C 254.75742 291.4695 254.75742 291.4695 254.75742 291.4695 
C 254.75742 291.4695 254.75742 291.4695 254.75742 291.4695 
C 254.75742 291.4695 254.75742 291.4695 254.75742 291.4695 
C 254.75742 291.4695 254.75742 291.4695 254.75742 291.4695 
C 254.75742 291.4695 254.75742 291.4695 254.75742 291.4695 
C 254.75742 291.4695 254.75742 291.4695 254.75742 291.4695 
C 254.75742 291.4695 254.75742 291.4695 254.75742 291.4695 
C 254.75742 291.4695 254.75742 291.4695 254.75742 291.4695 
C 254.75742 291.4695 254.75742 291.4695 254.75742 291.4695 
C 254.75742 291.4695 254.75742 291.4695 254.75742 291.4695 
C 254.75742 291.4695 254.75742 291.4695 254.75742 291.4695 
C 254.75742 291.4695 254.75742 291.4695 254.75742 291.4695 
z
" style="fill: #ffffff"/>
   </g>
   <g id="patch_3">
    <path d="M 386.783569 291.4695 
L 320.365665 209.199363 
L 224.675839 159.673479 
L 138.170851 235.324367 
L 148.107696 342.8293 
L 212.615051 476.107285 
L 328.412674 383.830267 
z
" clip-path="url(#p2a39566c84)" style="fill: #800080; opacity: 0.25; stroke: #800080; stroke-linejoin: miter"/>
   </g>
   <g id="patch_4">
    <path d="M 373.486627 291.4695 
L 313.625898 217.650764 
L 211.847644 103.469488 
L 135.461922 234.019816 
L 167.973177 333.262589 
L 212.039574 478.628614 
L 316.805072 369.274794 
z
" clip-path="url(#p2a39566c84)" style="fill: #0000ff; opacity: 0.25; stroke: #0000ff; stroke-linejoin: miter"/>
   </g>
   <g id="patch_5">
    <path d="M 403.296217 291.4695 
L 326.326362 201.724885 
L 227.370962 171.481588 
L 153.61038 242.759653 
L 165.214995 334.590859 
L 218.694207 449.472762 
L 339.397764 397.605134 
z
" clip-path="url(#p2a39566c84)" style="fill: #ff0000; opacity: 0.25; stroke: #ff0000; stroke-linejoin: miter"/>
   </g>
   <g id="matplotlib.axis_1">
    <g id="xtick_1">
     <g id="line2d_1">
      <path d="M 254.75742 291.4695 
L 476.51742 291.4695 
" clip-path="url(#p2a39566c84)" style="fill: none; stroke-dasharray: 2.96,1.28; stroke-dashoffset: 0; stroke: #b0b0b0; stroke-opacity: 0.7; stroke-width: 0.8"/>
     </g>
     <g id="text_1">
      <!-- Vis -->
      <g transform="translate(481.755545 294.78075) scale(0.12 -0.12)">
       <defs>
        <path id="DejaVuSans-56" d="M 1831 0 
L 50 4666 
L 709 4666 
L 2188 738 
L 3669 4666 
L 4325 4666 
L 2547 0 
L 1831 0 
z
" transform="scale(0.015625)"/>
        <path id="DejaVuSans-69" d="M 603 3500 
L 1178 3500 
L 1178 0 
L 603 0 
L 603 3500 
z
M 603 4863 
L 1178 4863 
L 1178 4134 
L 603 4134 
L 603 4863 
z
" transform="scale(0.015625)"/>
        <path id="DejaVuSans-73" d="M 2834 3397 
L 2834 2853 
Q 2591 2978 2328 3040 
Q 2066 3103 1784 3103 
Q 1356 3103 1142 2972 
Q 928 2841 928 2578 
Q 928 2378 1081 2264 
Q 1234 2150 1697 2047 
L 1894 2003 
Q 2506 1872 2764 1633 
Q 3022 1394 3022 966 
Q 3022 478 2636 193 
Q 2250 -91 1575 -91 
Q 1294 -91 989 -36 
Q 684 19 347 128 
L 347 722 
Q 666 556 975 473 
Q 1284 391 1588 391 
Q 1994 391 2212 530 
Q 2431 669 2431 922 
Q 2431 1156 2273 1281 
Q 2116 1406 1581 1522 
L 1381 1569 
Q 847 1681 609 1914 
Q 372 2147 372 2553 
Q 372 3047 722 3315 
Q 1072 3584 1716 3584 
Q 2034 3584 2315 3537 
Q 2597 3491 2834 3397 
z
" transform="scale(0.015625)"/>
       </defs>
       <use xlink:href="#DejaVuSans-56"/>
       <use xlink:href="#DejaVuSans-69" x="66.158203"/>
       <use xlink:href="#DejaVuSans-73" x="93.941406"/>
      </g>
     </g>
    </g>
    <g id="xtick_2">
     <g id="line2d_2">
      <path d="M 254.75742 291.4695 
L 393.022519 118.09055 
" clip-path="url(#p2a39566c84)" style="fill: none; stroke-dasharray: 2.96,1.28; stroke-dashoffset: 0; stroke: #b0b0b0; stroke-opacity: 0.7; stroke-width: 0.8"/>
     </g>
     <g id="text_2">
      <!-- SomMot -->
      <g transform="translate(377.226376 110.45616) scale(0.12 -0.12)">
       <defs>
        <path id="DejaVuSans-53" d="M 3425 4513 
L 3425 3897 
Q 3066 4069 2747 4153 
Q 2428 4238 2131 4238 
Q 1616 4238 1336 4038 
Q 1056 3838 1056 3469 
Q 1056 3159 1242 3001 
Q 1428 2844 1947 2747 
L 2328 2669 
Q 3034 2534 3370 2195 
Q 3706 1856 3706 1288 
Q 3706 609 3251 259 
Q 2797 -91 1919 -91 
Q 1588 -91 1214 -16 
Q 841 59 441 206 
L 441 856 
Q 825 641 1194 531 
Q 1563 422 1919 422 
Q 2459 422 2753 634 
Q 3047 847 3047 1241 
Q 3047 1584 2836 1778 
Q 2625 1972 2144 2069 
L 1759 2144 
Q 1053 2284 737 2584 
Q 422 2884 422 3419 
Q 422 4038 858 4394 
Q 1294 4750 2059 4750 
Q 2388 4750 2728 4690 
Q 3069 4631 3425 4513 
z
" transform="scale(0.015625)"/>
        <path id="DejaVuSans-6f" d="M 1959 3097 
Q 1497 3097 1228 2736 
Q 959 2375 959 1747 
Q 959 1119 1226 758 
Q 1494 397 1959 397 
Q 2419 397 2687 759 
Q 2956 1122 2956 1747 
Q 2956 2369 2687 2733 
Q 2419 3097 1959 3097 
z
M 1959 3584 
Q 2709 3584 3137 3096 
Q 3566 2609 3566 1747 
Q 3566 888 3137 398 
Q 2709 -91 1959 -91 
Q 1206 -91 779 398 
Q 353 888 353 1747 
Q 353 2609 779 3096 
Q 1206 3584 1959 3584 
z
" transform="scale(0.015625)"/>
        <path id="DejaVuSans-6d" d="M 3328 2828 
Q 3544 3216 3844 3400 
Q 4144 3584 4550 3584 
Q 5097 3584 5394 3201 
Q 5691 2819 5691 2113 
L 5691 0 
L 5113 0 
L 5113 2094 
Q 5113 2597 4934 2840 
Q 4756 3084 4391 3084 
Q 3944 3084 3684 2787 
Q 3425 2491 3425 1978 
L 3425 0 
L 2847 0 
L 2847 2094 
Q 2847 2600 2669 2842 
Q 2491 3084 2119 3084 
Q 1678 3084 1418 2786 
Q 1159 2488 1159 1978 
L 1159 0 
L 581 0 
L 581 3500 
L 1159 3500 
L 1159 2956 
Q 1356 3278 1631 3431 
Q 1906 3584 2284 3584 
Q 2666 3584 2933 3390 
Q 3200 3197 3328 2828 
z
" transform="scale(0.015625)"/>
        <path id="DejaVuSans-4d" d="M 628 4666 
L 1569 4666 
L 2759 1491 
L 3956 4666 
L 4897 4666 
L 4897 0 
L 4281 0 
L 4281 4097 
L 3078 897 
L 2444 897 
L 1241 4097 
L 1241 0 
L 628 0 
L 628 4666 
z
" transform="scale(0.015625)"/>
        <path id="DejaVuSans-74" d="M 1172 4494 
L 1172 3500 
L 2356 3500 
L 2356 3053 
L 1172 3053 
L 1172 1153 
Q 1172 725 1289 603 
Q 1406 481 1766 481 
L 2356 481 
L 2356 0 
L 1766 0 
Q 1100 0 847 248 
Q 594 497 594 1153 
L 594 3053 
L 172 3053 
L 172 3500 
L 594 3500 
L 594 4494 
L 1172 4494 
z
" transform="scale(0.015625)"/>
       </defs>
       <use xlink:href="#DejaVuSans-53"/>
       <use xlink:href="#DejaVuSans-6f" x="63.476562"/>
       <use xlink:href="#DejaVuSans-6d" x="124.658203"/>
       <use xlink:href="#DejaVuSans-4d" x="222.070312"/>
       <use xlink:href="#DejaVuSans-6f" x="308.349609"/>
       <use xlink:href="#DejaVuSans-74" x="369.53125"/>
      </g>
     </g>
    </g>
    <g id="xtick_3">
     <g id="line2d_3">
      <path d="M 254.75742 291.4695 
L 205.411178 75.269486 
" clip-path="url(#p2a39566c84)" style="fill: none; stroke-dasharray: 2.96,1.28; stroke-dashoffset: 0; stroke: #b0b0b0; stroke-opacity: 0.7; stroke-width: 0.8"/>
     </g>
     <g id="text_3">
      <!-- DorsAttn -->
      <g transform="translate(175.906197 64.931745) scale(0.12 -0.12)">
       <defs>
        <path id="DejaVuSans-44" d="M 1259 4147 
L 1259 519 
L 2022 519 
Q 2988 519 3436 956 
Q 3884 1394 3884 2338 
Q 3884 3275 3436 3711 
Q 2988 4147 2022 4147 
L 1259 4147 
z
M 628 4666 
L 1925 4666 
Q 3281 4666 3915 4102 
Q 4550 3538 4550 2338 
Q 4550 1131 3912 565 
Q 3275 0 1925 0 
L 628 0 
L 628 4666 
z
" transform="scale(0.015625)"/>
        <path id="DejaVuSans-72" d="M 2631 2963 
Q 2534 3019 2420 3045 
Q 2306 3072 2169 3072 
Q 1681 3072 1420 2755 
Q 1159 2438 1159 1844 
L 1159 0 
L 581 0 
L 581 3500 
L 1159 3500 
L 1159 2956 
Q 1341 3275 1631 3429 
Q 1922 3584 2338 3584 
Q 2397 3584 2469 3576 
Q 2541 3569 2628 3553 
L 2631 2963 
z
" transform="scale(0.015625)"/>
        <path id="DejaVuSans-41" d="M 2188 4044 
L 1331 1722 
L 3047 1722 
L 2188 4044 
z
M 1831 4666 
L 2547 4666 
L 4325 0 
L 3669 0 
L 3244 1197 
L 1141 1197 
L 716 0 
L 50 0 
L 1831 4666 
z
" transform="scale(0.015625)"/>
        <path id="DejaVuSans-6e" d="M 3513 2113 
L 3513 0 
L 2938 0 
L 2938 2094 
Q 2938 2591 2744 2837 
Q 2550 3084 2163 3084 
Q 1697 3084 1428 2787 
Q 1159 2491 1159 1978 
L 1159 0 
L 581 0 
L 581 3500 
L 1159 3500 
L 1159 2956 
Q 1366 3272 1645 3428 
Q 1925 3584 2291 3584 
Q 2894 3584 3203 3211 
Q 3513 2838 3513 2113 
z
" transform="scale(0.015625)"/>
       </defs>
       <use xlink:href="#DejaVuSans-44"/>
       <use xlink:href="#DejaVuSans-6f" x="77.001953"/>
       <use xlink:href="#DejaVuSans-72" x="138.183594"/>
       <use xlink:href="#DejaVuSans-73" x="179.296875"/>
       <use xlink:href="#DejaVuSans-41" x="231.396484"/>
       <use xlink:href="#DejaVuSans-74" x="298.054688"/>
       <use xlink:href="#DejaVuSans-74" x="337.263672"/>
       <use xlink:href="#DejaVuSans-6e" x="376.472656"/>
      </g>
     </g>
    </g>
    <g id="xtick_4">
     <g id="line2d_4">
      <path d="M 254.75742 291.4695 
L 54.958564 195.251442 
" clip-path="url(#p2a39566c84)" style="fill: none; stroke-dasharray: 2.96,1.28; stroke-dashoffset: 0; stroke: #b0b0b0; stroke-opacity: 0.7; stroke-width: 0.8"/>
     </g>
     <g id="text_4">
      <!-- SalVentAttn -->
      <g transform="translate(7.2 192.48832) scale(0.12 -0.12)">
       <defs>
        <path id="DejaVuSans-61" d="M 2194 1759 
Q 1497 1759 1228 1600 
Q 959 1441 959 1056 
Q 959 750 1161 570 
Q 1363 391 1709 391 
Q 2188 391 2477 730 
Q 2766 1069 2766 1631 
L 2766 1759 
L 2194 1759 
z
M 3341 1997 
L 3341 0 
L 2766 0 
L 2766 531 
Q 2569 213 2275 61 
Q 1981 -91 1556 -91 
Q 1019 -91 701 211 
Q 384 513 384 1019 
Q 384 1609 779 1909 
Q 1175 2209 1959 2209 
L 2766 2209 
L 2766 2266 
Q 2766 2663 2505 2880 
Q 2244 3097 1772 3097 
Q 1472 3097 1187 3025 
Q 903 2953 641 2809 
L 641 3341 
Q 956 3463 1253 3523 
Q 1550 3584 1831 3584 
Q 2591 3584 2966 3190 
Q 3341 2797 3341 1997 
z
" transform="scale(0.015625)"/>
        <path id="DejaVuSans-6c" d="M 603 4863 
L 1178 4863 
L 1178 0 
L 603 0 
L 603 4863 
z
" transform="scale(0.015625)"/>
        <path id="DejaVuSans-65" d="M 3597 1894 
L 3597 1613 
L 953 1613 
Q 991 1019 1311 708 
Q 1631 397 2203 397 
Q 2534 397 2845 478 
Q 3156 559 3463 722 
L 3463 178 
Q 3153 47 2828 -22 
Q 2503 -91 2169 -91 
Q 1331 -91 842 396 
Q 353 884 353 1716 
Q 353 2575 817 3079 
Q 1281 3584 2069 3584 
Q 2775 3584 3186 3129 
Q 3597 2675 3597 1894 
z
M 3022 2063 
Q 3016 2534 2758 2815 
Q 2500 3097 2075 3097 
Q 1594 3097 1305 2825 
Q 1016 2553 972 2059 
L 3022 2063 
z
" transform="scale(0.015625)"/>
       </defs>
       <use xlink:href="#DejaVuSans-53"/>
       <use xlink:href="#DejaVuSans-61" x="63.476562"/>
       <use xlink:href="#DejaVuSans-6c" x="124.755859"/>
       <use xlink:href="#DejaVuSans-56" x="152.539062"/>
       <use xlink:href="#DejaVuSans-65" x="213.197266"/>
       <use xlink:href="#DejaVuSans-6e" x="274.720703"/>
       <use xlink:href="#DejaVuSans-74" x="338.099609"/>
       <use xlink:href="#DejaVuSans-41" x="377.308594"/>
       <use xlink:href="#DejaVuSans-74" x="443.966797"/>
       <use xlink:href="#DejaVuSans-74" x="483.175781"/>
       <use xlink:href="#DejaVuSans-6e" x="522.384766"/>
      </g>
     </g>
    </g>
    <g id="xtick_5">
     <g id="line2d_5">
      <path d="M 254.75742 291.4695 
L 54.958564 387.687558 
" clip-path="url(#p2a39566c84)" style="fill: none; stroke-dasharray: 2.96,1.28; stroke-dashoffset: 0; stroke: #b0b0b0; stroke-opacity: 0.7; stroke-width: 0.8"/>
     </g>
     <g id="text_5">
      <!-- Limbic -->
      <g transform="translate(22.715625 397.07318) scale(0.12 -0.12)">
       <defs>
        <path id="DejaVuSans-4c" d="M 628 4666 
L 1259 4666 
L 1259 531 
L 3531 531 
L 3531 0 
L 628 0 
L 628 4666 
z
" transform="scale(0.015625)"/>
        <path id="DejaVuSans-62" d="M 3116 1747 
Q 3116 2381 2855 2742 
Q 2594 3103 2138 3103 
Q 1681 3103 1420 2742 
Q 1159 2381 1159 1747 
Q 1159 1113 1420 752 
Q 1681 391 2138 391 
Q 2594 391 2855 752 
Q 3116 1113 3116 1747 
z
M 1159 2969 
Q 1341 3281 1617 3432 
Q 1894 3584 2278 3584 
Q 2916 3584 3314 3078 
Q 3713 2572 3713 1747 
Q 3713 922 3314 415 
Q 2916 -91 2278 -91 
Q 1894 -91 1617 61 
Q 1341 213 1159 525 
L 1159 0 
L 581 0 
L 581 4863 
L 1159 4863 
L 1159 2969 
z
" transform="scale(0.015625)"/>
        <path id="DejaVuSans-63" d="M 3122 3366 
L 3122 2828 
Q 2878 2963 2633 3030 
Q 2388 3097 2138 3097 
Q 1578 3097 1268 2742 
Q 959 2388 959 1747 
Q 959 1106 1268 751 
Q 1578 397 2138 397 
Q 2388 397 2633 464 
Q 2878 531 3122 666 
L 3122 134 
Q 2881 22 2623 -34 
Q 2366 -91 2075 -91 
Q 1284 -91 818 406 
Q 353 903 353 1747 
Q 353 2603 823 3093 
Q 1294 3584 2113 3584 
Q 2378 3584 2631 3529 
Q 2884 3475 3122 3366 
z
" transform="scale(0.015625)"/>
       </defs>
       <use xlink:href="#DejaVuSans-4c"/>
       <use xlink:href="#DejaVuSans-69" x="55.712891"/>
       <use xlink:href="#DejaVuSans-6d" x="83.496094"/>
       <use xlink:href="#DejaVuSans-62" x="180.908203"/>
       <use xlink:href="#DejaVuSans-69" x="244.384766"/>
       <use xlink:href="#DejaVuSans-63" x="272.167969"/>
      </g>
     </g>
    </g>
    <g id="xtick_6">
     <g id="line2d_6">
      <path d="M 254.75742 291.4695 
L 205.411178 507.669514 
" clip-path="url(#p2a39566c84)" style="fill: none; stroke-dasharray: 2.96,1.28; stroke-dashoffset: 0; stroke: #b0b0b0; stroke-opacity: 0.7; stroke-width: 0.8"/>
     </g>
     <g id="text_6">
      <!-- Cont -->
      <g transform="translate(188.28026 524.629755) scale(0.12 -0.12)">
       <defs>
        <path id="DejaVuSans-43" d="M 4122 4306 
L 4122 3641 
Q 3803 3938 3442 4084 
Q 3081 4231 2675 4231 
Q 1875 4231 1450 3742 
Q 1025 3253 1025 2328 
Q 1025 1406 1450 917 
Q 1875 428 2675 428 
Q 3081 428 3442 575 
Q 3803 722 4122 1019 
L 4122 359 
Q 3791 134 3420 21 
Q 3050 -91 2638 -91 
Q 1578 -91 968 557 
Q 359 1206 359 2328 
Q 359 3453 968 4101 
Q 1578 4750 2638 4750 
Q 3056 4750 3426 4639 
Q 3797 4528 4122 4306 
z
" transform="scale(0.015625)"/>
       </defs>
       <use xlink:href="#DejaVuSans-43"/>
       <use xlink:href="#DejaVuSans-6f" x="69.824219"/>
       <use xlink:href="#DejaVuSans-6e" x="131.005859"/>
       <use xlink:href="#DejaVuSans-74" x="194.384766"/>
      </g>
     </g>
    </g>
    <g id="xtick_7">
     <g id="line2d_7">
      <path d="M 254.75742 291.4695 
L 393.022519 464.84845 
" clip-path="url(#p2a39566c84)" style="fill: none; stroke-dasharray: 2.96,1.28; stroke-dashoffset: 0; stroke: #b0b0b0; stroke-opacity: 0.7; stroke-width: 0.8"/>
     </g>
     <g id="text_7">
      <!-- Default -->
      <g transform="translate(379.828876 479.10534) scale(0.12 -0.12)">
       <defs>
        <path id="DejaVuSans-66" d="M 2375 4863 
L 2375 4384 
L 1825 4384 
Q 1516 4384 1395 4259 
Q 1275 4134 1275 3809 
L 1275 3500 
L 2222 3500 
L 2222 3053 
L 1275 3053 
L 1275 0 
L 697 0 
L 697 3053 
L 147 3053 
L 147 3500 
L 697 3500 
L 697 3744 
Q 697 4328 969 4595 
Q 1241 4863 1831 4863 
L 2375 4863 
z
" transform="scale(0.015625)"/>
        <path id="DejaVuSans-75" d="M 544 1381 
L 544 3500 
L 1119 3500 
L 1119 1403 
Q 1119 906 1312 657 
Q 1506 409 1894 409 
Q 2359 409 2629 706 
Q 2900 1003 2900 1516 
L 2900 3500 
L 3475 3500 
L 3475 0 
L 2900 0 
L 2900 538 
Q 2691 219 2414 64 
Q 2138 -91 1772 -91 
Q 1169 -91 856 284 
Q 544 659 544 1381 
z
M 1991 3584 
L 1991 3584 
z
" transform="scale(0.015625)"/>
       </defs>
       <use xlink:href="#DejaVuSans-44"/>
       <use xlink:href="#DejaVuSans-65" x="77.001953"/>
       <use xlink:href="#DejaVuSans-66" x="138.525391"/>
       <use xlink:href="#DejaVuSans-61" x="173.730469"/>
       <use xlink:href="#DejaVuSans-75" x="235.009766"/>
       <use xlink:href="#DejaVuSans-6c" x="298.388672"/>
       <use xlink:href="#DejaVuSans-74" x="326.171875"/>
      </g>
     </g>
    </g>
   </g>
   <g id="matplotlib.axis_2">
    <g id="ytick_1">
     <g id="line2d_8">
      <path d="M 254.75742 291.4695 
C 254.75742 291.4695 254.75742 291.4695 254.75742 291.4695 
C 254.75742 291.4695 254.75742 291.4695 254.75742 291.4695 
C 254.75742 291.4695 254.75742 291.4695 254.75742 291.4695 
C 254.75742 291.4695 254.75742 291.4695 254.75742 291.4695 
C 254.75742 291.4695 254.75742 291.4695 254.75742 291.4695 
C 254.75742 291.4695 254.75742 291.4695 254.75742 291.4695 
C 254.75742 291.4695 254.75742 291.4695 254.75742 291.4695 
C 254.75742 291.4695 254.75742 291.4695 254.75742 291.4695 
C 254.75742 291.4695 254.75742 291.4695 254.75742 291.4695 
C 254.75742 291.4695 254.75742 291.4695 254.75742 291.4695 
C 254.75742 291.4695 254.75742 291.4695 254.75742 291.4695 
C 254.75742 291.4695 254.75742 291.4695 254.75742 291.4695 
C 254.75742 291.4695 254.75742 291.4695 254.75742 291.4695 
C 254.75742 291.4695 254.75742 291.4695 254.75742 291.4695 
C 254.75742 291.4695 254.75742 291.4695 254.75742 291.4695 
C 254.75742 291.4695 254.75742 291.4695 254.75742 291.4695 
" clip-path="url(#p2a39566c84)" style="fill: none; stroke-dasharray: 2.96,1.28; stroke-dashoffset: 0; stroke: #b0b0b0; stroke-opacity: 0.7; stroke-width: 0.8"/>
     </g>
     <g id="text_8">
      <!-- 0.000 -->
      <g transform="translate(254.75742 289.389813) scale(0.1 -0.1)">
       <defs>
        <path id="DejaVuSans-30" d="M 2034 4250 
Q 1547 4250 1301 3770 
Q 1056 3291 1056 2328 
Q 1056 1369 1301 889 
Q 1547 409 2034 409 
Q 2525 409 2770 889 
Q 3016 1369 3016 2328 
Q 3016 3291 2770 3770 
Q 2525 4250 2034 4250 
z
M 2034 4750 
Q 2819 4750 3233 4129 
Q 3647 3509 3647 2328 
Q 3647 1150 3233 529 
Q 2819 -91 2034 -91 
Q 1250 -91 836 529 
Q 422 1150 422 2328 
Q 422 3509 836 4129 
Q 1250 4750 2034 4750 
z
" transform="scale(0.015625)"/>
        <path id="DejaVuSans-2e" d="M 684 794 
L 1344 794 
L 1344 0 
L 684 0 
L 684 794 
z
" transform="scale(0.015625)"/>
       </defs>
       <use xlink:href="#DejaVuSans-30"/>
       <use xlink:href="#DejaVuSans-2e" x="63.623047"/>
       <use xlink:href="#DejaVuSans-30" x="95.410156"/>
       <use xlink:href="#DejaVuSans-30" x="159.033203"/>
       <use xlink:href="#DejaVuSans-30" x="222.65625"/>
      </g>
     </g>
    </g>
    <g id="ytick_2">
     <g id="line2d_9">
      <path d="M 328.67742 291.4695 
C 328.67742 281.762415 326.765336 272.149718 323.050595 263.181541 
C 319.335855 254.213363 313.8907 246.064113 307.026754 239.200167 
C 300.162808 232.336221 292.013557 226.891066 283.04538 223.176325 
C 274.077202 219.461584 264.464506 217.5495 254.75742 217.5495 
C 245.050335 217.5495 235.437639 219.461584 226.469461 223.176325 
C 217.501283 226.891066 209.352033 232.336221 202.488087 239.200167 
C 195.624141 246.064113 190.178986 254.213363 186.464245 263.181541 
C 182.749504 272.149718 180.83742 281.762415 180.83742 291.4695 
C 180.83742 301.176585 182.749504 310.789282 186.464245 319.757459 
C 190.178986 328.725637 195.624141 336.874887 202.488087 343.738833 
C 209.352033 350.602779 217.501283 356.047934 226.469461 359.762675 
C 235.437639 363.477416 245.050335 365.3895 254.75742 365.3895 
C 264.464506 365.3895 274.077202 363.477416 283.04538 359.762675 
C 292.013557 356.047934 300.162808 350.602779 307.026754 343.738833 
C 313.8907 336.874887 319.335855 328.725637 323.050595 319.757459 
C 326.765336 310.789282 328.67742 301.176585 328.67742 291.4695 
" clip-path="url(#p2a39566c84)" style="fill: none; stroke-dasharray: 2.96,1.28; stroke-dashoffset: 0; stroke: #b0b0b0; stroke-opacity: 0.7; stroke-width: 0.8"/>
     </g>
     <g id="text_9">
      <!-- 0.011 -->
      <g transform="translate(318.774018 252.429813) scale(0.1 -0.1)">
       <defs>
        <path id="DejaVuSans-31" d="M 794 531 
L 1825 531 
L 1825 4091 
L 703 3866 
L 703 4441 
L 1819 4666 
L 2450 4666 
L 2450 531 
L 3481 531 
L 3481 0 
L 794 0 
L 794 531 
z
" transform="scale(0.015625)"/>
       </defs>
       <use xlink:href="#DejaVuSans-30"/>
       <use xlink:href="#DejaVuSans-2e" x="63.623047"/>
       <use xlink:href="#DejaVuSans-30" x="95.410156"/>
       <use xlink:href="#DejaVuSans-31" x="159.033203"/>
       <use xlink:href="#DejaVuSans-31" x="222.65625"/>
      </g>
     </g>
    </g>
    <g id="ytick_3">
     <g id="line2d_10">
      <path d="M 402.59742 291.4695 
C 402.59742 272.055329 398.773252 252.829937 391.34377 234.893581 
C 383.914289 216.957226 373.023979 200.658725 359.296087 186.930833 
C 345.568195 173.202942 329.269694 162.312631 311.333339 154.88315 
C 293.396984 147.453668 274.171591 143.6295 254.75742 143.6295 
C 235.343249 143.6295 216.117857 147.453668 198.181502 154.88315 
C 180.245147 162.312631 163.946646 173.202942 150.218754 186.930833 
C 136.490862 200.658725 125.600552 216.957226 118.17107 234.893581 
C 110.741589 252.829937 106.91742 272.055329 106.91742 291.4695 
C 106.91742 310.883671 110.741589 330.109063 118.17107 348.045419 
C 125.600552 365.981774 136.490862 382.280275 150.218754 396.008167 
C 163.946646 409.736058 180.245147 420.626369 198.181502 428.05585 
C 216.117857 435.485332 235.343249 439.3095 254.75742 439.3095 
C 274.171591 439.3095 293.396984 435.485332 311.333339 428.05585 
C 329.269694 420.626369 345.568195 409.736058 359.296087 396.008167 
C 373.023979 382.280275 383.914289 365.981774 391.34377 348.045419 
C 398.773252 330.109063 402.59742 310.883671 402.59742 291.4695 
" clip-path="url(#p2a39566c84)" style="fill: none; stroke-dasharray: 2.96,1.28; stroke-dashoffset: 0; stroke: #b0b0b0; stroke-opacity: 0.7; stroke-width: 0.8"/>
     </g>
     <g id="text_10">
      <!-- 0.022 -->
      <g transform="translate(382.790616 215.469813) scale(0.1 -0.1)">
       <defs>
        <path id="DejaVuSans-32" d="M 1228 531 
L 3431 531 
L 3431 0 
L 469 0 
L 469 531 
Q 828 903 1448 1529 
Q 2069 2156 2228 2338 
Q 2531 2678 2651 2914 
Q 2772 3150 2772 3378 
Q 2772 3750 2511 3984 
Q 2250 4219 1831 4219 
Q 1534 4219 1204 4116 
Q 875 4013 500 3803 
L 500 4441 
Q 881 4594 1212 4672 
Q 1544 4750 1819 4750 
Q 2544 4750 2975 4387 
Q 3406 4025 3406 3419 
Q 3406 3131 3298 2873 
Q 3191 2616 2906 2266 
Q 2828 2175 2409 1742 
Q 1991 1309 1228 531 
z
" transform="scale(0.015625)"/>
       </defs>
       <use xlink:href="#DejaVuSans-30"/>
       <use xlink:href="#DejaVuSans-2e" x="63.623047"/>
       <use xlink:href="#DejaVuSans-30" x="95.410156"/>
       <use xlink:href="#DejaVuSans-32" x="159.033203"/>
       <use xlink:href="#DejaVuSans-32" x="222.65625"/>
      </g>
     </g>
    </g>
    <g id="ytick_4">
     <g id="line2d_11">
      <path d="M 476.51742 291.4695 
C 476.51742 262.348244 470.781168 233.510155 459.636945 206.605622 
C 448.492723 179.701089 432.157258 155.253338 411.56542 134.6615 
C 390.973582 114.069662 366.525831 97.734197 339.621298 86.589975 
C 312.716766 75.445753 283.878677 69.7095 254.75742 69.7095 
C 225.636164 69.7095 196.798075 75.445753 169.893542 86.589975 
C 142.98901 97.734197 118.541258 114.069662 97.949421 134.6615 
C 77.357583 155.253338 61.022118 179.701089 49.877895 206.605622 
C 38.733673 233.510155 32.99742 262.348244 32.99742 291.4695 
C 32.99742 320.590756 38.733673 349.428845 49.877895 376.333378 
C 61.022118 403.237911 77.357583 427.685662 97.949421 448.2775 
C 118.541258 468.869338 142.98901 485.204803 169.893542 496.349025 
C 196.798075 507.493247 225.636164 513.2295 254.75742 513.2295 
C 283.878677 513.2295 312.716766 507.493247 339.621298 496.349025 
C 366.525831 485.204803 390.973582 468.869338 411.56542 448.2775 
C 432.157258 427.685662 448.492723 403.237911 459.636945 376.333378 
C 470.781168 349.428845 476.51742 320.590756 476.51742 291.4695 
" clip-path="url(#p2a39566c84)" style="fill: none; stroke-dasharray: 2.96,1.28; stroke-dashoffset: 0; stroke: #b0b0b0; stroke-opacity: 0.7; stroke-width: 0.8"/>
     </g>
     <g id="text_11">
      <!-- 0.034 -->
      <g transform="translate(446.807214 178.509813) scale(0.1 -0.1)">
       <defs>
        <path id="DejaVuSans-33" d="M 2597 2516 
Q 3050 2419 3304 2112 
Q 3559 1806 3559 1356 
Q 3559 666 3084 287 
Q 2609 -91 1734 -91 
Q 1441 -91 1130 -33 
Q 819 25 488 141 
L 488 750 
Q 750 597 1062 519 
Q 1375 441 1716 441 
Q 2309 441 2620 675 
Q 2931 909 2931 1356 
Q 2931 1769 2642 2001 
Q 2353 2234 1838 2234 
L 1294 2234 
L 1294 2753 
L 1863 2753 
Q 2328 2753 2575 2939 
Q 2822 3125 2822 3475 
Q 2822 3834 2567 4026 
Q 2313 4219 1838 4219 
Q 1578 4219 1281 4162 
Q 984 4106 628 3988 
L 628 4550 
Q 988 4650 1302 4700 
Q 1616 4750 1894 4750 
Q 2613 4750 3031 4423 
Q 3450 4097 3450 3541 
Q 3450 3153 3228 2886 
Q 3006 2619 2597 2516 
z
" transform="scale(0.015625)"/>
        <path id="DejaVuSans-34" d="M 2419 4116 
L 825 1625 
L 2419 1625 
L 2419 4116 
z
M 2253 4666 
L 3047 4666 
L 3047 1625 
L 3713 1625 
L 3713 1100 
L 3047 1100 
L 3047 0 
L 2419 0 
L 2419 1100 
L 313 1100 
L 313 1709 
L 2253 4666 
z
" transform="scale(0.015625)"/>
       </defs>
       <use xlink:href="#DejaVuSans-30"/>
       <use xlink:href="#DejaVuSans-2e" x="63.623047"/>
       <use xlink:href="#DejaVuSans-30" x="95.410156"/>
       <use xlink:href="#DejaVuSans-33" x="159.033203"/>
       <use xlink:href="#DejaVuSans-34" x="222.65625"/>
      </g>
     </g>
    </g>
   </g>
   <g id="patch_6">
    <path d="M 476.51742 291.4695 
C 476.51742 262.348244 470.781168 233.510155 459.636945 206.605622 
C 448.492723 179.701089 432.157258 155.253338 411.56542 134.6615 
C 390.973582 114.069662 366.525831 97.734197 339.621298 86.589975 
C 312.716766 75.445753 283.878677 69.7095 254.75742 69.7095 
C 225.636164 69.7095 196.798075 75.445753 169.893542 86.589975 
C 142.98901 97.734197 118.541258 114.069662 97.949421 134.6615 
C 77.357583 155.253338 61.022118 179.701089 49.877895 206.605622 
C 38.733673 233.510155 32.99742 262.348244 32.99742 291.4695 
C 32.99742 320.590756 38.733673 349.428845 49.877895 376.333378 
C 61.022118 403.237911 77.357583 427.685662 97.949421 448.2775 
C 118.541258 468.869338 142.98901 485.204803 169.893542 496.349025 
C 196.798075 507.493247 225.636164 513.2295 254.75742 513.2295 
C 283.878677 513.2295 312.716766 507.493247 339.621298 496.349025 
C 366.525831 485.204803 390.973582 468.869338 411.56542 448.2775 
C 432.157258 427.685662 448.492723 403.237911 459.636945 376.333378 
C 470.781168 349.428845 476.51742 320.590756 476.51742 291.4695 
" style="fill: none; stroke: #000000; stroke-width: 0.8; stroke-linejoin: miter; stroke-linecap: square"/>
   </g>
   <g id="line2d_12">
    <path d="M 386.783569 291.4695 
L 320.365665 209.199363 
L 224.675839 159.673479 
L 138.170851 235.324367 
L 148.107696 342.8293 
L 212.615051 476.107285 
L 328.412674 383.830267 
L 386.783569 291.4695 
" clip-path="url(#p2a39566c84)" style="fill: none; stroke: #800080; stroke-width: 1.5; stroke-linecap: square"/>
   </g>
   <g id="line2d_13">
    <path d="M 373.486627 291.4695 
L 313.625898 217.650764 
L 211.847644 103.469488 
L 135.461922 234.019816 
L 167.973177 333.262589 
L 212.039574 478.628614 
L 316.805072 369.274794 
L 373.486627 291.4695 
" clip-path="url(#p2a39566c84)" style="fill: none; stroke: #0000ff; stroke-width: 1.5; stroke-linecap: square"/>
   </g>
   <g id="line2d_14">
    <path d="M 403.296217 291.4695 
L 326.326362 201.724885 
L 227.370962 171.481588 
L 153.61038 242.759653 
L 165.214995 334.590859 
L 218.694207 449.472762 
L 339.397764 397.605134 
L 403.296217 291.4695 
" clip-path="url(#p2a39566c84)" style="fill: none; stroke: #ff0000; stroke-width: 1.5; stroke-linecap: square"/>
   </g>
   <g id="text_12">
    <!-- Average Degree Centrality by Yeo Network -->
    <g transform="translate(83.99492 19.3575) scale(0.16 -0.16)">
     <defs>
      <path id="DejaVuSans-76" d="M 191 3500 
L 800 3500 
L 1894 563 
L 2988 3500 
L 3597 3500 
L 2284 0 
L 1503 0 
L 191 3500 
z
" transform="scale(0.015625)"/>
      <path id="DejaVuSans-67" d="M 2906 1791 
Q 2906 2416 2648 2759 
Q 2391 3103 1925 3103 
Q 1463 3103 1205 2759 
Q 947 2416 947 1791 
Q 947 1169 1205 825 
Q 1463 481 1925 481 
Q 2391 481 2648 825 
Q 2906 1169 2906 1791 
z
M 3481 434 
Q 3481 -459 3084 -895 
Q 2688 -1331 1869 -1331 
Q 1566 -1331 1297 -1286 
Q 1028 -1241 775 -1147 
L 775 -588 
Q 1028 -725 1275 -790 
Q 1522 -856 1778 -856 
Q 2344 -856 2625 -561 
Q 2906 -266 2906 331 
L 2906 616 
Q 2728 306 2450 153 
Q 2172 0 1784 0 
Q 1141 0 747 490 
Q 353 981 353 1791 
Q 353 2603 747 3093 
Q 1141 3584 1784 3584 
Q 2172 3584 2450 3431 
Q 2728 3278 2906 2969 
L 2906 3500 
L 3481 3500 
L 3481 434 
z
" transform="scale(0.015625)"/>
      <path id="DejaVuSans-20" transform="scale(0.015625)"/>
      <path id="DejaVuSans-79" d="M 2059 -325 
Q 1816 -950 1584 -1140 
Q 1353 -1331 966 -1331 
L 506 -1331 
L 506 -850 
L 844 -850 
Q 1081 -850 1212 -737 
Q 1344 -625 1503 -206 
L 1606 56 
L 191 3500 
L 800 3500 
L 1894 763 
L 2988 3500 
L 3597 3500 
L 2059 -325 
z
" transform="scale(0.015625)"/>
      <path id="DejaVuSans-59" d="M -13 4666 
L 666 4666 
L 1959 2747 
L 3244 4666 
L 3922 4666 
L 2272 2222 
L 2272 0 
L 1638 0 
L 1638 2222 
L -13 4666 
z
" transform="scale(0.015625)"/>
      <path id="DejaVuSans-4e" d="M 628 4666 
L 1478 4666 
L 3547 763 
L 3547 4666 
L 4159 4666 
L 4159 0 
L 3309 0 
L 1241 3903 
L 1241 0 
L 628 0 
L 628 4666 
z
" transform="scale(0.015625)"/>
      <path id="DejaVuSans-77" d="M 269 3500 
L 844 3500 
L 1563 769 
L 2278 3500 
L 2956 3500 
L 3675 769 
L 4391 3500 
L 4966 3500 
L 4050 0 
L 3372 0 
L 2619 2869 
L 1863 0 
L 1184 0 
L 269 3500 
z
" transform="scale(0.015625)"/>
      <path id="DejaVuSans-6b" d="M 581 4863 
L 1159 4863 
L 1159 1991 
L 2875 3500 
L 3609 3500 
L 1753 1863 
L 3688 0 
L 2938 0 
L 1159 1709 
L 1159 0 
L 581 0 
L 581 4863 
z
" transform="scale(0.015625)"/>
     </defs>
     <use xlink:href="#DejaVuSans-41"/>
     <use xlink:href="#DejaVuSans-76" x="62.533203"/>
     <use xlink:href="#DejaVuSans-65" x="121.712891"/>
     <use xlink:href="#DejaVuSans-72" x="183.236328"/>
     <use xlink:href="#DejaVuSans-61" x="224.349609"/>
     <use xlink:href="#DejaVuSans-67" x="285.628906"/>
     <use xlink:href="#DejaVuSans-65" x="349.105469"/>
     <use xlink:href="#DejaVuSans-20" x="410.628906"/>
     <use xlink:href="#DejaVuSans-44" x="442.416016"/>
     <use xlink:href="#DejaVuSans-65" x="519.417969"/>
     <use xlink:href="#DejaVuSans-67" x="580.941406"/>
     <use xlink:href="#DejaVuSans-72" x="644.417969"/>
     <use xlink:href="#DejaVuSans-65" x="683.28125"/>
     <use xlink:href="#DejaVuSans-65" x="744.804688"/>
     <use xlink:href="#DejaVuSans-20" x="806.328125"/>
     <use xlink:href="#DejaVuSans-43" x="838.115234"/>
     <use xlink:href="#DejaVuSans-65" x="907.939453"/>
     <use xlink:href="#DejaVuSans-6e" x="969.462891"/>
     <use xlink:href="#DejaVuSans-74" x="1032.841797"/>
     <use xlink:href="#DejaVuSans-72" x="1072.050781"/>
     <use xlink:href="#DejaVuSans-61" x="1113.164062"/>
     <use xlink:href="#DejaVuSans-6c" x="1174.443359"/>
     <use xlink:href="#DejaVuSans-69" x="1202.226562"/>
     <use xlink:href="#DejaVuSans-74" x="1230.009766"/>
     <use xlink:href="#DejaVuSans-79" x="1269.21875"/>
     <use xlink:href="#DejaVuSans-20" x="1328.398438"/>
     <use xlink:href="#DejaVuSans-62" x="1360.185547"/>
     <use xlink:href="#DejaVuSans-79" x="1423.662109"/>
     <use xlink:href="#DejaVuSans-20" x="1482.841797"/>
     <use xlink:href="#DejaVuSans-59" x="1514.628906"/>
     <use xlink:href="#DejaVuSans-65" x="1562.462891"/>
     <use xlink:href="#DejaVuSans-6f" x="1623.986328"/>
     <use xlink:href="#DejaVuSans-20" x="1685.167969"/>
     <use xlink:href="#DejaVuSans-4e" x="1716.955078"/>
     <use xlink:href="#DejaVuSans-65" x="1791.759766"/>
     <use xlink:href="#DejaVuSans-74" x="1853.283203"/>
     <use xlink:href="#DejaVuSans-77" x="1892.492188"/>
     <use xlink:href="#DejaVuSans-6f" x="1974.279297"/>
     <use xlink:href="#DejaVuSans-72" x="2035.460938"/>
     <use xlink:href="#DejaVuSans-6b" x="2076.574219"/>
    </g>
   </g>
   <g id="legend_1">
    <g id="patch_7">
     <path d="M 546.49942 77.391875 
L 624.74942 77.391875 
Q 626.74942 77.391875 626.74942 75.391875 
L 626.74942 32.3575 
Q 626.74942 30.3575 624.74942 30.3575 
L 546.49942 30.3575 
Q 544.49942 30.3575 544.49942 32.3575 
L 544.49942 75.391875 
Q 544.49942 77.391875 546.49942 77.391875 
z
" style="fill: #ffffff; opacity: 0.8; stroke: #cccccc; stroke-linejoin: miter"/>
    </g>
    <g id="line2d_15">
     <path d="M 548.49942 38.455938 
L 558.49942 38.455938 
L 568.49942 38.455938 
" style="fill: none; stroke: #800080; stroke-width: 1.5; stroke-linecap: square"/>
    </g>
    <g id="text_13">
     <!-- HC -->
     <g transform="translate(576.49942 41.955938) scale(0.1 -0.1)">
      <defs>
       <path id="DejaVuSans-48" d="M 628 4666 
L 1259 4666 
L 1259 2753 
L 3553 2753 
L 3553 4666 
L 4184 4666 
L 4184 0 
L 3553 0 
L 3553 2222 
L 1259 2222 
L 1259 0 
L 628 0 
L 628 4666 
z
" transform="scale(0.015625)"/>
      </defs>
      <use xlink:href="#DejaVuSans-48"/>
      <use xlink:href="#DejaVuSans-43" x="75.195312"/>
     </g>
    </g>
    <g id="line2d_16">
     <path d="M 548.49942 53.134063 
L 558.49942 53.134063 
L 568.49942 53.134063 
" style="fill: none; stroke: #0000ff; stroke-width: 1.5; stroke-linecap: square"/>
    </g>
    <g id="text_14">
     <!-- Cannabis -->
     <g transform="translate(576.49942 56.634063) scale(0.1 -0.1)">
      <use xlink:href="#DejaVuSans-43"/>
      <use xlink:href="#DejaVuSans-61" x="69.824219"/>
      <use xlink:href="#DejaVuSans-6e" x="131.103516"/>
      <use xlink:href="#DejaVuSans-6e" x="194.482422"/>
      <use xlink:href="#DejaVuSans-61" x="257.861328"/>
      <use xlink:href="#DejaVuSans-62" x="319.140625"/>
      <use xlink:href="#DejaVuSans-69" x="382.617188"/>
      <use xlink:href="#DejaVuSans-73" x="410.400391"/>
     </g>
    </g>
    <g id="line2d_17">
     <path d="M 548.49942 67.812187 
L 558.49942 67.812187 
L 568.49942 67.812187 
" style="fill: none; stroke: #ff0000; stroke-width: 1.5; stroke-linecap: square"/>
    </g>
    <g id="text_15">
     <!-- Alcohol -->
     <g transform="translate(576.49942 71.312187) scale(0.1 -0.1)">
      <defs>
       <path id="DejaVuSans-68" d="M 3513 2113 
L 3513 0 
L 2938 0 
L 2938 2094 
Q 2938 2591 2744 2837 
Q 2550 3084 2163 3084 
Q 1697 3084 1428 2787 
Q 1159 2491 1159 1978 
L 1159 0 
L 581 0 
L 581 4863 
L 1159 4863 
L 1159 2956 
Q 1366 3272 1645 3428 
Q 1925 3584 2291 3584 
Q 2894 3584 3203 3211 
Q 3513 2838 3513 2113 
z
" transform="scale(0.015625)"/>
      </defs>
      <use xlink:href="#DejaVuSans-41"/>
      <use xlink:href="#DejaVuSans-6c" x="68.408203"/>
      <use xlink:href="#DejaVuSans-63" x="96.191406"/>
      <use xlink:href="#DejaVuSans-6f" x="151.171875"/>
      <use xlink:href="#DejaVuSans-68" x="212.353516"/>
      <use xlink:href="#DejaVuSans-6f" x="275.732422"/>
      <use xlink:href="#DejaVuSans-6c" x="336.914062"/>
     </g>
    </g>
   </g>
  </g>
 </g>
 <defs>
  <clipPath id="p2a39566c84">
   <path d="M 476.51742 291.4695 
C 476.51742 262.348244 470.781168 233.510155 459.636945 206.605622 
C 448.492723 179.701089 432.157258 155.253338 411.56542 134.6615 
C 390.973582 114.069662 366.525831 97.734197 339.621298 86.589975 
C 312.716766 75.445753 283.878677 69.7095 254.75742 69.7095 
C 225.636164 69.7095 196.798075 75.445753 169.893542 86.589975 
C 142.98901 97.734197 118.541258 114.069662 97.949421 134.6615 
C 77.357583 155.253338 61.022118 179.701089 49.877895 206.605622 
C 38.733673 233.510155 32.99742 262.348244 32.99742 291.4695 
C 32.99742 320.590756 38.733673 349.428845 49.877895 376.333378 
C 61.022118 403.237911 77.357583 427.685662 97.949421 448.2775 
C 118.541258 468.869338 142.98901 485.204803 169.893542 496.349025 
C 196.798075 507.493247 225.636164 513.2295 254.75742 513.2295 
C 283.878677 513.2295 312.716766 507.493247 339.621298 496.349025 
C 366.525831 485.204803 390.973582 468.869338 411.56542 448.2775 
C 432.157258 427.685662 448.492723 403.237911 459.636945 376.333378 
C 470.781168 349.428845 476.51742 320.590756 476.51742 291.4695 
M 254.75742 291.4695 
C 254.75742 291.4695 254.75742 291.4695 254.75742 291.4695 
C 254.75742 291.4695 254.75742 291.4695 254.75742 291.4695 
C 254.75742 291.4695 254.75742 291.4695 254.75742 291.4695 
C 254.75742 291.4695 254.75742 291.4695 254.75742 291.4695 
C 254.75742 291.4695 254.75742 291.4695 254.75742 291.4695 
C 254.75742 291.4695 254.75742 291.4695 254.75742 291.4695 
C 254.75742 291.4695 254.75742 291.4695 254.75742 291.4695 
C 254.75742 291.4695 254.75742 291.4695 254.75742 291.4695 
C 254.75742 291.4695 254.75742 291.4695 254.75742 291.4695 
C 254.75742 291.4695 254.75742 291.4695 254.75742 291.4695 
C 254.75742 291.4695 254.75742 291.4695 254.75742 291.4695 
C 254.75742 291.4695 254.75742 291.4695 254.75742 291.4695 
C 254.75742 291.4695 254.75742 291.4695 254.75742 291.4695 
C 254.75742 291.4695 254.75742 291.4695 254.75742 291.4695 
C 254.75742 291.4695 254.75742 291.4695 254.75742 291.4695 
C 254.75742 291.4695 254.75742 291.4695 254.75742 291.4695 
z
"/>
  </clipPath>
 </defs>
</svg>
